<svg enable-background="new 0 0 101 171" shape-rendering="crispEdges" viewBox="0 0 101 171" xmlns="http://www.w3.org/2000/svg"><path d="m0 50.2h3.2v3.2h-3.2z" fill="#337226"/><path d="m3.2 50.2h3.2v3.2h-3.2z" fill="#337226"/><path d="m6.3 50.2h3.2v3.2h-3.2z" fill="#337226"/><path d="m9.5 50.2h3.2v3.2h-3.2z" fill="#337226"/><path d="m12.7 50.2h3.2v3.2h-3.2z" fill="#5c963c"/><path d="m15.8 50.2h3.2v3.2h-3.2z" fill="#78ab3a"/><path d="m19 50.2h3.2v3.2h-3.2z" fill="#5c963c"/><path d="m22.2 50.2h3.2v3.2h-3.2z" fill="#337226"/><path d="m25.3 50.2h3.2v3.2h-3.2z" fill="#337226"/><path d="m28.5 50.2h3.2v3.2h-3.2z" fill="#337226"/><path d="m31.7 50.2h3.2v3.2h-3.2z" fill="#337226"/><path d="m34.8 50.2h3.2v3.2h-3.2z" fill="#337226"/><path d="m38 50.2h3.2v3.2h-3.2z" fill="#5c963c"/><path d="m41.2 50.2h3.2v3.2h-3.2z" fill="#337226"/><path d="m44.3 50.2h3.2v3.2h-3.2z" fill="#337226"/><path d="m47.5 50.2h3.2v3.2h-3.2z" fill="#337226"/><path d="m50.6 50.2h3.2v3.2h-3.2z" fill="#5c963c"/><path d="m53.8 50.2h3.2v3.2h-3.2z" fill="#337226"/><path d="m57 50.2h3.2v3.2h-3.2z" fill="#337226"/><path d="m60.1 50.2h3.2v3.2h-3.2z" fill="#337226"/><path d="m63.3 50.2h3.2v3.2h-3.2z" fill="#337226"/><path d="m66.5 50.2h3.2v3.2h-3.2z" fill="#5c963c"/><path d="m69.6 50.2h3.2v3.2h-3.2z" fill="#78ab3a"/><path d="m72.8 50.2h3.2v3.2h-3.2z" fill="#5c963c"/><path d="m76 50.2h3.2v3.2h-3.2z" fill="#337226"/><path d="m79.1 50.2h3.2v3.2h-3.2z" fill="#5c963c"/><path d="m82.3 50.2h3.2v3.2h-3.2z" fill="#337226"/><path d="m85.5 50.2h3.2v3.2h-3.2z" fill="#337226"/><path d="m88.6 50.2h3.2v3.2h-3.2z" fill="#337226"/><path d="m91.8 50.2h3.2v3.2h-3.2z" fill="#337226"/><path d="m95 50.2h3.2v3.2h-3.2z" fill="#337226"/><path d="m98.1 50.2h3.2v3.2h-3.2z" fill="#337226"/><path d="m0 53.4h3.2v3.2h-3.2z" fill="#78ab3a"/><path d="m3.2 53.4h3.2v3.2h-3.2z" fill="#86bc3c"/><path d="m6.3 53.4h3.2v3.2h-3.2z" fill="#86bc3c"/><path d="m9.5 53.4h3.2v3.2h-3.2z" fill="#99c42d"/><path d="m12.7 53.4h3.2v3.2h-3.2z" fill="#78ab3a"/><path d="m15.8 53.4h3.2v3.2h-3.2z" fill="#99c42d"/><path d="m19 53.4h3.2v3.2h-3.2z" fill="#78ab3a"/><path d="m22.2 53.4h3.2v3.2h-3.2z" fill="#78ab3a"/><path d="m25.3 53.4h3.2v3.2h-3.2z" fill="#86bc3c"/><path d="m28.5 53.4h3.2v3.2h-3.2z" fill="#86bc3c"/><path d="m31.7 53.4h3.2v3.2h-3.2z" fill="#86bc3c"/><path d="m34.8 53.4h3.2v3.2h-3.2z" fill="#78ab3a"/><path d="m38 53.4h3.2v3.2h-3.2z" fill="#99c42d"/><path d="m41.2 53.4h3.2v3.2h-3.2z" fill="#78ab3a"/><path d="m44.3 53.4h3.2v3.2h-3.2z" fill="#86bc3c"/><path d="m47.5 53.4h3.2v3.2h-3.2z" fill="#86bc3c"/><path d="m50.6 53.4h3.2v3.2h-3.2z" fill="#78ab3a"/><path d="m53.8 53.4h3.2v3.2h-3.2z" fill="#78ab3a"/><path d="m57 53.4h3.2v3.2h-3.2z" fill="#86bc3c"/><path d="m60.1 53.4h3.2v3.2h-3.2z" fill="#86bc3c"/><path d="m63.3 53.4h3.2v3.2h-3.2z" fill="#86bc3c"/><path d="m66.5 53.4h3.2v3.2h-3.2z" fill="#78ab3a"/><path d="m69.6 53.4h3.2v3.2h-3.2z" fill="#99c42d"/><path d="m72.8 53.4h3.2v3.2h-3.2z" fill="#78ab3a"/><path d="m76 53.4h3.2v3.2h-3.2z" fill="#86bc3c"/><path d="m79.1 53.4h3.2v3.2h-3.2z" fill="#78ab3a"/><path d="m82.3 53.4h3.2v3.2h-3.2z" fill="#78ab3a"/><path d="m85.5 53.4h3.2v3.2h-3.2z" fill="#5c963c"/><path d="m88.6 53.4h3.2v3.2h-3.2z" fill="#5c963c"/><path d="m91.8 53.4h3.2v3.2h-3.2z" fill="#78ab3a"/><path d="m95 53.4h3.2v3.2h-3.2z" fill="#78ab3a"/><path d="m98.1 53.4h3.2v3.2h-3.2z" fill="#78ab3a"/><path d="m0 56.5h3.2v3.2h-3.2z" fill="#5c963c"/><path d="m3.2 56.5h3.2v3.2h-3.2z" fill="#78ab3a"/><path d="m6.3 56.5h3.2v3.2h-3.2z" fill="#86bc3c"/><path d="m9.5 56.5h3.2v3.2h-3.2z" fill="#86bc3c"/><path d="m12.7 56.5h3.2v3.2h-3.2z" fill="#86bc3c"/><path d="m15.8 56.5h3.2v3.2h-3.2z" fill="#99c42d"/><path d="m19 56.5h3.2v3.2h-3.2z" fill="#5c963c"/><path d="m22.2 56.5h3.2v3.2h-3.2z" fill="#5c963c"/><path d="m25.3 56.5h3.2v3.2h-3.2z" fill="#5c963c"/><path d="m28.5 56.5h3.2v3.2h-3.2z" fill="#5c963c"/><path d="m31.7 56.5h3.2v3.2h-3.2z" fill="#78ab3a"/><path d="m34.8 56.5h3.2v3.2h-3.2z" fill="#86bc3c"/><path d="m38 56.5h3.2v3.2h-3.2z" fill="#99c42d"/><path d="m41.2 56.5h3.2v3.2h-3.2z" fill="#86bc3c"/><path d="m44.3 56.5h3.2v3.2h-3.2z" fill="#78ab3a"/><path d="m47.5 56.5h3.2v3.2h-3.2z" fill="#5c963c"/><path d="m50.6 56.5h3.2v3.2h-3.2z" fill="#78ab3a"/><path d="m53.8 56.5h3.2v3.2h-3.2z" fill="#99c42d"/><path d="m57 56.5h3.2v3.2h-3.2z" fill="#86bc3c"/><path d="m60.1 56.5h3.2v3.2h-3.2z" fill="#86bc3c"/><path d="m63.3 56.5h3.2v3.2h-3.2z" fill="#78ab3a"/><path d="m66.5 56.5h3.2v3.2h-3.2z" fill="#5c963c"/><path d="m69.6 56.5h3.2v3.2h-3.2z" fill="#99c42d"/><path d="m72.8 56.5h3.2v3.2h-3.2z" fill="#5c963c"/><path d="m76 56.5h3.2v3.2h-3.2z" fill="#86bc3c"/><path d="m79.1 56.5h3.2v3.2h-3.2z" fill="#78ab3a"/><path d="m82.3 56.5h3.2v3.2h-3.2z" fill="#99c42d"/><path d="m85.5 56.5h3.2v3.2h-3.2z" fill="#86bc3c"/><path d="m88.6 56.5h3.2v3.2h-3.2z" fill="#86bc3c"/><path d="m91.8 56.5h3.2v3.2h-3.2z" fill="#86bc3c"/><path d="m95 56.5h3.2v3.2h-3.2z" fill="#78ab3a"/><path d="m98.1 56.5h3.2v3.2h-3.2z" fill="#5c963c"/><path d="m0 59.7h3.2v3.2h-3.2z" fill="#99c42d"/><path d="m3.2 59.7h3.2v3.2h-3.2z" fill="#5c963c"/><path d="m6.3 59.7h3.2v3.2h-3.2z" fill="#78ab3a"/><path d="m9.5 59.7h3.2v3.2h-3.2z" fill="#78ab3a"/><path d="m12.7 59.7h3.2v3.2h-3.2z" fill="#86bc3c"/><path d="m15.8 59.7h3.2v3.2h-3.2z" fill="#86bc3c"/><path d="m19 59.7h3.2v3.2h-3.2z" fill="#86bc3c"/><path d="m22.2 59.7h3.2v3.2h-3.2z" fill="#86bc3c"/><path d="m25.3 59.7h3.2v3.2h-3.2z" fill="#86bc3c"/><path d="m28.5 59.7h3.2v3.2h-3.2z" fill="#99c42d"/><path d="m31.7 59.7h3.2v3.2h-3.2z" fill="#5c963c"/><path d="m34.8 59.7h3.2v3.2h-3.2z" fill="#86bc3c"/><path d="m38 59.7h3.2v3.2h-3.2z" fill="#99c42d"/><path d="m41.2 59.7h3.2v3.2h-3.2z" fill="#78ab3a"/><path d="m44.3 59.7h3.2v3.2h-3.2z" fill="#78ab3a"/><path d="m47.5 59.7h3.2v3.2h-3.2z" fill="#5c963c"/><path d="m50.6 59.7h3.2v3.2h-3.2z" fill="#5c963c"/><path d="m53.8 59.7h3.2v3.2h-3.2z" fill="#99c42d"/><path d="m57 59.7h3.2v3.2h-3.2z" fill="#86bc3c"/><path d="m60.1 59.7h3.2v3.2h-3.2z" fill="#78ab3a"/><path d="m63.3 59.7h3.2v3.2h-3.2z" fill="#5c963c"/><path d="m66.5 59.7h3.2v3.2h-3.2z" fill="#99c42d"/><path d="m69.6 59.7h3.2v3.2h-3.2z" fill="#99c42d"/><path d="m72.8 59.7h3.2v3.2h-3.2z" fill="#99c42d"/><path d="m76 59.7h3.2v3.2h-3.2z" fill="#5c963c"/><path d="m79.1 59.7h3.2v3.2h-3.2z" fill="#78ab3a"/><path d="m82.3 59.7h3.2v3.2h-3.2z" fill="#99c42d"/><path d="m85.5 59.7h3.2v3.2h-3.2z" fill="#86bc3c"/><path d="m88.6 59.7h3.2v3.2h-3.2z" fill="#86bc3c"/><path d="m91.8 59.7h3.2v3.2h-3.2z" fill="#78ab3a"/><path d="m95 59.7h3.2v3.2h-3.2z" fill="#5c963c"/><path d="m98.1 59.7h3.2v3.2h-3.2z" fill="#99c42d"/><path d="m0 62.9h3.2v3.2h-3.2z" fill="#86bc3c"/><path d="m3.2 62.9h3.2v3.2h-3.2z" fill="#86bc3c"/><path d="m6.3 62.9h3.2v3.2h-3.2z" fill="#86bc3c"/><path d="m9.5 62.9h3.2v3.2h-3.2z" fill="#86bc3c"/><path d="m12.7 62.9h3.2v3.2h-3.2z" fill="#86bc3c"/><path d="m15.8 62.9h3.2v3.2h-3.2z" fill="#5c963c"/><path d="m19 62.9h3.2v3.2h-3.2z" fill="#86bc3c"/><path d="m22.2 62.9h3.2v3.2h-3.2z" fill="#78ab3a"/><path d="m25.3 62.9h3.2v3.2h-3.2z" fill="#78ab3a"/><path d="m28.5 62.9h3.2v3.2h-3.2z" fill="#86bc3c"/><path d="m31.7 62.9h3.2v3.2h-3.2z" fill="#86bc3c"/><path d="m34.8 62.9h3.2v3.2h-3.2z" fill="#86bc3c"/><path d="m38 62.9h3.2v3.2h-3.2z" fill="#86bc3c"/><path d="m41.2 62.9h3.2v3.2h-3.2z" fill="#86bc3c"/><path d="m44.3 62.9h3.2v3.2h-3.2z" fill="#86bc3c"/><path d="m47.5 62.9h3.2v3.2h-3.2z" fill="#99c42d"/><path d="m50.6 62.9h3.2v3.2h-3.2z" fill="#86bc3c"/><path d="m53.8 62.9h3.2v3.2h-3.2z" fill="#86bc3c"/><path d="m57 62.9h3.2v3.2h-3.2z" fill="#86bc3c"/><path d="m60.1 62.9h3.2v3.2h-3.2z" fill="#86bc3c"/><path d="m63.3 62.9h3.2v3.2h-3.2z" fill="#86bc3c"/><path d="m66.5 62.9h3.2v3.2h-3.2z" fill="#86bc3c"/><path d="m69.6 62.9h3.2v3.2h-3.2z" fill="#86bc3c"/><path d="m72.8 62.9h3.2v3.2h-3.2z" fill="#99c42d"/><path d="m76 62.9h3.2v3.2h-3.2z" fill="#99c42d"/><path d="m79.1 62.9h3.2v3.2h-3.2z" fill="#5c963c"/><path d="m82.3 62.9h3.2v3.2h-3.2z" fill="#5c963c"/><path d="m85.5 62.9h3.2v3.2h-3.2z" fill="#5c963c"/><path d="m88.6 62.9h3.2v3.2h-3.2z" fill="#86bc3c"/><path d="m91.8 62.9h3.2v3.2h-3.2z" fill="#86bc3c"/><path d="m95 62.9h3.2v3.2h-3.2z" fill="#86bc3c"/><path d="m98.1 62.9h3.2v3.2h-3.2z" fill="#86bc3c"/><path d="m0 66h3.2v3.2h-3.2z" fill="#86bc3c"/><path d="m3.2 66h3.2v3.2h-3.2z" fill="#86bc3c"/><path d="m6.3 66h3.2v3.2h-3.2z" fill="#86bc3c"/><path d="m9.5 66h3.2v3.2h-3.2z" fill="#5c963c"/><path d="m12.7 66h3.2v3.2h-3.2z" fill="#78ab3a"/><path d="m15.8 66h3.2v3.2h-3.2z" fill="#5c963c"/><path d="m19 66h3.2v3.2h-3.2z" fill="#86bc3c"/><path d="m22.2 66h3.2v3.2h-3.2z" fill="#86bc3c"/><path d="m25.3 66h3.2v3.2h-3.2z" fill="#86bc3c"/><path d="m28.5 66h3.2v3.2h-3.2z" fill="#86bc3c"/><path d="m31.7 66h3.2v3.2h-3.2z" fill="#86bc3c"/><path d="m34.8 66h3.2v3.2h-3.2z" fill="#86bc3c"/><path d="m38 66h3.2v3.2h-3.2z" fill="#86bc3c"/><path d="m41.2 66h3.2v3.2h-3.2z" fill="#5c963c"/><path d="m44.3 66h3.2v3.2h-3.2z" fill="#5c963c"/><path d="m47.5 66h3.2v3.2h-3.2z" fill="#99c42d"/><path d="m50.6 66h3.2v3.2h-3.2z" fill="#5c963c"/><path d="m53.8 66h3.2v3.2h-3.2z" fill="#78ab3a"/><path d="m57 66h3.2v3.2h-3.2z" fill="#78ab3a"/><path d="m60.1 66h3.2v3.2h-3.2z" fill="#86bc3c"/><path d="m63.3 66h3.2v3.2h-3.2z" fill="#86bc3c"/><path d="m66.5 66h3.2v3.2h-3.2z" fill="#86bc3c"/><path d="m69.6 66h3.2v3.2h-3.2z" fill="#86bc3c"/><path d="m72.8 66h3.2v3.2h-3.2z" fill="#86bc3c"/><path d="m76 66h3.2v3.2h-3.2z" fill="#86bc3c"/><path d="m79.1 66h3.2v3.2h-3.2z" fill="#86bc3c"/><path d="m82.3 66h3.2v3.2h-3.2z" fill="#86bc3c"/><path d="m85.5 66h3.2v3.2h-3.2z" fill="#86bc3c"/><path d="m88.6 66h3.2v3.2h-3.2z" fill="#86bc3c"/><path d="m91.8 66h3.2v3.2h-3.2z" fill="#86bc3c"/><path d="m95 66h3.2v3.2h-3.2z" fill="#86bc3c"/><path d="m98.1 66h3.2v3.2h-3.2z" fill="#86bc3c"/><path d="m0 69.2h3.2v3.2h-3.2z" fill="#86bc3c"/><path d="m3.2 69.2h3.2v3.2h-3.2z" fill="#78ab3a"/><path d="m6.3 69.2h3.2v3.2h-3.2z" fill="#78ab3a"/><path d="m9.5 69.2h3.2v3.2h-3.2z" fill="#5c963c"/><path d="m12.7 69.2h3.2v3.2h-3.2z" fill="#5c963c"/><path d="m15.8 69.2h3.2v3.2h-3.2z" fill="#5c963c"/><path d="m19 69.2h3.2v3.2h-3.2z" fill="#86bc3c"/><path d="m22.2 69.2h3.2v3.2h-3.2z" fill="#78ab3a"/><path d="m25.3 69.2h3.2v3.2h-3.2z" fill="#5c963c"/><path d="m28.5 69.2h3.2v3.2h-3.2z" fill="#86bc3c"/><path d="m31.7 69.2h3.2v3.2h-3.2z" fill="#86bc3c"/><path d="m34.8 69.2h3.2v3.2h-3.2z" fill="#78ab3a"/><path d="m38 69.2h3.2v3.2h-3.2z" fill="#5c963c"/><path d="m41.2 69.2h3.2v3.2h-3.2z" fill="#99c42d"/><path d="m44.3 69.2h3.2v3.2h-3.2z" fill="#99c42d"/><path d="m47.5 69.2h3.2v3.2h-3.2z" fill="#99c42d"/><path d="m50.6 69.2h3.2v3.2h-3.2z" fill="#99c42d"/><path d="m53.8 69.2h3.2v3.2h-3.2z" fill="#5c963c"/><path d="m57 69.2h3.2v3.2h-3.2z" fill="#5c963c"/><path d="m60.1 69.2h3.2v3.2h-3.2z" fill="#5c963c"/><path d="m63.3 69.2h3.2v3.2h-3.2z" fill="#78ab3a"/><path d="m66.5 69.2h3.2v3.2h-3.2z" fill="#86bc3c"/><path d="m69.6 69.2h3.2v3.2h-3.2z" fill="#5c963c"/><path d="m72.8 69.2h3.2v3.2h-3.2z" fill="#78ab3a"/><path d="m76 69.2h3.2v3.2h-3.2z" fill="#78ab3a"/><path d="m79.1 69.2h3.2v3.2h-3.2z" fill="#86bc3c"/><path d="m82.3 69.2h3.2v3.2h-3.2z" fill="#86bc3c"/><path d="m85.5 69.2h3.2v3.2h-3.2z" fill="#86bc3c"/><path d="m88.6 69.2h3.2v3.2h-3.2z" fill="#86bc3c"/><path d="m91.8 69.2h3.2v3.2h-3.2z" fill="#86bc3c"/><path d="m95 69.2h3.2v3.2h-3.2z" fill="#86bc3c"/><path d="m98.1 69.2h3.2v3.2h-3.2z" fill="#5c963c"/><path d="m0 72.4h3.2v3.2h-3.2z" fill="#86bc3c"/><path d="m3.2 72.4h3.2v3.2h-3.2z" fill="#99c42d"/><path d="m6.3 72.4h3.2v3.2h-3.2z" fill="#99c42d"/><path d="m9.5 72.4h3.2v3.2h-3.2z" fill="#86bc3c"/><path d="m12.7 72.4h3.2v3.2h-3.2z" fill="#86bc3c"/><path d="m15.8 72.4h3.2v3.2h-3.2z" fill="#86bc3c"/><path d="m19 72.4h3.2v3.2h-3.2z" fill="#86bc3c"/><path d="m22.2 72.4h3.2v3.2h-3.2z" fill="#86bc3c"/><path d="m25.3 72.4h3.2v3.2h-3.2z" fill="#86bc3c"/><path d="m28.5 72.4h3.2v3.2h-3.2z" fill="#86bc3c"/><path d="m31.7 72.4h3.2v3.2h-3.2z" fill="#86bc3c"/><path d="m34.8 72.4h3.2v3.2h-3.2z" fill="#86bc3c"/><path d="m38 72.4h3.2v3.2h-3.2z" fill="#5c963c"/><path d="m41.2 72.4h3.2v3.2h-3.2z" fill="#86bc3c"/><path d="m44.3 72.4h3.2v3.2h-3.2z" fill="#86bc3c"/><path d="m47.5 72.4h3.2v3.2h-3.2z" fill="#86bc3c"/><path d="m50.6 72.4h3.2v3.2h-3.2z" fill="#86bc3c"/><path d="m53.8 72.4h3.2v3.2h-3.2z" fill="#86bc3c"/><path d="m57 72.4h3.2v3.2h-3.2z" fill="#86bc3c"/><path d="m60.1 72.4h3.2v3.2h-3.2z" fill="#86bc3c"/><path d="m63.3 72.4h3.2v3.2h-3.2z" fill="#86bc3c"/><path d="m66.5 72.4h3.2v3.2h-3.2z" fill="#86bc3c"/><path d="m69.6 72.4h3.2v3.2h-3.2z" fill="#86bc3c"/><path d="m72.8 72.4h3.2v3.2h-3.2z" fill="#86bc3c"/><path d="m76 72.4h3.2v3.2h-3.2z" fill="#86bc3c"/><path d="m79.1 72.4h3.2v3.2h-3.2z" fill="#86bc3c"/><path d="m82.3 72.4h3.2v3.2h-3.2z" fill="#5c963c"/><path d="m85.5 72.4h3.2v3.2h-3.2z" fill="#5c963c"/><path d="m88.6 72.4h3.2v3.2h-3.2z" fill="#5c963c"/><path d="m91.8 72.4h3.2v3.2h-3.2z" fill="#78ab3a"/><path d="m95 72.4h3.2v3.2h-3.2z" fill="#78ab3a"/><path d="m98.1 72.4h3.2v3.2h-3.2z" fill="#78ab3a"/><path d="m0 75.5h3.2v3.2h-3.2z" fill="#86bc3c"/><path d="m3.2 75.5h3.2v3.2h-3.2z" fill="#86bc3c"/><path d="m6.3 75.5h3.2v3.2h-3.2z" fill="#86bc3c"/><path d="m9.5 75.5h3.2v3.2h-3.2z" fill="#86bc3c"/><path d="m12.7 75.5h3.2v3.2h-3.2z" fill="#78ab3a"/><path d="m15.8 75.5h3.2v3.2h-3.2z" fill="#99c42d"/><path d="m19 75.5h3.2v3.2h-3.2z" fill="#78ab3a"/><path d="m22.2 75.5h3.2v3.2h-3.2z" fill="#78ab3a"/><path d="m25.3 75.5h3.2v3.2h-3.2z" fill="#86bc3c"/><path d="m28.5 75.5h3.2v3.2h-3.2z" fill="#86bc3c"/><path d="m31.7 75.5h3.2v3.2h-3.2z" fill="#86bc3c"/><path d="m34.8 75.5h3.2v3.2h-3.2z" fill="#86bc3c"/><path d="m38 75.5h3.2v3.2h-3.2z" fill="#5c963c"/><path d="m41.2 75.5h3.2v3.2h-3.2z" fill="#78ab3a"/><path d="m44.3 75.5h3.2v3.2h-3.2z" fill="#86bc3c"/><path d="m47.5 75.5h3.2v3.2h-3.2z" fill="#86bc3c"/><path d="m50.6 75.5h3.2v3.2h-3.2z" fill="#78ab3a"/><path d="m53.8 75.5h3.2v3.2h-3.2z" fill="#86bc3c"/><path d="m57 75.5h3.2v3.2h-3.2z" fill="#86bc3c"/><path d="m60.1 75.5h3.2v3.2h-3.2z" fill="#78ab3a"/><path d="m63.3 75.5h3.2v3.2h-3.2z" fill="#78ab3a"/><path d="m66.5 75.5h3.2v3.2h-3.2z" fill="#78ab3a"/><path d="m69.6 75.5h3.2v3.2h-3.2z" fill="#78ab3a"/><path d="m72.8 75.5h3.2v3.2h-3.2z" fill="#5c963c"/><path d="m76 75.5h3.2v3.2h-3.2z" fill="#86bc3c"/><path d="m79.1 75.5h3.2v3.2h-3.2z" fill="#78ab3a"/><path d="m82.3 75.5h3.2v3.2h-3.2z" fill="#86bc3c"/><path d="m85.5 75.5h3.2v3.2h-3.2z" fill="#99c42d"/><path d="m88.6 75.5h3.2v3.2h-3.2z" fill="#99c42d"/><path d="m91.8 75.5h3.2v3.2h-3.2z" fill="#5c963c"/><path d="m95 75.5h3.2v3.2h-3.2z" fill="#5c963c"/><path d="m98.1 75.5h3.2v3.2h-3.2z" fill="#78ab3a"/><path d="m0 78.7h3.2v3.2h-3.2z" fill="#86bc3c"/><path d="m3.2 78.7h3.2v3.2h-3.2z" fill="#5c963c"/><path d="m6.3 78.7h3.2v3.2h-3.2z" fill="#86bc3c"/><path d="m9.5 78.7h3.2v3.2h-3.2z" fill="#78ab3a"/><path d="m12.7 78.7h3.2v3.2h-3.2z" fill="#5c963c"/><path d="m15.8 78.7h3.2v3.2h-3.2z" fill="#99c42d"/><path d="m19 78.7h3.2v3.2h-3.2z" fill="#5c963c"/><path d="m22.2 78.7h3.2v3.2h-3.2z" fill="#78ab3a"/><path d="m25.3 78.7h3.2v3.2h-3.2z" fill="#86bc3c"/><path d="m28.5 78.7h3.2v3.2h-3.2z" fill="#86bc3c"/><path d="m31.7 78.7h3.2v3.2h-3.2z" fill="#78ab3a"/><path d="m34.8 78.7h3.2v3.2h-3.2z" fill="#5c963c"/><path d="m38 78.7h3.2v3.2h-3.2z" fill="#5c963c"/><path d="m41.2 78.7h3.2v3.2h-3.2z" fill="#5c963c"/><path d="m44.3 78.7h3.2v3.2h-3.2z" fill="#78ab3a"/><path d="m47.5 78.7h3.2v3.2h-3.2z" fill="#86bc3c"/><path d="m50.6 78.7h3.2v3.2h-3.2z" fill="#86bc3c"/><path d="m53.8 78.7h3.2v3.2h-3.2z" fill="#86bc3c"/><path d="m57 78.7h3.2v3.2h-3.2z" fill="#78ab3a"/><path d="m60.1 78.7h3.2v3.2h-3.2z" fill="#5c963c"/><path d="m63.3 78.7h3.2v3.2h-3.2z" fill="#5c963c"/><path d="m66.5 78.7h3.2v3.2h-3.2z" fill="#78ab3a"/><path d="m69.6 78.7h3.2v3.2h-3.2z" fill="#78ab3a"/><path d="m72.8 78.7h3.2v3.2h-3.2z" fill="#5c963c"/><path d="m76 78.7h3.2v3.2h-3.2z" fill="#86bc3c"/><path d="m79.1 78.7h3.2v3.2h-3.2z" fill="#78ab3a"/><path d="m82.3 78.7h3.2v3.2h-3.2z" fill="#86bc3c"/><path d="m85.5 78.7h3.2v3.2h-3.2z" fill="#86bc3c"/><path d="m88.6 78.7h3.2v3.2h-3.2z" fill="#78ab3a"/><path d="m91.8 78.7h3.2v3.2h-3.2z" fill="#99c42d"/><path d="m95 78.7h3.2v3.2h-3.2z" fill="#99c42d"/><path d="m98.1 78.7h3.2v3.2h-3.2z" fill="#99c42d"/><path d="m0 81.9h3.2v3.2h-3.2z" fill="#86bc3c"/><path d="m3.2 81.9h3.2v3.2h-3.2z" fill="#5c963c"/><path d="m6.3 81.9h3.2v3.2h-3.2z" fill="#5c963c"/><path d="m9.5 81.9h3.2v3.2h-3.2z" fill="#5c963c"/><path d="m12.7 81.9h3.2v3.2h-3.2z" fill="#99c42d"/><path d="m15.8 81.9h3.2v3.2h-3.2z" fill="#99c42d"/><path d="m19 81.9h3.2v3.2h-3.2z" fill="#99c42d"/><path d="m22.2 81.9h3.2v3.2h-3.2z" fill="#5c963c"/><path d="m25.3 81.9h3.2v3.2h-3.2z" fill="#86bc3c"/><path d="m28.5 81.9h3.2v3.2h-3.2z" fill="#86bc3c"/><path d="m31.7 81.9h3.2v3.2h-3.2z" fill="#86bc3c"/><path d="m34.8 81.9h3.2v3.2h-3.2z" fill="#78ab3a"/><path d="m38 81.9h3.2v3.2h-3.2z" fill="#86bc3c"/><path d="m41.2 81.9h3.2v3.2h-3.2z" fill="#86bc3c"/><path d="m44.3 81.9h3.2v3.2h-3.2z" fill="#86bc3c"/><path d="m47.5 81.9h3.2v3.2h-3.2z" fill="#86bc3c"/><path d="m50.6 81.9h3.2v3.2h-3.2z" fill="#86bc3c"/><path d="m53.8 81.9h3.2v3.2h-3.2z" fill="#86bc3c"/><path d="m57 81.9h3.2v3.2h-3.2z" fill="#5c963c"/><path d="m60.1 81.9h3.2v3.2h-3.2z" fill="#99c42d"/><path d="m63.3 81.9h3.2v3.2h-3.2z" fill="#78ab3a"/><path d="m66.5 81.9h3.2v3.2h-3.2z" fill="#78ab3a"/><path d="m69.6 81.9h3.2v3.2h-3.2z" fill="#99c42d"/><path d="m72.8 81.9h3.2v3.2h-3.2z" fill="#5c963c"/><path d="m76 81.9h3.2v3.2h-3.2z" fill="#78ab3a"/><path d="m79.1 81.9h3.2v3.2h-3.2z" fill="#78ab3a"/><path d="m82.3 81.9h3.2v3.2h-3.2z" fill="#86bc3c"/><path d="m85.5 81.9h3.2v3.2h-3.2z" fill="#86bc3c"/><path d="m88.6 81.9h3.2v3.2h-3.2z" fill="#78ab3a"/><path d="m91.8 81.9h3.2v3.2h-3.2z" fill="#86bc3c"/><path d="m95 81.9h3.2v3.2h-3.2z" fill="#86bc3c"/><path d="m98.1 81.9h3.2v3.2h-3.2z" fill="#86bc3c"/><path d="m0 85h3.2v3.2h-3.2z" fill="#86bc3c"/><path d="m3.2 85h3.2v3.2h-3.2z" fill="#99c42d"/><path d="m6.3 85h3.2v3.2h-3.2z" fill="#86bc3c"/><path d="m9.5 85h3.2v3.2h-3.2z" fill="#86bc3c"/><path d="m12.7 85h3.2v3.2h-3.2z" fill="#86bc3c"/><path d="m15.8 85h3.2v3.2h-3.2z" fill="#99c42d"/><path d="m19 85h3.2v3.2h-3.2z" fill="#86bc3c"/><path d="m22.2 85h3.2v3.2h-3.2z" fill="#86bc3c"/><path d="m25.3 85h3.2v3.2h-3.2z" fill="#86bc3c"/><path d="m28.5 85h3.2v3.2h-3.2z" fill="#78ab3a"/><path d="m31.7 85h3.2v3.2h-3.2z" fill="#86bc3c"/><path d="m34.8 85h3.2v3.2h-3.2z" fill="#78ab3a"/><path d="m38 85h3.2v3.2h-3.2z" fill="#99c42d"/><path d="m41.2 85h3.2v3.2h-3.2z" fill="#78ab3a"/><path d="m44.3 85h3.2v3.2h-3.2z" fill="#78ab3a"/><path d="m47.5 85h3.2v3.2h-3.2z" fill="#78ab3a"/><path d="m50.6 85h3.2v3.2h-3.2z" fill="#86bc3c"/><path d="m53.8 85h3.2v3.2h-3.2z" fill="#86bc3c"/><path d="m57 85h3.2v3.2h-3.2z" fill="#86bc3c"/><path d="m60.1 85h3.2v3.2h-3.2z" fill="#86bc3c"/><path d="m63.3 85h3.2v3.2h-3.2z" fill="#78ab3a"/><path d="m66.5 85h3.2v3.2h-3.2z" fill="#86bc3c"/><path d="m69.6 85h3.2v3.2h-3.2z" fill="#86bc3c"/><path d="m72.8 85h3.2v3.2h-3.2z" fill="#86bc3c"/><path d="m76 85h3.2v3.2h-3.2z" fill="#99c42d"/><path d="m79.1 85h3.2v3.2h-3.2z" fill="#99c42d"/><path d="m82.3 85h3.2v3.2h-3.2z" fill="#5c963c"/><path d="m85.5 85h3.2v3.2h-3.2z" fill="#78ab3a"/><path d="m88.6 85h3.2v3.2h-3.2z" fill="#78ab3a"/><path d="m91.8 85h3.2v3.2h-3.2z" fill="#78ab3a"/><path d="m95 85h3.2v3.2h-3.2z" fill="#78ab3a"/><path d="m98.1 85h3.2v3.2h-3.2z" fill="#86bc3c"/><path d="m0 88.2h3.2v3.2h-3.2z" fill="#86bc3c"/><path d="m3.2 88.2h3.2v3.2h-3.2z" fill="#99c42d"/><path d="m6.3 88.2h3.2v3.2h-3.2z" fill="#78ab3a"/><path d="m9.5 88.2h3.2v3.2h-3.2z" fill="#86bc3c"/><path d="m12.7 88.2h3.2v3.2h-3.2z" fill="#86bc3c"/><path d="m15.8 88.2h3.2v3.2h-3.2z" fill="#86bc3c"/><path d="m19 88.2h3.2v3.2h-3.2z" fill="#86bc3c"/><path d="m22.2 88.2h3.2v3.2h-3.2z" fill="#78ab3a"/><path d="m25.3 88.2h3.2v3.2h-3.2z" fill="#5c963c"/><path d="m28.5 88.2h3.2v3.2h-3.2z" fill="#78ab3a"/><path d="m31.7 88.2h3.2v3.2h-3.2z" fill="#86bc3c"/><path d="m34.8 88.2h3.2v3.2h-3.2z" fill="#86bc3c"/><path d="m38 88.2h3.2v3.2h-3.2z" fill="#99c42d"/><path d="m41.2 88.2h3.2v3.2h-3.2z" fill="#86bc3c"/><path d="m44.3 88.2h3.2v3.2h-3.2z" fill="#78ab3a"/><path d="m47.5 88.2h3.2v3.2h-3.2z" fill="#86bc3c"/><path d="m50.6 88.2h3.2v3.2h-3.2z" fill="#78ab3a"/><path d="m53.8 88.2h3.2v3.2h-3.2z" fill="#78ab3a"/><path d="m57 88.2h3.2v3.2h-3.2z" fill="#86bc3c"/><path d="m60.1 88.2h3.2v3.2h-3.2z" fill="#86bc3c"/><path d="m63.3 88.2h3.2v3.2h-3.2z" fill="#78ab3a"/><path d="m66.5 88.2h3.2v3.2h-3.2z" fill="#78ab3a"/><path d="m69.6 88.2h3.2v3.2h-3.2z" fill="#78ab3a"/><path d="m72.8 88.2h3.2v3.2h-3.2z" fill="#86bc3c"/><path d="m76 88.2h3.2v3.2h-3.2z" fill="#86bc3c"/><path d="m79.1 88.2h3.2v3.2h-3.2z" fill="#86bc3c"/><path d="m82.3 88.2h3.2v3.2h-3.2z" fill="#86bc3c"/><path d="m85.5 88.2h3.2v3.2h-3.2z" fill="#86bc3c"/><path d="m88.6 88.2h3.2v3.2h-3.2z" fill="#86bc3c"/><path d="m91.8 88.2h3.2v3.2h-3.2z" fill="#86bc3c"/><path d="m95 88.2h3.2v3.2h-3.2z" fill="#78ab3a"/><path d="m98.1 88.2h3.2v3.2h-3.2z" fill="#86bc3c"/><path d="m0 91.4h3.2v3.2h-3.2z" fill="#5c963c"/><path d="m3.2 91.4h3.2v3.2h-3.2z" fill="#99c42d"/><path d="m6.3 91.4h3.2v3.2h-3.2z" fill="#78ab3a"/><path d="m9.5 91.4h3.2v3.2h-3.2z" fill="#78ab3a"/><path d="m12.7 91.4h3.2v3.2h-3.2z" fill="#86bc3c"/><path d="m15.8 91.4h3.2v3.2h-3.2z" fill="#78ab3a"/><path d="m19 91.4h3.2v3.2h-3.2z" fill="#86bc3c"/><path d="m22.2 91.4h3.2v3.2h-3.2z" fill="#86bc3c"/><path d="m25.3 91.4h3.2v3.2h-3.2z" fill="#5c963c"/><path d="m28.5 91.4h3.2v3.2h-3.2z" fill="#78ab3a"/><path d="m31.7 91.4h3.2v3.2h-3.2z" fill="#5c963c"/><path d="m34.8 91.4h3.2v3.2h-3.2z" fill="#5c963c"/><path d="m38 91.4h3.2v3.2h-3.2z" fill="#99c42d"/><path d="m41.2 91.4h3.2v3.2h-3.2z" fill="#78ab3a"/><path d="m44.3 91.4h3.2v3.2h-3.2z" fill="#5c963c"/><path d="m47.5 91.4h3.2v3.2h-3.2z" fill="#86bc3c"/><path d="m50.6 91.4h3.2v3.2h-3.2z" fill="#86bc3c"/><path d="m53.8 91.4h3.2v3.2h-3.2z" fill="#86bc3c"/><path d="m57 91.4h3.2v3.2h-3.2z" fill="#86bc3c"/><path d="m60.1 91.4h3.2v3.2h-3.2z" fill="#78ab3a"/><path d="m63.3 91.4h3.2v3.2h-3.2z" fill="#78ab3a"/><path d="m66.5 91.4h3.2v3.2h-3.2z" fill="#78ab3a"/><path d="m69.6 91.4h3.2v3.2h-3.2z" fill="#5c963c"/><path d="m72.8 91.4h3.2v3.2h-3.2z" fill="#5c963c"/><path d="m76 91.4h3.2v3.2h-3.2z" fill="#86bc3c"/><path d="m79.1 91.4h3.2v3.2h-3.2z" fill="#86bc3c"/><path d="m82.3 91.4h3.2v3.2h-3.2z" fill="#86bc3c"/><path d="m85.5 91.4h3.2v3.2h-3.2z" fill="#78ab3a"/><path d="m88.6 91.4h3.2v3.2h-3.2z" fill="#5c963c"/><path d="m91.8 91.4h3.2v3.2h-3.2z" fill="#5c963c"/><path d="m95 91.4h3.2v3.2h-3.2z" fill="#5c963c"/><path d="m98.1 91.4h3.2v3.2h-3.2z" fill="#78ab3a"/><path d="m0 94.5h3.2v3.2h-3.2z" fill="#99c42d"/><path d="m3.2 94.5h3.2v3.2h-3.2z" fill="#99c42d"/><path d="m6.3 94.5h3.2v3.2h-3.2z" fill="#5c963c"/><path d="m9.5 94.5h3.2v3.2h-3.2z" fill="#78ab3a"/><path d="m12.7 94.5h3.2v3.2h-3.2z" fill="#86bc3c"/><path d="m15.8 94.5h3.2v3.2h-3.2z" fill="#86bc3c"/><path d="m19 94.5h3.2v3.2h-3.2z" fill="#78ab3a"/><path d="m22.2 94.5h3.2v3.2h-3.2z" fill="#78ab3a"/><path d="m25.3 94.5h3.2v3.2h-3.2z" fill="#5c963c"/><path d="m28.5 94.5h3.2v3.2h-3.2z" fill="#5c963c"/><path d="m31.7 94.5h3.2v3.2h-3.2z" fill="#99c42d"/><path d="m34.8 94.5h3.2v3.2h-3.2z" fill="#99c42d"/><path d="m38 94.5h3.2v3.2h-3.2z" fill="#99c42d"/><path d="m41.2 94.5h3.2v3.2h-3.2z" fill="#99c42d"/><path d="m44.3 94.5h3.2v3.2h-3.2z" fill="#86bc3c"/><path d="m47.5 94.5h3.2v3.2h-3.2z" fill="#86bc3c"/><path d="m50.6 94.5h3.2v3.2h-3.2z" fill="#86bc3c"/><path d="m53.8 94.5h3.2v3.2h-3.2z" fill="#86bc3c"/><path d="m57 94.5h3.2v3.2h-3.2z" fill="#86bc3c"/><path d="m60.1 94.5h3.2v3.2h-3.2z" fill="#86bc3c"/><path d="m63.3 94.5h3.2v3.2h-3.2z" fill="#86bc3c"/><path d="m66.5 94.5h3.2v3.2h-3.2z" fill="#86bc3c"/><path d="m69.6 94.5h3.2v3.2h-3.2z" fill="#86bc3c"/><path d="m72.8 94.5h3.2v3.2h-3.2z" fill="#86bc3c"/><path d="m76 94.5h3.2v3.2h-3.2z" fill="#86bc3c"/><path d="m79.1 94.5h3.2v3.2h-3.2z" fill="#86bc3c"/><path d="m82.3 94.5h3.2v3.2h-3.2z" fill="#78ab3a"/><path d="m85.5 94.5h3.2v3.2h-3.2z" fill="#5c963c"/><path d="m88.6 94.5h3.2v3.2h-3.2z" fill="#99c42d"/><path d="m91.8 94.5h3.2v3.2h-3.2z" fill="#99c42d"/><path d="m95 94.5h3.2v3.2h-3.2z" fill="#99c42d"/><path d="m98.1 94.5h3.2v3.2h-3.2z" fill="#99c42d"/><path d="m0 97.7h3.2v3.2h-3.2z" fill="#86bc3c"/><path d="m3.2 97.7h3.2v3.2h-3.2z" fill="#86bc3c"/><path d="m6.3 97.7h3.2v3.2h-3.2z" fill="#86bc3c"/><path d="m9.5 97.7h3.2v3.2h-3.2z" fill="#86bc3c"/><path d="m12.7 97.7h3.2v3.2h-3.2z" fill="#86bc3c"/><path d="m15.8 97.7h3.2v3.2h-3.2z" fill="#78ab3a"/><path d="m19 97.7h3.2v3.2h-3.2z" fill="#5c963c"/><path d="m22.2 97.7h3.2v3.2h-3.2z" fill="#5c963c"/><path d="m25.3 97.7h3.2v3.2h-3.2z" fill="#5c963c"/><path d="m28.5 97.7h3.2v3.2h-3.2z" fill="#99c42d"/><path d="m31.7 97.7h3.2v3.2h-3.2z" fill="#86bc3c"/><path d="m34.8 97.7h3.2v3.2h-3.2z" fill="#86bc3c"/><path d="m38 97.7h3.2v3.2h-3.2z" fill="#78ab3a"/><path d="m41.2 97.7h3.2v3.2h-3.2z" fill="#86bc3c"/><path d="m44.3 97.7h3.2v3.2h-3.2z" fill="#86bc3c"/><path d="m47.5 97.7h3.2v3.2h-3.2z" fill="#86bc3c"/><path d="m50.6 97.7h3.2v3.2h-3.2z" fill="#78ab3a"/><path d="m53.8 97.7h3.2v3.2h-3.2z" fill="#5c963c"/><path d="m57 97.7h3.2v3.2h-3.2z" fill="#5c963c"/><path d="m60.1 97.7h3.2v3.2h-3.2z" fill="#5c963c"/><path d="m63.3 97.7h3.2v3.2h-3.2z" fill="#86bc3c"/><path d="m66.5 97.7h3.2v3.2h-3.2z" fill="#86bc3c"/><path d="m69.6 97.7h3.2v3.2h-3.2z" fill="#86bc3c"/><path d="m72.8 97.7h3.2v3.2h-3.2z" fill="#99c42d"/><path d="m76 97.7h3.2v3.2h-3.2z" fill="#86bc3c"/><path d="m79.1 97.7h3.2v3.2h-3.2z" fill="#99c42d"/><path d="m82.3 97.7h3.2v3.2h-3.2z" fill="#86bc3c"/><path d="m85.5 97.7h3.2v3.2h-3.2z" fill="#86bc3c"/><path d="m88.6 97.7h3.2v3.2h-3.2z" fill="#86bc3c"/><path d="m91.8 97.7h3.2v3.2h-3.2z" fill="#86bc3c"/><path d="m95 97.7h3.2v3.2h-3.2z" fill="#78ab3a"/><path d="m98.1 97.7h3.2v3.2h-3.2z" fill="#99c42d"/><path d="m0 100.9h3.2v3.2h-3.2z" fill="#86bc3c"/><path d="m3.2 100.9h3.2v3.2h-3.2z" fill="#78ab3a"/><path d="m6.3 100.9h3.2v3.2h-3.2z" fill="#86bc3c"/><path d="m9.5 100.9h3.2v3.2h-3.2z" fill="#86bc3c"/><path d="m12.7 100.9h3.2v3.2h-3.2z" fill="#5c963c"/><path d="m15.8 100.9h3.2v3.2h-3.2z" fill="#86bc3c"/><path d="m19 100.9h3.2v3.2h-3.2z" fill="#86bc3c"/><path d="m22.2 100.9h3.2v3.2h-3.2z" fill="#86bc3c"/><path d="m25.3 100.9h3.2v3.2h-3.2z" fill="#86bc3c"/><path d="m28.5 100.9h3.2v3.2h-3.2z" fill="#86bc3c"/><path d="m31.7 100.9h3.2v3.2h-3.2z" fill="#78ab3a"/><path d="m34.8 100.9h3.2v3.2h-3.2z" fill="#78ab3a"/><path d="m38 100.9h3.2v3.2h-3.2z" fill="#78ab3a"/><path d="m41.2 100.9h3.2v3.2h-3.2z" fill="#86bc3c"/><path d="m44.3 100.9h3.2v3.2h-3.2z" fill="#86bc3c"/><path d="m47.5 100.9h3.2v3.2h-3.2z" fill="#78ab3a"/><path d="m50.6 100.9h3.2v3.2h-3.2z" fill="#5c963c"/><path d="m53.8 100.9h3.2v3.2h-3.2z" fill="#99c42d"/><path d="m57 100.9h3.2v3.2h-3.2z" fill="#99c42d"/><path d="m60.1 100.9h3.2v3.2h-3.2z" fill="#5c963c"/><path d="m63.3 100.9h3.2v3.2h-3.2z" fill="#78ab3a"/><path d="m66.5 100.9h3.2v3.2h-3.2z" fill="#78ab3a"/><path d="m69.6 100.9h3.2v3.2h-3.2z" fill="#86bc3c"/><path d="m72.8 100.9h3.2v3.2h-3.2z" fill="#78ab3a"/><path d="m76 100.9h3.2v3.2h-3.2z" fill="#86bc3c"/><path d="m79.1 100.9h3.2v3.2h-3.2z" fill="#99c42d"/><path d="m82.3 100.9h3.2v3.2h-3.2z" fill="#78ab3a"/><path d="m85.5 100.9h3.2v3.2h-3.2z" fill="#78ab3a"/><path d="m88.6 100.9h3.2v3.2h-3.2z" fill="#78ab3a"/><path d="m91.8 100.9h3.2v3.2h-3.2z" fill="#78ab3a"/><path d="m95 100.9h3.2v3.2h-3.2z" fill="#86bc3c"/><path d="m98.1 100.9h3.2v3.2h-3.2z" fill="#86bc3c"/><path d="m0 104h3.2v3.2h-3.2z" fill="#78ab3a"/><path d="m3.2 104h3.2v3.2h-3.2z" fill="#5c963c"/><path d="m6.3 104h3.2v3.2h-3.2z" fill="#78ab3a"/><path d="m9.5 104h3.2v3.2h-3.2z" fill="#86bc3c"/><path d="m12.7 104h3.2v3.2h-3.2z" fill="#5c963c"/><path d="m15.8 104h3.2v3.2h-3.2z" fill="#78ab3a"/><path d="m19 104h3.2v3.2h-3.2z" fill="#78ab3a"/><path d="m22.2 104h3.2v3.2h-3.2z" fill="#86bc3c"/><path d="m25.3 104h3.2v3.2h-3.2z" fill="#86bc3c"/><path d="m28.5 104h3.2v3.2h-3.2z" fill="#78ab3a"/><path d="m31.7 104h3.2v3.2h-3.2z" fill="#5c963c"/><path d="m34.8 104h3.2v3.2h-3.2z" fill="#5c963c"/><path d="m38 104h3.2v3.2h-3.2z" fill="#78ab3a"/><path d="m41.2 104h3.2v3.2h-3.2z" fill="#78ab3a"/><path d="m44.3 104h3.2v3.2h-3.2z" fill="#86bc3c"/><path d="m47.5 104h3.2v3.2h-3.2z" fill="#86bc3c"/><path d="m50.6 104h3.2v3.2h-3.2z" fill="#86bc3c"/><path d="m53.8 104h3.2v3.2h-3.2z" fill="#86bc3c"/><path d="m57 104h3.2v3.2h-3.2z" fill="#86bc3c"/><path d="m60.1 104h3.2v3.2h-3.2z" fill="#86bc3c"/><path d="m63.3 104h3.2v3.2h-3.2z" fill="#86bc3c"/><path d="m66.5 104h3.2v3.2h-3.2z" fill="#86bc3c"/><path d="m69.6 104h3.2v3.2h-3.2z" fill="#86bc3c"/><path d="m72.8 104h3.2v3.2h-3.2z" fill="#78ab3a"/><path d="m76 104h3.2v3.2h-3.2z" fill="#5c963c"/><path d="m79.1 104h3.2v3.2h-3.2z" fill="#99c42d"/><path d="m82.3 104h3.2v3.2h-3.2z" fill="#5c963c"/><path d="m85.5 104h3.2v3.2h-3.2z" fill="#5c963c"/><path d="m88.6 104h3.2v3.2h-3.2z" fill="#78ab3a"/><path d="m91.8 104h3.2v3.2h-3.2z" fill="#78ab3a"/><path d="m95 104h3.2v3.2h-3.2z" fill="#5c963c"/><path d="m98.1 104h3.2v3.2h-3.2z" fill="#86bc3c"/><path d="m0 107.2h3.2v3.2h-3.2z" fill="#86bc3c"/><path d="m3.2 107.2h3.2v3.2h-3.2z" fill="#86bc3c"/><path d="m6.3 107.2h3.2v3.2h-3.2z" fill="#86bc3c"/><path d="m9.5 107.2h3.2v3.2h-3.2z" fill="#86bc3c"/><path d="m12.7 107.2h3.2v3.2h-3.2z" fill="#5c963c"/><path d="m15.8 107.2h3.2v3.2h-3.2z" fill="#5c963c"/><path d="m19 107.2h3.2v3.2h-3.2z" fill="#86bc3c"/><path d="m22.2 107.2h3.2v3.2h-3.2z" fill="#86bc3c"/><path d="m25.3 107.2h3.2v3.2h-3.2z" fill="#78ab3a"/><path d="m28.5 107.2h3.2v3.2h-3.2z" fill="#5c963c"/><path d="m31.7 107.2h3.2v3.2h-3.2z" fill="#99c42d"/><path d="m34.8 107.2h3.2v3.2h-3.2z" fill="#99c42d"/><path d="m38 107.2h3.2v3.2h-3.2z" fill="#99c42d"/><path d="m41.2 107.2h3.2v3.2h-3.2z" fill="#86bc3c"/><path d="m44.3 107.2h3.2v3.2h-3.2z" fill="#86bc3c"/><path d="m47.5 107.2h3.2v3.2h-3.2z" fill="#78ab3a"/><path d="m50.6 107.2h3.2v3.2h-3.2z" fill="#78ab3a"/><path d="m53.8 107.2h3.2v3.2h-3.2z" fill="#86bc3c"/><path d="m57 107.2h3.2v3.2h-3.2z" fill="#78ab3a"/><path d="m60.1 107.2h3.2v3.2h-3.2z" fill="#78ab3a"/><path d="m63.3 107.2h3.2v3.2h-3.2z" fill="#78ab3a"/><path d="m66.5 107.2h3.2v3.2h-3.2z" fill="#78ab3a"/><path d="m69.6 107.2h3.2v3.2h-3.2z" fill="#78ab3a"/><path d="m72.8 107.2h3.2v3.2h-3.2z" fill="#5c963c"/><path d="m76 107.2h3.2v3.2h-3.2z" fill="#99c42d"/><path d="m79.1 107.2h3.2v3.2h-3.2z" fill="#99c42d"/><path d="m82.3 107.2h3.2v3.2h-3.2z" fill="#99c42d"/><path d="m85.5 107.2h3.2v3.2h-3.2z" fill="#86bc3c"/><path d="m88.6 107.2h3.2v3.2h-3.2z" fill="#86bc3c"/><path d="m91.8 107.2h3.2v3.2h-3.2z" fill="#86bc3c"/><path d="m95 107.2h3.2v3.2h-3.2z" fill="#5c963c"/><path d="m98.1 107.2h3.2v3.2h-3.2z" fill="#86bc3c"/><path d="m0 110.4h3.2v3.2h-3.2z" fill="#86bc3c"/><path d="m3.2 110.4h3.2v3.2h-3.2z" fill="#86bc3c"/><path d="m6.3 110.4h3.2v3.2h-3.2z" fill="#99c42d"/><g fill="#86bc3c"><path d="m9.5 110.4h3.2v3.2h-3.2z"/><path d="m12.7 110.4h3.2v3.2h-3.2z"/><path d="m15.8 110.4h3.2v3.2h-3.2z"/><path d="m19 110.4h3.2v3.2h-3.2z"/><path d="m22.2 110.4h3.2v3.2h-3.2z"/><path d="m25.3 110.4h3.2v3.2h-3.2z"/><path d="m28.5 110.4h3.2v3.2h-3.2z"/><path d="m31.7 110.4h3.2v3.2h-3.2z"/><path d="m34.8 110.4h3.2v3.2h-3.2z"/><path d="m38 110.4h3.2v3.2h-3.2z"/><path d="m41.2 110.4h3.2v3.2h-3.2z"/><path d="m44.3 110.4h3.2v3.2h-3.2z"/><path d="m47.5 110.4h3.2v3.2h-3.2z"/><path d="m50.6 110.4h3.2v3.2h-3.2z"/><path d="m53.8 110.4h3.2v3.2h-3.2z"/></g><path d="m57 110.4h3.2v3.2h-3.2z" fill="#78ab3a"/><path d="m60.1 110.4h3.2v3.2h-3.2z" fill="#86bc3c"/><path d="m63.3 110.4h3.2v3.2h-3.2z" fill="#99c42d"/><path d="m66.5 110.4h3.2v3.2h-3.2z" fill="#86bc3c"/><path d="m69.6 110.4h3.2v3.2h-3.2z" fill="#86bc3c"/><path d="m72.8 110.4h3.2v3.2h-3.2z" fill="#86bc3c"/><path d="m76 110.4h3.2v3.2h-3.2z" fill="#86bc3c"/><path d="m79.1 110.4h3.2v3.2h-3.2z" fill="#86bc3c"/><path d="m82.3 110.4h3.2v3.2h-3.2z" fill="#86bc3c"/><path d="m85.5 110.4h3.2v3.2h-3.2z" fill="#86bc3c"/><path d="m88.6 110.4h3.2v3.2h-3.2z" fill="#78ab3a"/><path d="m91.8 110.4h3.2v3.2h-3.2z" fill="#5c963c"/><path d="m95 110.4h3.2v3.2h-3.2z" fill="#5c963c"/><path d="m98.1 110.4h3.2v3.2h-3.2z" fill="#86bc3c"/><path d="m0 113.5h3.2v3.2h-3.2z" fill="#86bc3c"/><path d="m3.2 113.5h3.2v3.2h-3.2z" fill="#78ab3a"/><path d="m6.3 113.5h3.2v3.2h-3.2z" fill="#99c42d"/><path d="m9.5 113.5h3.2v3.2h-3.2z" fill="#78ab3a"/><path d="m12.7 113.5h3.2v3.2h-3.2z" fill="#86bc3c"/><path d="m15.8 113.5h3.2v3.2h-3.2z" fill="#86bc3c"/><path d="m19 113.5h3.2v3.2h-3.2z" fill="#86bc3c"/><path d="m22.2 113.5h3.2v3.2h-3.2z" fill="#99c42d"/><path d="m25.3 113.5h3.2v3.2h-3.2z" fill="#78ab3a"/><path d="m28.5 113.5h3.2v3.2h-3.2z" fill="#78ab3a"/><path d="m31.7 113.5h3.2v3.2h-3.2z" fill="#5c963c"/><path d="m34.8 113.5h3.2v3.2h-3.2z" fill="#5c963c"/><path d="m38 113.5h3.2v3.2h-3.2z" fill="#5c963c"/><path d="m41.2 113.5h3.2v3.2h-3.2z" fill="#5c963c"/><path d="m44.3 113.5h3.2v3.2h-3.2z" fill="#86bc3c"/><path d="m47.5 113.5h3.2v3.2h-3.2z" fill="#86bc3c"/><path d="m50.6 113.5h3.2v3.2h-3.2z" fill="#86bc3c"/><path d="m53.8 113.5h3.2v3.2h-3.2z" fill="#78ab3a"/><path d="m57 113.5h3.2v3.2h-3.2z" fill="#78ab3a"/><path d="m60.1 113.5h3.2v3.2h-3.2z" fill="#78ab3a"/><path d="m63.3 113.5h3.2v3.2h-3.2z" fill="#99c42d"/><path d="m66.5 113.5h3.2v3.2h-3.2z" fill="#78ab3a"/><path d="m69.6 113.5h3.2v3.2h-3.2z" fill="#86bc3c"/><path d="m72.8 113.5h3.2v3.2h-3.2z" fill="#86bc3c"/><path d="m76 113.5h3.2v3.2h-3.2z" fill="#78ab3a"/><path d="m79.1 113.5h3.2v3.2h-3.2z" fill="#78ab3a"/><path d="m82.3 113.5h3.2v3.2h-3.2z" fill="#5c963c"/><path d="m85.5 113.5h3.2v3.2h-3.2z" fill="#5c963c"/><path d="m88.6 113.5h3.2v3.2h-3.2z" fill="#5c963c"/><path d="m91.8 113.5h3.2v3.2h-3.2z" fill="#99c42d"/><path d="m95 113.5h3.2v3.2h-3.2z" fill="#99c42d"/><path d="m98.1 113.5h3.2v3.2h-3.2z" fill="#86bc3c"/><path d="m0 116.7h3.2v3.2h-3.2z" fill="#78ab3a"/><path d="m3.2 116.7h3.2v3.2h-3.2z" fill="#5c963c"/><path d="m6.3 116.7h3.2v3.2h-3.2z" fill="#99c42d"/><path d="m9.5 116.7h3.2v3.2h-3.2z" fill="#5c963c"/><path d="m12.7 116.7h3.2v3.2h-3.2z" fill="#86bc3c"/><path d="m15.8 116.7h3.2v3.2h-3.2z" fill="#86bc3c"/><path d="m19 116.7h3.2v3.2h-3.2z" fill="#78ab3a"/><path d="m22.2 116.7h3.2v3.2h-3.2z" fill="#78ab3a"/><path d="m25.3 116.7h3.2v3.2h-3.2z" fill="#78ab3a"/><path d="m28.5 116.7h3.2v3.2h-3.2z" fill="#5c963c"/><path d="m31.7 116.7h3.2v3.2h-3.2z" fill="#99c42d"/><path d="m34.8 116.7h3.2v3.2h-3.2z" fill="#99c42d"/><path d="m38 116.7h3.2v3.2h-3.2z" fill="#86bc3c"/><path d="m41.2 116.7h3.2v3.2h-3.2z" fill="#86bc3c"/><path d="m44.3 116.7h3.2v3.2h-3.2z" fill="#86bc3c"/><path d="m47.5 116.7h3.2v3.2h-3.2z" fill="#86bc3c"/><path d="m50.6 116.7h3.2v3.2h-3.2z" fill="#78ab3a"/><path d="m53.8 116.7h3.2v3.2h-3.2z" fill="#78ab3a"/><path d="m57 116.7h3.2v3.2h-3.2z" fill="#78ab3a"/><path d="m60.1 116.7h3.2v3.2h-3.2z" fill="#5c963c"/><path d="m63.3 116.7h3.2v3.2h-3.2z" fill="#99c42d"/><path d="m66.5 116.7h3.2v3.2h-3.2z" fill="#5c963c"/><path d="m69.6 116.7h3.2v3.2h-3.2z" fill="#78ab3a"/><path d="m72.8 116.7h3.2v3.2h-3.2z" fill="#86bc3c"/><path d="m76 116.7h3.2v3.2h-3.2z" fill="#86bc3c"/><path d="m79.1 116.7h3.2v3.2h-3.2z" fill="#86bc3c"/><path d="m82.3 116.7h3.2v3.2h-3.2z" fill="#86bc3c"/><path d="m85.5 116.7h3.2v3.2h-3.2z" fill="#86bc3c"/><path d="m88.6 116.7h3.2v3.2h-3.2z" fill="#86bc3c"/><path d="m91.8 116.7h3.2v3.2h-3.2z" fill="#86bc3c"/><path d="m95 116.7h3.2v3.2h-3.2z" fill="#86bc3c"/><path d="m98.1 116.7h3.2v3.2h-3.2z" fill="#86bc3c"/><path d="m0 119.9h3.2v3.2h-3.2z" fill="#5c963c"/><path d="m3.2 119.9h3.2v3.2h-3.2z" fill="#99c42d"/><path d="m6.3 119.9h3.2v3.2h-3.2z" fill="#99c42d"/><path d="m9.5 119.9h3.2v3.2h-3.2z" fill="#99c42d"/><path d="m12.7 119.9h3.2v3.2h-3.2z" fill="#5c963c"/><path d="m15.8 119.9h3.2v3.2h-3.2z" fill="#86bc3c"/><path d="m19 119.9h3.2v3.2h-3.2z" fill="#86bc3c"/><path d="m22.2 119.9h3.2v3.2h-3.2z" fill="#86bc3c"/><path d="m25.3 119.9h3.2v3.2h-3.2z" fill="#86bc3c"/><path d="m28.5 119.9h3.2v3.2h-3.2z" fill="#86bc3c"/><path d="m31.7 119.9h3.2v3.2h-3.2z" fill="#86bc3c"/><path d="m34.8 119.9h3.2v3.2h-3.2z" fill="#86bc3c"/><path d="m38 119.9h3.2v3.2h-3.2z" fill="#86bc3c"/><path d="m41.2 119.9h3.2v3.2h-3.2z" fill="#5c963c"/><path d="m44.3 119.9h3.2v3.2h-3.2z" fill="#86bc3c"/><path d="m47.5 119.9h3.2v3.2h-3.2z" fill="#78ab3a"/><path d="m50.6 119.9h3.2v3.2h-3.2z" fill="#78ab3a"/><path d="m53.8 119.9h3.2v3.2h-3.2z" fill="#5c963c"/><path d="m57 119.9h3.2v3.2h-3.2z" fill="#99c42d"/><path d="m60.1 119.9h3.2v3.2h-3.2z" fill="#99c42d"/><path d="m63.3 119.9h3.2v3.2h-3.2z" fill="#99c42d"/><path d="m66.5 119.9h3.2v3.2h-3.2z" fill="#99c42d"/><path d="m69.6 119.9h3.2v3.2h-3.2z" fill="#5c963c"/><path d="m72.8 119.9h3.2v3.2h-3.2z" fill="#78ab3a"/><path d="m76 119.9h3.2v3.2h-3.2z" fill="#86bc3c"/><path d="m79.1 119.9h3.2v3.2h-3.2z" fill="#86bc3c"/><path d="m82.3 119.9h3.2v3.2h-3.2z" fill="#78ab3a"/><path d="m85.5 119.9h3.2v3.2h-3.2z" fill="#99c42d"/><path d="m88.6 119.9h3.2v3.2h-3.2z" fill="#78ab3a"/><path d="m91.8 119.9h3.2v3.2h-3.2z" fill="#86bc3c"/><path d="m95 119.9h3.2v3.2h-3.2z" fill="#5c963c"/><path d="m98.1 119.9h3.2v3.2h-3.2z" fill="#86bc3c"/><path d="m0 123h3.2v3.2h-3.2z" fill="#86bc3c"/><path d="m3.2 123h3.2v3.2h-3.2z" fill="#86bc3c"/><path d="m6.3 123h3.2v3.2h-3.2z" fill="#86bc3c"/><path d="m9.5 123h3.2v3.2h-3.2z" fill="#86bc3c"/><path d="m12.7 123h3.2v3.2h-3.2z" fill="#86bc3c"/><path d="m15.8 123h3.2v3.2h-3.2z" fill="#86bc3c"/><path d="m19 123h3.2v3.2h-3.2z" fill="#86bc3c"/><path d="m22.2 123h3.2v3.2h-3.2z" fill="#78ab3a"/><path d="m25.3 123h3.2v3.2h-3.2z" fill="#99c42d"/><path d="m28.5 123h3.2v3.2h-3.2z" fill="#86bc3c"/><path d="m31.7 123h3.2v3.2h-3.2z" fill="#86bc3c"/><path d="m34.8 123h3.2v3.2h-3.2z" fill="#86bc3c"/><path d="m38 123h3.2v3.2h-3.2z" fill="#78ab3a"/><path d="m41.2 123h3.2v3.2h-3.2z" fill="#5c963c"/><path d="m44.3 123h3.2v3.2h-3.2z" fill="#86bc3c"/><path d="m47.5 123h3.2v3.2h-3.2z" fill="#86bc3c"/><path d="m50.6 123h3.2v3.2h-3.2z" fill="#86bc3c"/><path d="m53.8 123h3.2v3.2h-3.2z" fill="#86bc3c"/><path d="m57 123h3.2v3.2h-3.2z" fill="#86bc3c"/><path d="m60.1 123h3.2v3.2h-3.2z" fill="#86bc3c"/><path d="m63.3 123h3.2v3.2h-3.2z" fill="#86bc3c"/><path d="m66.5 123h3.2v3.2h-3.2z" fill="#86bc3c"/><path d="m69.6 123h3.2v3.2h-3.2z" fill="#86bc3c"/><path d="m72.8 123h3.2v3.2h-3.2z" fill="#86bc3c"/><path d="m76 123h3.2v3.2h-3.2z" fill="#78ab3a"/><path d="m79.1 123h3.2v3.2h-3.2z" fill="#5c963c"/><path d="m82.3 123h3.2v3.2h-3.2z" fill="#5c963c"/><path d="m85.5 123h3.2v3.2h-3.2z" fill="#99c42d"/><path d="m88.6 123h3.2v3.2h-3.2z" fill="#5c963c"/><path d="m91.8 123h3.2v3.2h-3.2z" fill="#78ab3a"/><path d="m95 123h3.2v3.2h-3.2z" fill="#5c963c"/><path d="m98.1 123h3.2v3.2h-3.2z" fill="#86bc3c"/><path d="m0 126.2h3.2v3.2h-3.2z" fill="#86bc3c"/><path d="m3.2 126.2h3.2v3.2h-3.2z" fill="#86bc3c"/><path d="m6.3 126.2h3.2v3.2h-3.2z" fill="#86bc3c"/><path d="m9.5 126.2h3.2v3.2h-3.2z" fill="#86bc3c"/><path d="m12.7 126.2h3.2v3.2h-3.2z" fill="#78ab3a"/><path d="m15.8 126.2h3.2v3.2h-3.2z" fill="#86bc3c"/><path d="m19 126.2h3.2v3.2h-3.2z" fill="#86bc3c"/><path d="m22.2 126.2h3.2v3.2h-3.2z" fill="#78ab3a"/><path d="m25.3 126.2h3.2v3.2h-3.2z" fill="#99c42d"/><path d="m28.5 126.2h3.2v3.2h-3.2z" fill="#78ab3a"/><path d="m31.7 126.2h3.2v3.2h-3.2z" fill="#78ab3a"/><path d="m34.8 126.2h3.2v3.2h-3.2z" fill="#86bc3c"/><path d="m38 126.2h3.2v3.2h-3.2z" fill="#86bc3c"/><path d="m41.2 126.2h3.2v3.2h-3.2z" fill="#5c963c"/><path d="m44.3 126.2h3.2v3.2h-3.2z" fill="#78ab3a"/><path d="m47.5 126.2h3.2v3.2h-3.2z" fill="#99c42d"/><path d="m50.6 126.2h3.2v3.2h-3.2z" fill="#78ab3a"/><path d="m53.8 126.2h3.2v3.2h-3.2z" fill="#78ab3a"/><path d="m57 126.2h3.2v3.2h-3.2z" fill="#99c42d"/><path d="m60.1 126.2h3.2v3.2h-3.2z" fill="#78ab3a"/><path d="m63.3 126.2h3.2v3.2h-3.2z" fill="#78ab3a"/><path d="m66.5 126.2h3.2v3.2h-3.2z" fill="#78ab3a"/><path d="m69.6 126.2h3.2v3.2h-3.2z" fill="#86bc3c"/><path d="m72.8 126.2h3.2v3.2h-3.2z" fill="#86bc3c"/><path d="m76 126.2h3.2v3.2h-3.2z" fill="#86bc3c"/><path d="m79.1 126.2h3.2v3.2h-3.2z" fill="#86bc3c"/><path d="m82.3 126.2h3.2v3.2h-3.2z" fill="#86bc3c"/><path d="m85.5 126.2h3.2v3.2h-3.2z" fill="#5c963c"/><path d="m88.6 126.2h3.2v3.2h-3.2z" fill="#78ab3a"/><path d="m91.8 126.2h3.2v3.2h-3.2z" fill="#78ab3a"/><path d="m95 126.2h3.2v3.2h-3.2z" fill="#86bc3c"/><path d="m98.1 126.2h3.2v3.2h-3.2z" fill="#86bc3c"/><path d="m0 129.4h3.2v3.2h-3.2z" fill="#5c963c"/><path d="m3.2 129.4h3.2v3.2h-3.2z" fill="#5c963c"/><path d="m6.3 129.4h3.2v3.2h-3.2z" fill="#78ab3a"/><path d="m9.5 129.4h3.2v3.2h-3.2z" fill="#86bc3c"/><path d="m12.7 129.4h3.2v3.2h-3.2z" fill="#86bc3c"/><path d="m15.8 129.4h3.2v3.2h-3.2z" fill="#86bc3c"/><path d="m19 129.4h3.2v3.2h-3.2z" fill="#5c963c"/><path d="m22.2 129.4h3.2v3.2h-3.2z" fill="#5c963c"/><path d="m25.3 129.4h3.2v3.2h-3.2z" fill="#99c42d"/><path d="m28.5 129.4h3.2v3.2h-3.2z" fill="#78ab3a"/><path d="m31.7 129.4h3.2v3.2h-3.2z" fill="#5c963c"/><path d="m34.8 129.4h3.2v3.2h-3.2z" fill="#78ab3a"/><path d="m38 129.4h3.2v3.2h-3.2z" fill="#86bc3c"/><path d="m41.2 129.4h3.2v3.2h-3.2z" fill="#5c963c"/><path d="m44.3 129.4h3.2v3.2h-3.2z" fill="#5c963c"/><path d="m47.5 129.4h3.2v3.2h-3.2z" fill="#99c42d"/><path d="m50.6 129.4h3.2v3.2h-3.2z" fill="#5c963c"/><path d="m53.8 129.4h3.2v3.2h-3.2z" fill="#78ab3a"/><path d="m57 129.4h3.2v3.2h-3.2z" fill="#86bc3c"/><path d="m60.1 129.4h3.2v3.2h-3.2z" fill="#86bc3c"/><path d="m63.3 129.4h3.2v3.2h-3.2z" fill="#86bc3c"/><path d="m66.5 129.4h3.2v3.2h-3.2z" fill="#78ab3a"/><path d="m69.6 129.4h3.2v3.2h-3.2z" fill="#78ab3a"/><path d="m72.8 129.4h3.2v3.2h-3.2z" fill="#78ab3a"/><path d="m76 129.4h3.2v3.2h-3.2z" fill="#86bc3c"/><path d="m79.1 129.4h3.2v3.2h-3.2z" fill="#86bc3c"/><path d="m82.3 129.4h3.2v3.2h-3.2z" fill="#78ab3a"/><path d="m85.5 129.4h3.2v3.2h-3.2z" fill="#5c963c"/><path d="m88.6 129.4h3.2v3.2h-3.2z" fill="#78ab3a"/><path d="m91.8 129.4h3.2v3.2h-3.2z" fill="#86bc3c"/><path d="m95 129.4h3.2v3.2h-3.2z" fill="#86bc3c"/><path d="m98.1 129.4h3.2v3.2h-3.2z" fill="#78ab3a"/><path d="m0 132.5h3.2v3.2h-3.2z" fill="#86bc3c"/><path d="m3.2 132.5h3.2v3.2h-3.2z" fill="#86bc3c"/><path d="m6.3 132.5h3.2v3.2h-3.2z" fill="#5c963c"/><path d="m9.5 132.5h3.2v3.2h-3.2z" fill="#78ab3a"/><path d="m12.7 132.5h3.2v3.2h-3.2z" fill="#86bc3c"/><path d="m15.8 132.5h3.2v3.2h-3.2z" fill="#5c963c"/><path d="m19 132.5h3.2v3.2h-3.2z" fill="#86bc3c"/><path d="m22.2 132.5h3.2v3.2h-3.2z" fill="#99c42d"/><path d="m25.3 132.5h3.2v3.2h-3.2z" fill="#78ab3a"/><path d="m28.5 132.5h3.2v3.2h-3.2z" fill="#5c963c"/><path d="m31.7 132.5h3.2v3.2h-3.2z" fill="#5c963c"/><path d="m34.8 132.5h3.2v3.2h-3.2z" fill="#78ab3a"/><path d="m38 132.5h3.2v3.2h-3.2z" fill="#86bc3c"/><path d="m41.2 132.5h3.2v3.2h-3.2z" fill="#86bc3c"/><path d="m44.3 132.5h3.2v3.2h-3.2z" fill="#78ab3a"/><path d="m47.5 132.5h3.2v3.2h-3.2z" fill="#99c42d"/><path d="m50.6 132.5h3.2v3.2h-3.2z" fill="#99c42d"/><path d="m53.8 132.5h3.2v3.2h-3.2z" fill="#5c963c"/><path d="m57 132.5h3.2v3.2h-3.2z" fill="#78ab3a"/><path d="m60.1 132.5h3.2v3.2h-3.2z" fill="#86bc3c"/><path d="m63.3 132.5h3.2v3.2h-3.2z" fill="#86bc3c"/><path d="m66.5 132.5h3.2v3.2h-3.2z" fill="#86bc3c"/><path d="m69.6 132.5h3.2v3.2h-3.2z" fill="#86bc3c"/><path d="m72.8 132.5h3.2v3.2h-3.2z" fill="#99c42d"/><path d="m76 132.5h3.2v3.2h-3.2z" fill="#86bc3c"/><path d="m79.1 132.5h3.2v3.2h-3.2z" fill="#86bc3c"/><path d="m82.3 132.5h3.2v3.2h-3.2z" fill="#86bc3c"/><path d="m85.5 132.5h3.2v3.2h-3.2z" fill="#86bc3c"/><path d="m88.6 132.5h3.2v3.2h-3.2z" fill="#86bc3c"/><path d="m91.8 132.5h3.2v3.2h-3.2z" fill="#78ab3a"/><path d="m95 132.5h3.2v3.2h-3.2z" fill="#5c963c"/><path d="m98.1 132.5h3.2v3.2h-3.2z" fill="#5c963c"/><path d="m0 135.7h3.2v3.2h-3.2z" fill="#86bc3c"/><path d="m3.2 135.7h3.2v3.2h-3.2z" fill="#86bc3c"/><path d="m6.3 135.7h3.2v3.2h-3.2z" fill="#86bc3c"/><path d="m9.5 135.7h3.2v3.2h-3.2z" fill="#86bc3c"/><path d="m12.7 135.7h3.2v3.2h-3.2z" fill="#86bc3c"/><path d="m15.8 135.7h3.2v3.2h-3.2z" fill="#5c963c"/><path d="m19 135.7h3.2v3.2h-3.2z" fill="#86bc3c"/><path d="m22.2 135.7h3.2v3.2h-3.2z" fill="#86bc3c"/><path d="m25.3 135.7h3.2v3.2h-3.2z" fill="#86bc3c"/><path d="m28.5 135.7h3.2v3.2h-3.2z" fill="#86bc3c"/><path d="m31.7 135.7h3.2v3.2h-3.2z" fill="#86bc3c"/><path d="m34.8 135.7h3.2v3.2h-3.2z" fill="#86bc3c"/><path d="m38 135.7h3.2v3.2h-3.2z" fill="#99c42d"/><path d="m41.2 135.7h3.2v3.2h-3.2z" fill="#86bc3c"/><path d="m44.3 135.7h3.2v3.2h-3.2z" fill="#78ab3a"/><path d="m47.5 135.7h3.2v3.2h-3.2z" fill="#86bc3c"/><path d="m50.6 135.7h3.2v3.2h-3.2z" fill="#86bc3c"/><path d="m53.8 135.7h3.2v3.2h-3.2z" fill="#86bc3c"/><path d="m57 135.7h3.2v3.2h-3.2z" fill="#86bc3c"/><path d="m60.1 135.7h3.2v3.2h-3.2z" fill="#86bc3c"/><path d="m63.3 135.7h3.2v3.2h-3.2z" fill="#78ab3a"/><path d="m66.5 135.7h3.2v3.2h-3.2z" fill="#5c963c"/><path d="m69.6 135.7h3.2v3.2h-3.2z" fill="#5c963c"/><path d="m72.8 135.7h3.2v3.2h-3.2z" fill="#99c42d"/><path d="m76 135.7h3.2v3.2h-3.2z" fill="#78ab3a"/><path d="m79.1 135.7h3.2v3.2h-3.2z" fill="#86bc3c"/><path d="m82.3 135.7h3.2v3.2h-3.2z" fill="#86bc3c"/><path d="m85.5 135.7h3.2v3.2h-3.2z" fill="#78ab3a"/><path d="m88.6 135.7h3.2v3.2h-3.2z" fill="#86bc3c"/><path d="m91.8 135.7h3.2v3.2h-3.2z" fill="#86bc3c"/><path d="m95 135.7h3.2v3.2h-3.2z" fill="#86bc3c"/><path d="m98.1 135.7h3.2v3.2h-3.2z" fill="#86bc3c"/><path d="m0 138.8h3.2v3.2h-3.2z" fill="#86bc3c"/><path d="m3.2 138.8h3.2v3.2h-3.2z" fill="#78ab3a"/><path d="m6.3 138.8h3.2v3.2h-3.2z" fill="#86bc3c"/><path d="m9.5 138.8h3.2v3.2h-3.2z" fill="#78ab3a"/><path d="m12.7 138.8h3.2v3.2h-3.2z" fill="#99c42d"/><path d="m15.8 138.8h3.2v3.2h-3.2z" fill="#5c963c"/><path d="m19 138.8h3.2v3.2h-3.2z" fill="#78ab3a"/><path d="m22.2 138.8h3.2v3.2h-3.2z" fill="#86bc3c"/><path d="m25.3 138.8h3.2v3.2h-3.2z" fill="#86bc3c"/><path d="m28.5 138.8h3.2v3.2h-3.2z" fill="#86bc3c"/><path d="m31.7 138.8h3.2v3.2h-3.2z" fill="#78ab3a"/><path d="m34.8 138.8h3.2v3.2h-3.2z" fill="#5c963c"/><path d="m38 138.8h3.2v3.2h-3.2z" fill="#99c42d"/><path d="m41.2 138.8h3.2v3.2h-3.2z" fill="#78ab3a"/><path d="m44.3 138.8h3.2v3.2h-3.2z" fill="#5c963c"/><path d="m47.5 138.8h3.2v3.2h-3.2z" fill="#78ab3a"/><path d="m50.6 138.8h3.2v3.2h-3.2z" fill="#78ab3a"/><path d="m53.8 138.8h3.2v3.2h-3.2z" fill="#86bc3c"/><path d="m57 138.8h3.2v3.2h-3.2z" fill="#86bc3c"/><path d="m60.1 138.8h3.2v3.2h-3.2z" fill="#78ab3a"/><path d="m63.3 138.8h3.2v3.2h-3.2z" fill="#5c963c"/><path d="m66.5 138.8h3.2v3.2h-3.2z" fill="#99c42d"/><path d="m69.6 138.8h3.2v3.2h-3.2z" fill="#99c42d"/><path d="m72.8 138.8h3.2v3.2h-3.2z" fill="#99c42d"/><path d="m76 138.8h3.2v3.2h-3.2z" fill="#5c963c"/><path d="m79.1 138.8h3.2v3.2h-3.2z" fill="#86bc3c"/><path d="m82.3 138.8h3.2v3.2h-3.2z" fill="#86bc3c"/><path d="m85.5 138.8h3.2v3.2h-3.2z" fill="#78ab3a"/><path d="m88.6 138.8h3.2v3.2h-3.2z" fill="#99c42d"/><path d="m91.8 138.8h3.2v3.2h-3.2z" fill="#5c963c"/><path d="m95 138.8h3.2v3.2h-3.2z" fill="#78ab3a"/><path d="m98.1 138.8h3.2v3.2h-3.2z" fill="#86bc3c"/><path d="m0 142h3.2v3.2h-3.2z" fill="#86bc3c"/><path d="m3.2 142h3.2v3.2h-3.2z" fill="#78ab3a"/><path d="m6.3 142h3.2v3.2h-3.2z" fill="#78ab3a"/><path d="m9.5 142h3.2v3.2h-3.2z" fill="#5c963c"/><path d="m12.7 142h3.2v3.2h-3.2z" fill="#99c42d"/><path d="m15.8 142h3.2v3.2h-3.2z" fill="#5c963c"/><path d="m19 142h3.2v3.2h-3.2z" fill="#5c963c"/><path d="m22.2 142h3.2v3.2h-3.2z" fill="#78ab3a"/><path d="m25.3 142h3.2v3.2h-3.2z" fill="#86bc3c"/><path d="m28.5 142h3.2v3.2h-3.2z" fill="#86bc3c"/><path d="m31.7 142h3.2v3.2h-3.2z" fill="#5c963c"/><path d="m34.8 142h3.2v3.2h-3.2z" fill="#86bc3c"/><path d="m38 142h3.2v3.2h-3.2z" fill="#99c42d"/><path d="m41.2 142h3.2v3.2h-3.2z" fill="#86bc3c"/><path d="m44.3 142h3.2v3.2h-3.2z" fill="#86bc3c"/><path d="m47.5 142h3.2v3.2h-3.2z" fill="#86bc3c"/><path d="m50.6 142h3.2v3.2h-3.2z" fill="#86bc3c"/><path d="m53.8 142h3.2v3.2h-3.2z" fill="#86bc3c"/><path d="m57 142h3.2v3.2h-3.2z" fill="#86bc3c"/><path d="m60.1 142h3.2v3.2h-3.2z" fill="#86bc3c"/><path d="m63.3 142h3.2v3.2h-3.2z" fill="#78ab3a"/><path d="m66.5 142h3.2v3.2h-3.2z" fill="#86bc3c"/><path d="m69.6 142h3.2v3.2h-3.2z" fill="#78ab3a"/><path d="m72.8 142h3.2v3.2h-3.2z" fill="#99c42d"/><path d="m76 142h3.2v3.2h-3.2z" fill="#99c42d"/><path d="m79.1 142h3.2v3.2h-3.2z" fill="#5c963c"/><path d="m82.3 142h3.2v3.2h-3.2z" fill="#5c963c"/><path d="m85.5 142h3.2v3.2h-3.2z" fill="#86bc3c"/><path d="m88.6 142h3.2v3.2h-3.2z" fill="#99c42d"/><path d="m91.8 142h3.2v3.2h-3.2z" fill="#5c963c"/><path d="m95 142h3.2v3.2h-3.2z" fill="#5c963c"/><path d="m98.1 142h3.2v3.2h-3.2z" fill="#78ab3a"/><path d="m0 145.2h3.2v3.2h-3.2z" fill="#86bc3c"/><path d="m3.2 145.2h3.2v3.2h-3.2z" fill="#78ab3a"/><path d="m6.3 145.2h3.2v3.2h-3.2z" fill="#5c963c"/><path d="m9.5 145.2h3.2v3.2h-3.2z" fill="#99c42d"/><path d="m12.7 145.2h3.2v3.2h-3.2z" fill="#99c42d"/><path d="m15.8 145.2h3.2v3.2h-3.2z" fill="#99c42d"/><path d="m19 145.2h3.2v3.2h-3.2z" fill="#99c42d"/><path d="m22.2 145.2h3.2v3.2h-3.2z" fill="#5c963c"/><path d="m25.3 145.2h3.2v3.2h-3.2z" fill="#78ab3a"/><path d="m28.5 145.2h3.2v3.2h-3.2z" fill="#86bc3c"/><path d="m31.7 145.2h3.2v3.2h-3.2z" fill="#86bc3c"/><path d="m34.8 145.2h3.2v3.2h-3.2z" fill="#86bc3c"/><path d="m38 145.2h3.2v3.2h-3.2z" fill="#5c963c"/><path d="m41.2 145.2h3.2v3.2h-3.2z" fill="#86bc3c"/><path d="m44.3 145.2h3.2v3.2h-3.2z" fill="#78ab3a"/><path d="m47.5 145.2h3.2v3.2h-3.2z" fill="#5c963c"/><path d="m50.6 145.2h3.2v3.2h-3.2z" fill="#5c963c"/><path d="m53.8 145.2h3.2v3.2h-3.2z" fill="#5c963c"/><path d="m57 145.2h3.2v3.2h-3.2z" fill="#78ab3a"/><path d="m60.1 145.2h3.2v3.2h-3.2z" fill="#86bc3c"/><path d="m63.3 145.2h3.2v3.2h-3.2z" fill="#78ab3a"/><path d="m66.5 145.2h3.2v3.2h-3.2z" fill="#86bc3c"/><path d="m69.6 145.2h3.2v3.2h-3.2z" fill="#78ab3a"/><path d="m72.8 145.2h3.2v3.2h-3.2z" fill="#86bc3c"/><path d="m76 145.2h3.2v3.2h-3.2z" fill="#86bc3c"/><path d="m79.1 145.2h3.2v3.2h-3.2z" fill="#86bc3c"/><path d="m82.3 145.2h3.2v3.2h-3.2z" fill="#86bc3c"/><path d="m85.5 145.2h3.2v3.2h-3.2z" fill="#86bc3c"/><path d="m88.6 145.2h3.2v3.2h-3.2z" fill="#99c42d"/><path d="m91.8 145.2h3.2v3.2h-3.2z" fill="#86bc3c"/><path d="m95 145.2h3.2v3.2h-3.2z" fill="#86bc3c"/><path d="m98.1 145.2h3.2v3.2h-3.2z" fill="#86bc3c"/><path d="m0 148.3h3.2v3.2h-3.2z" fill="#86bc3c"/><path d="m3.2 148.3h3.2v3.2h-3.2z" fill="#86bc3c"/><path d="m6.3 148.3h3.2v3.2h-3.2z" fill="#99c42d"/><path d="m9.5 148.3h3.2v3.2h-3.2z" fill="#86bc3c"/><path d="m12.7 148.3h3.2v3.2h-3.2z" fill="#86bc3c"/><path d="m15.8 148.3h3.2v3.2h-3.2z" fill="#86bc3c"/><path d="m19 148.3h3.2v3.2h-3.2z" fill="#86bc3c"/><path d="m22.2 148.3h3.2v3.2h-3.2z" fill="#99c42d"/><path d="m25.3 148.3h3.2v3.2h-3.2z" fill="#86bc3c"/><path d="m28.5 148.3h3.2v3.2h-3.2z" fill="#86bc3c"/><path d="m31.7 148.3h3.2v3.2h-3.2z" fill="#86bc3c"/><path d="m34.8 148.3h3.2v3.2h-3.2z" fill="#78ab3a"/><path d="m38 148.3h3.2v3.2h-3.2z" fill="#5c963c"/><path d="m41.2 148.3h3.2v3.2h-3.2z" fill="#5c963c"/><path d="m44.3 148.3h3.2v3.2h-3.2z" fill="#5c963c"/><path d="m47.5 148.3h3.2v3.2h-3.2z" fill="#99c42d"/><path d="m50.6 148.3h3.2v3.2h-3.2z" fill="#99c42d"/><path d="m53.8 148.3h3.2v3.2h-3.2z" fill="#99c42d"/><path d="m57 148.3h3.2v3.2h-3.2z" fill="#5c963c"/><path d="m60.1 148.3h3.2v3.2h-3.2z" fill="#78ab3a"/><path d="m63.3 148.3h3.2v3.2h-3.2z" fill="#78ab3a"/><path d="m66.5 148.3h3.2v3.2h-3.2z" fill="#78ab3a"/><path d="m69.6 148.3h3.2v3.2h-3.2z" fill="#5c963c"/><path d="m72.8 148.3h3.2v3.2h-3.2z" fill="#5c963c"/><path d="m76 148.3h3.2v3.2h-3.2z" fill="#5c963c"/><path d="m79.1 148.3h3.2v3.2h-3.2z" fill="#86bc3c"/><path d="m82.3 148.3h3.2v3.2h-3.2z" fill="#86bc3c"/><path d="m85.5 148.3h3.2v3.2h-3.2z" fill="#78ab3a"/><path d="m88.6 148.3h3.2v3.2h-3.2z" fill="#78ab3a"/><path d="m91.8 148.3h3.2v3.2h-3.2z" fill="#78ab3a"/><path d="m95 148.3h3.2v3.2h-3.2z" fill="#99c42d"/><path d="m98.1 148.3h3.2v3.2h-3.2z" fill="#78ab3a"/></svg>