<?xml version="1.0" encoding="utf-8"?>
<!-- Generator: Adobe Illustrator 26.0.1, SVG Export Plug-In . SVG Version: 6.00 Build 0)  -->
<svg version="1.1" id="Layer_1" shape-rendering="crispEdges"
	 xmlns="http://www.w3.org/2000/svg" xmlns:xlink="http://www.w3.org/1999/xlink" x="0px" y="0px" viewBox="0 0 4 19"
	 style="enable-background:new 0 0 4 19;" xml:space="preserve">
<style type="text/css">
	.st0{fill:#E9E9E9;}
	.st1{fill:#878787;}
	.st2{fill:#C4C4C4;}
</style>
<g>
	<rect x="0" y="0" width="1" height="1"/>
	<rect x="0" y="1" width="1" height="1"/>
	<rect x="1" y="2" width="1" height="1"/>
	<rect x="0" y="2" class="st0" width="1" height="1"/>
	<rect x="1" y="3" width="1" height="1"/>
	<rect x="0" y="3" class="st0" width="1" height="1"/>
	<rect x="1" y="4" width="1" height="1"/>
	<rect x="0" y="4" class="st0" width="1" height="1"/>
	<rect x="2" y="5" width="1" height="1"/>
	<rect x="1" y="5" class="st0" width="1" height="1"/>
	<rect x="0" y="5" class="st0" width="1" height="1"/>
	<rect x="2" y="6" width="1" height="1"/>
	<rect x="1" y="6" class="st0" width="1" height="1"/>
	<rect x="0" y="6" class="st0" width="1" height="1"/>
	<rect x="2" y="7" width="1" height="1"/>
	<rect x="1" y="7" class="st0" width="1" height="1"/>
	<rect x="0" y="7" class="st0" width="1" height="1"/>
	<rect x="3" y="8" width="1" height="1"/>
	<rect x="2" y="8" class="st0" width="1" height="1"/>
	<rect x="1" y="8" class="st0" width="1" height="1"/>
	<rect x="0" y="8" class="st0" width="1" height="1"/>
	<rect x="3" y="9" width="1" height="1"/>
	<rect x="2" y="9" class="st1" width="1" height="1"/>
	<rect x="1" y="9" class="st1" width="1" height="1"/>
	<rect y="9" class="st1" width="1" height="1"/>
	<rect x="3" y="10" width="1" height="1"/>
	<rect x="2" y="10" class="st2" width="1" height="1"/>
	<rect x="1" y="10" class="st2" width="1" height="1"/>
	<rect x="0" y="10" class="st2" width="1" height="1"/>
	<rect x="2" y="11" width="1" height="1"/>
	<rect x="1" y="11" class="st2" width="1" height="1"/>
	<rect x="0" y="11" class="st2" width="1" height="1"/>
	<rect x="2" y="12" width="1" height="1"/>
	<rect x="1" y="12" class="st2" width="1" height="1"/>
	<rect x="0" y="12" class="st2" width="1" height="1"/>
	<rect x="2" y="13" width="1" height="1"/>
	<rect x="1" y="13" class="st2" width="1" height="1"/>
	<rect x="0" y="13" class="st2" width="1" height="1"/>
	<rect x="1" y="14" width="1" height="1"/>
	<rect x="0" y="14" class="st2" width="1" height="1"/>
	<rect x="1" y="15" width="1" height="1"/>
	<rect x="0" y="15" class="st2" width="1" height="1"/>
	<rect x="1" y="16" width="1" height="1"/>
	<rect x="0" y="16" class="st2" width="1" height="1"/>
	<rect x="0" y="17" width="1" height="1"/>
	<rect x="0" y="18" width="1" height="1"/>
</g>
</svg>
