<?xml version="1.0" encoding="UTF-8" ?>
<svg version="1.1" id="Layer_1" shape-rendering="crispEdges"
	 xmlns="http://www.w3.org/2000/svg" xmlns:xlink="http://www.w3.org/1999/xlink" x="0px" y="0px" viewBox="0 0 4 19"
	 style="enable-background:new 0 0 4 19;" xml:space="preserve">
<rect x="3" y="0" width="1" height="1" fill="#000000" />
<rect x="3" y="1" width="1" height="1" fill="#000000" />
<rect x="2" y="2" width="1" height="1" fill="#000000" />
<rect x="3" y="2" width="1" height="1" fill="#E9E9E9" />
<rect x="2" y="3" width="1" height="1" fill="#000000" />
<rect x="3" y="3" width="1" height="1" fill="#E9E9E9" />
<rect x="2" y="4" width="1" height="1" fill="#000000" />
<rect x="3" y="4" width="1" height="1" fill="#E9E9E9" />
<rect x="1" y="5" width="1" height="1" fill="#000000" />
<rect x="2" y="5" width="1" height="1" fill="#E9E9E9" />
<rect x="3" y="5" width="1" height="1" fill="#E9E9E9" />
<rect x="1" y="6" width="1" height="1" fill="#000000" />
<rect x="2" y="6" width="1" height="1" fill="#E9E9E9" />
<rect x="3" y="6" width="1" height="1" fill="#E9E9E9" />
<rect x="1" y="7" width="1" height="1" fill="#000000" />
<rect x="2" y="7" width="1" height="1" fill="#E9E9E9" />
<rect x="3" y="7" width="1" height="1" fill="#E9E9E9" />
<rect x="0" y="8" width="1" height="1" fill="#000000" />
<rect x="1" y="8" width="1" height="1" fill="#E9E9E9" />
<rect x="2" y="8" width="1" height="1" fill="#E9E9E9" />
<rect x="3" y="8" width="1" height="1" fill="#E9E9E9" />
<rect x="0" y="9" width="1" height="1" fill="#000000" />
<rect x="1" y="9" width="1" height="1" fill="#878787" />
<rect x="2" y="9" width="1" height="1" fill="#878787" />
<rect x="3" y="9" width="1" height="1" fill="#878787" />
<rect x="0" y="10" width="1" height="1" fill="#000000" />
<rect x="1" y="10" width="1" height="1" fill="#C4C4C4" />
<rect x="2" y="10" width="1" height="1" fill="#C4C4C4" />
<rect x="3" y="10" width="1" height="1" fill="#C4C4C4" />
<rect x="1" y="11" width="1" height="1" fill="#000000" />
<rect x="2" y="11" width="1" height="1" fill="#C4C4C4" />
<rect x="3" y="11" width="1" height="1" fill="#C4C4C4" />
<rect x="1" y="12" width="1" height="1" fill="#000000" />
<rect x="2" y="12" width="1" height="1" fill="#C4C4C4" />
<rect x="3" y="12" width="1" height="1" fill="#C4C4C4" />
<rect x="1" y="13" width="1" height="1" fill="#000000" />
<rect x="2" y="13" width="1" height="1" fill="#C4C4C4" />
<rect x="3" y="13" width="1" height="1" fill="#C4C4C4" />
<rect x="2" y="14" width="1" height="1" fill="#000000" />
<rect x="3" y="14" width="1" height="1" fill="#C4C4C4" />
<rect x="2" y="15" width="1" height="1" fill="#000000" />
<rect x="3" y="15" width="1" height="1" fill="#C4C4C4" />
<rect x="2" y="16" width="1" height="1" fill="#000000" />
<rect x="3" y="16" width="1" height="1" fill="#C4C4C4" />
<rect x="3" y="17" width="1" height="1" fill="#000000" />
<rect x="3" y="18" width="1" height="1" fill="#000000" />
</svg>