<?xml version="1.0" encoding="UTF-8" ?>
<svg xmlns="http://www.w3.org/2000/svg" shape-rendering="crispEdges" version="1.1" width="101" height="171" viewBox="-14 -18 60 60" preserveAspectRatio="xMidYMin slice" style="width: 101px;height: 171px;overflow: visible;">	
<rect x="19" y="0" width="1" height="1" fill="#FBF236" opacity="0.023529" />
<rect x="20" y="0" width="1" height="1" fill="#FBF236" opacity="0.086275" />
<rect x="21" y="0" width="1" height="1" fill="#FBF236" opacity="0.192157" />
<rect x="22" y="0" width="1" height="1" fill="#FBF236" opacity="0.298039" />
<rect x="23" y="0" width="1" height="1" fill="#FBF236" opacity="0.345098" />
<rect x="24" y="0" width="1" height="1" fill="#FBF236" opacity="0.298039" />
<rect x="25" y="0" width="1" height="1" fill="#FBF236" opacity="0.192157" />
<rect x="26" y="0" width="1" height="1" fill="#FBF236" opacity="0.086275" />
<rect x="27" y="0" width="1" height="1" fill="#FBF236" opacity="0.023529" />
<rect x="18" y="1" width="1" height="1" fill="#FBF236" opacity="0.015686" />
<rect x="19" y="1" width="1" height="1" fill="#FBF236" opacity="0.070588" />
<rect x="20" y="1" width="1" height="1" fill="#FBF236" opacity="0.207843" />
<rect x="21" y="1" width="1" height="1" fill="#FBF236" opacity="0.486275" />
<rect x="22" y="1" width="1" height="1" fill="#FBF236" opacity="0.729412" />
<rect x="23" y="1" width="1" height="1" fill="#FBF236" opacity="0.815686" />
<rect x="24" y="1" width="1" height="1" fill="#FBF236" opacity="0.729412" />
<rect x="25" y="1" width="1" height="1" fill="#FBF236" opacity="0.494118" />
<rect x="26" y="1" width="1" height="1" fill="#FBF236" opacity="0.219608" />
<rect x="27" y="1" width="1" height="1" fill="#FBF236" opacity="0.078431" />
<rect x="28" y="1" width="1" height="1" fill="#FBF236" opacity="0.015686" />
<rect x="16" y="2" width="1" height="1" fill="#FBF236" opacity="0.007843" />
<rect x="17" y="2" width="1" height="1" fill="#FBF236" opacity="0.015686" />
<rect x="18" y="2" width="1" height="1" fill="#FBF236" opacity="0.039216" />
<rect x="19" y="2" width="1" height="1" fill="#FBF236" opacity="0.164706" />
<rect x="20" y="2" width="1" height="1" fill="#FBF236" opacity="0.486275" />
<rect x="21" y="2" width="1" height="1" fill="#FBF236" opacity="0.839216" />
<rect x="22" y="2" width="1" height="1" fill="#FBF236" opacity="0.960784" />
<rect x="23" y="2" width="1" height="1" fill="#000000" />
<rect x="24" y="2" width="1" height="1" fill="#FBF236" opacity="0.964706" />
<rect x="25" y="2" width="1" height="1" fill="#FBF236" opacity="0.850980" />
<rect x="26" y="2" width="1" height="1" fill="#FBF236" opacity="0.533333" />
<rect x="27" y="2" width="1" height="1" fill="#FBF236" opacity="0.235294" />
<rect x="28" y="2" width="1" height="1" fill="#FBF236" opacity="0.078431" />
<rect x="29" y="2" width="1" height="1" fill="#FBF236" opacity="0.015686" />
<rect x="14" y="3" width="1" height="1" fill="#FBF236" opacity="0.015686" />
<rect x="15" y="3" width="1" height="1" fill="#FBF236" opacity="0.031373" />
<rect x="16" y="3" width="1" height="1" fill="#FBF236" opacity="0.054902" />
<rect x="17" y="3" width="1" height="1" fill="#FBF236" opacity="0.078431" />
<rect x="18" y="3" width="1" height="1" fill="#FBF236" opacity="0.113725" />
<rect x="19" y="3" width="1" height="1" fill="#FBF236" opacity="0.278431" />
<rect x="20" y="3" width="1" height="1" fill="#FBF236" opacity="0.733333" />
<rect x="21" y="3" width="1" height="1" fill="#FBF236" opacity="0.968627" />
<rect x="22" y="3" width="1" height="1" fill="#000000" />
<rect x="23" y="3" width="1" height="1" fill="#B1EFFC" />
<rect x="24" y="3" width="1" height="1" fill="#000000" />
<rect x="25" y="3" width="1" height="1" fill="#FBF236" opacity="0.984314" />
<rect x="26" y="3" width="1" height="1" fill="#FBF236" opacity="0.858824" />
<rect x="27" y="3" width="1" height="1" fill="#FBF236" opacity="0.545098" />
<rect x="28" y="3" width="1" height="1" fill="#FBF236" opacity="0.235294" />
<rect x="29" y="3" width="1" height="1" fill="#FBF236" opacity="0.078431" />
<rect x="30" y="3" width="1" height="1" fill="#FBF236" opacity="0.015686" />
<rect x="13" y="4" width="1" height="1" fill="#FBF236" opacity="0.015686" />
<rect x="14" y="4" width="1" height="1" fill="#FBF236" opacity="0.070588" />
<rect x="15" y="4" width="1" height="1" fill="#FBF236" opacity="0.298039" />
<rect x="16" y="4" width="1" height="1" fill="#FBF236" opacity="0.490196" />
<rect x="17" y="4" width="1" height="1" fill="#FBF236" opacity="0.627451" />
<rect x="18" y="4" width="1" height="1" fill="#FBF236" opacity="0.537255" />
<rect x="19" y="4" width="1" height="1" fill="#FBF236" opacity="0.545098" />
<rect x="20" y="4" width="1" height="1" fill="#FBF236" opacity="0.843137" />
<rect x="21" y="4" width="1" height="1" fill="#000000" />
<rect x="22" y="4" width="1" height="1" fill="#009EBF" />
<rect x="23" y="4" width="1" height="1" fill="#5FCDE4" />
<rect x="24" y="4" width="1" height="1" fill="#B1EFFC" />
<rect x="25" y="4" width="1" height="1" fill="#000000" />
<rect x="26" y="4" width="1" height="1" fill="#FBF236" opacity="0.984314" />
<rect x="27" y="4" width="1" height="1" fill="#FBF236" opacity="0.862745" />
<rect x="28" y="4" width="1" height="1" fill="#FBF236" opacity="0.545098" />
<rect x="29" y="4" width="1" height="1" fill="#FBF236" opacity="0.235294" />
<rect x="30" y="4" width="1" height="1" fill="#FBF236" opacity="0.078431" />
<rect x="31" y="4" width="1" height="1" fill="#FBF236" opacity="0.023529" />
<rect x="12" y="5" width="1" height="1" fill="#FBF236" opacity="0.015686" />
<rect x="13" y="5" width="1" height="1" fill="#FBF236" opacity="0.070588" />
<rect x="14" y="5" width="1" height="1" fill="#FBF236" opacity="0.325490" />
<rect x="15" y="5" width="1" height="1" fill="#FBF236" opacity="0.674510" />
<rect x="16" y="5" width="1" height="1" fill="#FBF236" opacity="0.886275" />
<rect x="17" y="5" width="1" height="1" fill="#FBF236" opacity="0.941176" />
<rect x="18" y="5" width="1" height="1" fill="#FBF236" opacity="0.901961" />
<rect x="19" y="5" width="1" height="1" fill="#FBF236" opacity="0.807843" />
<rect x="20" y="5" width="1" height="1" fill="#FBF236" opacity="0.905882" />
<rect x="21" y="5" width="1" height="1" fill="#FBF236" opacity="0.984314" />
<rect x="22" y="5" width="1" height="1" fill="#000000" />
<rect x="23" y="5" width="1" height="1" fill="#009EBF" />
<rect x="24" y="5" width="1" height="1" fill="#5FCDE4" />
<rect x="25" y="5" width="1" height="1" fill="#B1EFFC" />
<rect x="26" y="5" width="1" height="1" fill="#000000" />
<rect x="27" y="5" width="1" height="1" fill="#FBF236" opacity="0.984314" />
<rect x="28" y="5" width="1" height="1" fill="#FBF236" opacity="0.858824" />
<rect x="29" y="5" width="1" height="1" fill="#FBF236" opacity="0.533333" />
<rect x="30" y="5" width="1" height="1" fill="#FBF236" opacity="0.219608" />
<rect x="31" y="5" width="1" height="1" fill="#FBF236" opacity="0.086275" />
<rect x="12" y="6" width="1" height="1" fill="#FBF236" opacity="0.031373" />
<rect x="13" y="6" width="1" height="1" fill="#FBF236" opacity="0.298039" />
<rect x="14" y="6" width="1" height="1" fill="#FBF236" opacity="0.674510" />
<rect x="15" y="6" width="1" height="1" fill="#FBF236" opacity="0.952941" />
<rect x="16" y="6" width="1" height="1" fill="#FBF236" opacity="0.996078" />
<rect x="17" y="6" width="1" height="1" fill="#000000" />
<rect x="18" y="6" width="1" height="1" fill="#FBF236" opacity="0.996078" />
<rect x="19" y="6" width="1" height="1" fill="#FBF236" opacity="0.976471" />
<rect x="20" y="6" width="1" height="1" fill="#FBF236" opacity="0.972549" />
<rect x="21" y="6" width="1" height="1" fill="#FBF236" opacity="0.988235" />
<rect x="22" y="6" width="1" height="1" fill="#FBF236" />
<rect x="23" y="6" width="1" height="1" fill="#000000" />
<rect x="24" y="6" width="1" height="1" fill="#5FCDE4" />
<rect x="25" y="6" width="1" height="1" fill="#5FCDE4" />
<rect x="26" y="6" width="1" height="1" fill="#B1EFFC" />
<rect x="27" y="6" width="1" height="1" fill="#000000" />
<rect x="28" y="6" width="1" height="1" fill="#FBF236" opacity="0.988235" />
<rect x="29" y="6" width="1" height="1" fill="#FBF236" opacity="0.850980" />
<rect x="30" y="6" width="1" height="1" fill="#FBF236" opacity="0.494118" />
<rect x="31" y="6" width="1" height="1" fill="#FBF236" opacity="0.192157" />
<rect x="11" y="7" width="1" height="1" fill="#FBF236" opacity="0.007843" />
<rect x="12" y="7" width="1" height="1" fill="#FBF236" opacity="0.054902" />
<rect x="13" y="7" width="1" height="1" fill="#FBF236" opacity="0.490196" />
<rect x="14" y="7" width="1" height="1" fill="#FBF236" opacity="0.886275" />
<rect x="15" y="7" width="1" height="1" fill="#FBF236" opacity="0.996078" />
<rect x="16" y="7" width="1" height="1" fill="#000000" />
<rect x="17" y="7" width="1" height="1" fill="#FFFFFF" />
<rect x="18" y="7" width="1" height="1" fill="#000000" />
<rect x="19" y="7" width="1" height="1" fill="#FBF236" />
<rect x="20" y="7" width="1" height="1" fill="#FBF236" />
<rect x="21" y="7" width="1" height="1" fill="#FBF236" />
<rect x="22" y="7" width="1" height="1" fill="#000000" />
<rect x="23" y="7" width="1" height="1" fill="#5FCDE4" />
<rect x="24" y="7" width="1" height="1" fill="#5FCDE4" />
<rect x="25" y="7" width="1" height="1" fill="#009EBF" />
<rect x="26" y="7" width="1" height="1" fill="#5FCDE4" />
<rect x="27" y="7" width="1" height="1" fill="#B1EFFC" />
<rect x="28" y="7" width="1" height="1" fill="#000000" />
<rect x="29" y="7" width="1" height="1" fill="#FBF236" opacity="0.976471" />
<rect x="30" y="7" width="1" height="1" fill="#FBF236" opacity="0.792157" />
<rect x="31" y="7" width="1" height="1" fill="#FBF236" opacity="0.419608" />
<rect x="11" y="8" width="1" height="1" fill="#FBF236" opacity="0.007843" />
<rect x="12" y="8" width="1" height="1" fill="#FBF236" opacity="0.070588" />
<rect x="13" y="8" width="1" height="1" fill="#FBF236" opacity="0.627451" />
<rect x="14" y="8" width="1" height="1" fill="#FBF236" opacity="0.941176" />
<rect x="15" y="8" width="1" height="1" fill="#000000" />
<rect x="16" y="8" width="1" height="1" fill="#000000" />
<rect x="17" y="8" width="1" height="1" fill="#B1EFFC" />
<rect x="18" y="8" width="1" height="1" fill="#FFFFFF" />
<rect x="19" y="8" width="1" height="1" fill="#000000" />
<rect x="20" y="8" width="1" height="1" fill="#FBF236" />
<rect x="21" y="8" width="1" height="1" fill="#000000" />
<rect x="22" y="8" width="1" height="1" fill="#5FCDE4" />
<rect x="23" y="8" width="1" height="1" fill="#5FCDE4" />
<rect x="24" y="8" width="1" height="1" fill="#009EBF" />
<rect x="25" y="8" width="1" height="1" fill="#000000" />
<rect x="26" y="8" width="1" height="1" fill="#009EBF" />
<rect x="27" y="8" width="1" height="1" fill="#5FCDE4" />
<rect x="28" y="8" width="1" height="1" fill="#009EBF" />
<rect x="29" y="8" width="1" height="1" fill="#000000" />
<rect x="30" y="8" width="1" height="1" fill="#FBF236" opacity="0.862745" />
<rect x="31" y="8" width="1" height="1" fill="#FBF236" opacity="0.458824" />
<rect x="11" y="9" width="1" height="1" fill="#FBF236" opacity="0.007843" />
<rect x="12" y="9" width="1" height="1" fill="#FBF236" opacity="0.062745" />
<rect x="13" y="9" width="1" height="1" fill="#FBF236" opacity="0.501961" />
<rect x="14" y="9" width="1" height="1" fill="#FBF236" opacity="0.894118" />
<rect x="15" y="9" width="1" height="1" fill="#FBF236" opacity="0.996078" />
<rect x="16" y="9" width="1" height="1" fill="#000000" />
<rect x="17" y="9" width="1" height="1" fill="#000000" />
<rect x="18" y="9" width="1" height="1" fill="#B1EFFC" />
<rect x="19" y="9" width="1" height="1" fill="#D4F5FC" />
<rect x="20" y="9" width="1" height="1" fill="#000000" />
<rect x="21" y="9" width="1" height="1" fill="#5FCDE4" />
<rect x="22" y="9" width="1" height="1" fill="#5FCDE4" />
<rect x="23" y="9" width="1" height="1" fill="#009EBF" />
<rect x="24" y="9" width="1" height="1" fill="#000000" />
<rect x="25" y="9" width="1" height="1" fill="#FBF236" />
<rect x="26" y="9" width="1" height="1" fill="#000000" />
<rect x="27" y="9" width="1" height="1" fill="#009EBF" />
<rect x="28" y="9" width="1" height="1" fill="#000000" />
<rect x="29" y="9" width="1" height="1" fill="#FBF236" opacity="0.988235" />
<rect x="30" y="9" width="1" height="1" fill="#FBF236" opacity="0.843137" />
<rect x="31" y="9" width="1" height="1" fill="#FBF236" opacity="0.419608" />
<rect x="11" y="10" width="1" height="1" fill="#FBF236" opacity="0.007843" />
<rect x="12" y="10" width="1" height="1" fill="#FBF236" opacity="0.054902" />
<rect x="13" y="10" width="1" height="1" fill="#FBF236" opacity="0.368627" />
<rect x="14" y="10" width="1" height="1" fill="#FBF236" opacity="0.803922" />
<rect x="15" y="10" width="1" height="1" fill="#FBF236" opacity="0.984314" />
<rect x="16" y="10" width="1" height="1" fill="#FBF236" />
<rect x="17" y="10" width="1" height="1" fill="#000000" />
<rect x="18" y="10" width="1" height="1" fill="#000000" />
<rect x="19" y="10" width="1" height="1" fill="#5FCDE4" />
<rect x="20" y="10" width="1" height="1" fill="#D4F5FC" />
<rect x="21" y="10" width="1" height="1" fill="#000000" />
<rect x="22" y="10" width="1" height="1" fill="#009EBF" />
<rect x="23" y="10" width="1" height="1" fill="#000000" />
<rect x="24" y="10" width="1" height="1" fill="#FBF236" opacity="0.996078" />
<rect x="25" y="10" width="1" height="1" fill="#FBF236" opacity="0.984314" />
<rect x="26" y="10" width="1" height="1" fill="#FBF236" opacity="0.984314" />
<rect x="27" y="10" width="1" height="1" fill="#000000" />
<rect x="28" y="10" width="1" height="1" fill="#FBF236" opacity="0.980392" />
<rect x="29" y="10" width="1" height="1" fill="#FBF236" opacity="0.878431" />
<rect x="30" y="10" width="1" height="1" fill="#FBF236" opacity="0.584314" />
<rect x="31" y="10" width="1" height="1" fill="#FBF236" opacity="0.192157" />
<rect x="11" y="11" width="1" height="1" fill="#FBF236" opacity="0.023529" />
<rect x="12" y="11" width="1" height="1" fill="#FBF236" opacity="0.098039" />
<rect x="13" y="11" width="1" height="1" fill="#FBF236" opacity="0.290196" />
<rect x="14" y="11" width="1" height="1" fill="#FBF236" opacity="0.760784" />
<rect x="15" y="11" width="1" height="1" fill="#FBF236" opacity="0.972549" />
<rect x="16" y="11" width="1" height="1" fill="#FBF236" />
<rect x="17" y="11" width="1" height="1" fill="#000000" />
<rect x="18" y="11" width="1" height="1" fill="#D4F5FC" />
<rect x="19" y="11" width="1" height="1" fill="#000000" />
<rect x="20" y="11" width="1" height="1" fill="#009EBF" />
<rect x="21" y="11" width="1" height="1" fill="#D4F5FC" />
<rect x="22" y="11" width="1" height="1" fill="#000000" />
<rect x="23" y="11" width="1" height="1" fill="#FBF236" />
<rect x="24" y="11" width="1" height="1" fill="#FBF236" opacity="0.996078" />
<rect x="25" y="11" width="1" height="1" fill="#FBF236" opacity="0.956863" />
<rect x="26" y="11" width="1" height="1" fill="#FBF236" opacity="0.905882" />
<rect x="27" y="11" width="1" height="1" fill="#FBF236" opacity="0.843137" />
<rect x="28" y="11" width="1" height="1" fill="#FBF236" opacity="0.788235" />
<rect x="29" y="11" width="1" height="1" fill="#FBF236" opacity="0.584314" />
<rect x="30" y="11" width="1" height="1" fill="#FBF236" opacity="0.325490" />
<rect x="31" y="11" width="1" height="1" fill="#FBF236" opacity="0.086275" />
<rect x="10" y="12" width="1" height="1" fill="#FBF236" opacity="0.015686" />
<rect x="11" y="12" width="1" height="1" fill="#FBF236" opacity="0.078431" />
<rect x="12" y="12" width="1" height="1" fill="#FBF236" opacity="0.345098" />
<rect x="13" y="12" width="1" height="1" fill="#FBF236" opacity="0.635294" />
<rect x="14" y="12" width="1" height="1" fill="#FBF236" opacity="0.933333" />
<rect x="15" y="12" width="1" height="1" fill="#FBF236" opacity="0.996078" />
<rect x="16" y="12" width="1" height="1" fill="#000000" />
<rect x="17" y="12" width="1" height="1" fill="#D4F5FC" />
<rect x="18" y="12" width="1" height="1" fill="#5FCDE4" />
<rect x="19" y="12" width="1" height="1" fill="#009EBF" />
<rect x="20" y="12" width="1" height="1" fill="#000000" />
<rect x="21" y="12" width="1" height="1" fill="#5FCDE4" />
<rect x="22" y="12" width="1" height="1" fill="#D4F5FC" />
<rect x="23" y="12" width="1" height="1" fill="#000000" />
<rect x="24" y="12" width="1" height="1" fill="#FBF236" opacity="0.996078" />
<rect x="25" y="12" width="1" height="1" fill="#FBF236" opacity="0.964706" />
<rect x="26" y="12" width="1" height="1" fill="#FBF236" opacity="0.807843" />
<rect x="27" y="12" width="1" height="1" fill="#FBF236" opacity="0.545098" />
<rect x="28" y="12" width="1" height="1" fill="#FBF236" opacity="0.278431" />
<rect x="29" y="12" width="1" height="1" fill="#FBF236" opacity="0.164706" />
<rect x="30" y="12" width="1" height="1" fill="#FBF236" opacity="0.070588" />
<rect x="31" y="12" width="1" height="1" fill="#FBF236" opacity="0.023529" />
<rect x="9" y="13" width="1" height="1" fill="#FBF236" opacity="0.015686" />
<rect x="10" y="13" width="1" height="1" fill="#FBF236" opacity="0.078431" />
<rect x="11" y="13" width="1" height="1" fill="#FBF236" opacity="0.345098" />
<rect x="12" y="13" width="1" height="1" fill="#FBF236" opacity="0.698039" />
<rect x="13" y="13" width="1" height="1" fill="#FBF236" opacity="0.929412" />
<rect x="14" y="13" width="1" height="1" fill="#FBF236" opacity="0.992157" />
<rect x="15" y="13" width="1" height="1" fill="#000000" />
<rect x="16" y="13" width="1" height="1" fill="#FFFFFF" />
<rect x="17" y="13" width="1" height="1" fill="#5FCDE4" />
<rect x="18" y="13" width="1" height="1" fill="#009EBF" />
<rect x="19" y="13" width="1" height="1" fill="#5FCDE4" />
<rect x="20" y="13" width="1" height="1" fill="#D4F5FC" />
<rect x="21" y="13" width="1" height="1" fill="#000000" />
<rect x="22" y="13" width="1" height="1" fill="#B1EFFC" />
<rect x="23" y="13" width="1" height="1" fill="#FFFFFF" />
<rect x="24" y="13" width="1" height="1" fill="#000000" />
<rect x="25" y="13" width="1" height="1" fill="#FBF236" opacity="0.996078" />
<rect x="26" y="13" width="1" height="1" fill="#FBF236" opacity="0.901961" />
<rect x="27" y="13" width="1" height="1" fill="#FBF236" opacity="0.537255" />
<rect x="28" y="13" width="1" height="1" fill="#FBF236" opacity="0.113725" />
<rect x="29" y="13" width="1" height="1" fill="#FBF236" opacity="0.039216" />
<rect x="30" y="13" width="1" height="1" fill="#FBF236" opacity="0.015686" />
<rect x="8" y="14" width="1" height="1" fill="#FBF236" opacity="0.015686" />
<rect x="9" y="14" width="1" height="1" fill="#FBF236" opacity="0.078431" />
<rect x="10" y="14" width="1" height="1" fill="#FBF236" opacity="0.345098" />
<rect x="11" y="14" width="1" height="1" fill="#FBF236" opacity="0.694118" />
<rect x="12" y="14" width="1" height="1" fill="#FBF236" opacity="0.952941" />
<rect x="13" y="14" width="1" height="1" fill="#FBF236" opacity="0.996078" />
<rect x="14" y="14" width="1" height="1" fill="#000000" />
<rect x="15" y="14" width="1" height="1" fill="#D4F5FC" />
<rect x="16" y="14" width="1" height="1" fill="#5FCDE4" />
<rect x="17" y="14" width="1" height="1" fill="#009EBF" />
<rect x="18" y="14" width="1" height="1" fill="#5FCDE4" />
<rect x="19" y="14" width="1" height="1" fill="#D4F5FC" />
<rect x="20" y="14" width="1" height="1" fill="#000000" />
<rect x="21" y="14" width="1" height="1" fill="#000000" />
<rect x="22" y="14" width="1" height="1" fill="#000000" />
<rect x="23" y="14" width="1" height="1" fill="#B1EFFC" />
<rect x="24" y="14" width="1" height="1" fill="#FFFFFF" />
<rect x="25" y="14" width="1" height="1" fill="#000000" />
<rect x="26" y="14" width="1" height="1" fill="#FBF236" opacity="0.941176" />
<rect x="27" y="14" width="1" height="1" fill="#FBF236" opacity="0.627451" />
<rect x="28" y="14" width="1" height="1" fill="#FBF236" opacity="0.078431" />
<rect x="29" y="14" width="1" height="1" fill="#FBF236" opacity="0.015686" />
<rect x="7" y="15" width="1" height="1" fill="#FBF236" opacity="0.015686" />
<rect x="8" y="15" width="1" height="1" fill="#FBF236" opacity="0.078431" />
<rect x="9" y="15" width="1" height="1" fill="#FBF236" opacity="0.345098" />
<rect x="10" y="15" width="1" height="1" fill="#FBF236" opacity="0.694118" />
<rect x="11" y="15" width="1" height="1" fill="#FBF236" opacity="0.952941" />
<rect x="12" y="15" width="1" height="1" fill="#FBF236" opacity="0.996078" />
<rect x="13" y="15" width="1" height="1" fill="#000000" />
<rect x="14" y="15" width="1" height="1" fill="#D4F5FC" />
<rect x="15" y="15" width="1" height="1" fill="#5FCDE4" />
<rect x="16" y="15" width="1" height="1" fill="#000000" />
<rect x="17" y="15" width="1" height="1" fill="#5FCDE4" />
<rect x="18" y="15" width="1" height="1" fill="#D4F5FC" />
<rect x="19" y="15" width="1" height="1" fill="#000000" />
<rect x="20" y="15" width="1" height="1" fill="#FBF236" />
<rect x="21" y="15" width="1" height="1" fill="#FBF236" />
<rect x="22" y="15" width="1" height="1" fill="#000000" />
<rect x="23" y="15" width="1" height="1" fill="#000000" />
<rect x="24" y="15" width="1" height="1" fill="#000000" />
<rect x="25" y="15" width="1" height="1" fill="#FBF236" opacity="0.996078" />
<rect x="26" y="15" width="1" height="1" fill="#FBF236" opacity="0.886275" />
<rect x="27" y="15" width="1" height="1" fill="#FBF236" opacity="0.490196" />
<rect x="28" y="15" width="1" height="1" fill="#FBF236" opacity="0.054902" />
<rect x="29" y="15" width="1" height="1" fill="#FBF236" opacity="0.007843" />
<rect x="6" y="16" width="1" height="1" fill="#FBF236" opacity="0.015686" />
<rect x="7" y="16" width="1" height="1" fill="#FBF236" opacity="0.078431" />
<rect x="8" y="16" width="1" height="1" fill="#FBF236" opacity="0.235294" />
<rect x="9" y="16" width="1" height="1" fill="#FBF236" opacity="0.619608" />
<rect x="10" y="16" width="1" height="1" fill="#FBF236" opacity="0.929412" />
<rect x="11" y="16" width="1" height="1" fill="#FBF236" opacity="0.996078" />
<rect x="12" y="16" width="1" height="1" fill="#000000" />
<rect x="13" y="16" width="1" height="1" fill="#DF7126" />
<rect x="14" y="16" width="1" height="1" fill="#FFD700" />
<rect x="15" y="16" width="1" height="1" fill="#DF7126" />
<rect x="16" y="16" width="1" height="1" fill="#DF7126" />
<rect x="17" y="16" width="1" height="1" fill="#000000" />
<rect x="18" y="16" width="1" height="1" fill="#000000" />
<rect x="19" y="16" width="1" height="1" fill="#FBF236" opacity="0.996078" />
<rect x="20" y="16" width="1" height="1" fill="#FBF236" opacity="0.980392" />
<rect x="21" y="16" width="1" height="1" fill="#FBF236" opacity="0.968627" />
<rect x="22" y="16" width="1" height="1" fill="#FBF236" opacity="0.992157" />
<rect x="23" y="16" width="1" height="1" fill="#000000" />
<rect x="24" y="16" width="1" height="1" fill="#FBF236" opacity="0.996078" />
<rect x="25" y="16" width="1" height="1" fill="#FBF236" opacity="0.952941" />
<rect x="26" y="16" width="1" height="1" fill="#FBF236" opacity="0.674510" />
<rect x="27" y="16" width="1" height="1" fill="#FBF236" opacity="0.298039" />
<rect x="28" y="16" width="1" height="1" fill="#FBF236" opacity="0.031373" />
<rect x="5" y="17" width="1" height="1" fill="#FBF236" opacity="0.015686" />
<rect x="6" y="17" width="1" height="1" fill="#FBF236" opacity="0.078431" />
<rect x="7" y="17" width="1" height="1" fill="#FBF236" opacity="0.235294" />
<rect x="8" y="17" width="1" height="1" fill="#FBF236" opacity="0.545098" />
<rect x="9" y="17" width="1" height="1" fill="#FBF236" opacity="0.898039" />
<rect x="10" y="17" width="1" height="1" fill="#FBF236" opacity="0.992157" />
<rect x="11" y="17" width="1" height="1" fill="#000000" />
<rect x="12" y="17" width="1" height="1" fill="#DF7126" />
<rect x="13" y="17" width="1" height="1" fill="#FFD700" />
<rect x="14" y="17" width="1" height="1" fill="#000000" />
<rect x="15" y="17" width="1" height="1" fill="#DF7126" />
<rect x="16" y="17" width="1" height="1" fill="#DF7126" />
<rect x="17" y="17" width="1" height="1" fill="#000000" />
<rect x="18" y="17" width="1" height="1" fill="#FBF236" opacity="0.996078" />
<rect x="19" y="17" width="1" height="1" fill="#FBF236" opacity="0.949020" />
<rect x="20" y="17" width="1" height="1" fill="#FBF236" opacity="0.815686" />
<rect x="21" y="17" width="1" height="1" fill="#FBF236" opacity="0.733333" />
<rect x="22" y="17" width="1" height="1" fill="#FBF236" opacity="0.847059" />
<rect x="23" y="17" width="1" height="1" fill="#FBF236" opacity="0.905882" />
<rect x="24" y="17" width="1" height="1" fill="#FBF236" opacity="0.886275" />
<rect x="25" y="17" width="1" height="1" fill="#FBF236" opacity="0.674510" />
<rect x="26" y="17" width="1" height="1" fill="#FBF236" opacity="0.325490" />
<rect x="27" y="17" width="1" height="1" fill="#FBF236" opacity="0.070588" />
<rect x="28" y="17" width="1" height="1" fill="#FBF236" opacity="0.015686" />
<rect x="4" y="18" width="1" height="1" fill="#FBF236" opacity="0.015686" />
<rect x="5" y="18" width="1" height="1" fill="#FBF236" opacity="0.070588" />
<rect x="6" y="18" width="1" height="1" fill="#FBF236" opacity="0.227451" />
<rect x="7" y="18" width="1" height="1" fill="#FBF236" opacity="0.537255" />
<rect x="8" y="18" width="1" height="1" fill="#FBF236" opacity="0.858824" />
<rect x="9" y="18" width="1" height="1" fill="#FBF236" opacity="0.984314" />
<rect x="10" y="18" width="1" height="1" fill="#000000" />
<rect x="11" y="18" width="1" height="1" fill="#DF7126" />
<rect x="12" y="18" width="1" height="1" fill="#FFD700" />
<rect x="13" y="18" width="1" height="1" fill="#DF7126" />
<rect x="14" y="18" width="1" height="1" fill="#DF7126" />
<rect x="15" y="18" width="1" height="1" fill="#000000" />
<rect x="16" y="18" width="1" height="1" fill="#000000" />
<rect x="17" y="18" width="1" height="1" fill="#FBF236" opacity="0.996078" />
<rect x="18" y="18" width="1" height="1" fill="#FBF236" opacity="0.952941" />
<rect x="19" y="18" width="1" height="1" fill="#FBF236" opacity="0.705882" />
<rect x="20" y="18" width="1" height="1" fill="#FBF236" opacity="0.396078" />
<rect x="21" y="18" width="1" height="1" fill="#FBF236" opacity="0.235294" />
<rect x="22" y="18" width="1" height="1" fill="#FBF236" opacity="0.384314" />
<rect x="23" y="18" width="1" height="1" fill="#FBF236" opacity="0.525490" />
<rect x="24" y="18" width="1" height="1" fill="#FBF236" opacity="0.490196" />
<rect x="25" y="18" width="1" height="1" fill="#FBF236" opacity="0.298039" />
<rect x="26" y="18" width="1" height="1" fill="#FBF236" opacity="0.070588" />
<rect x="27" y="18" width="1" height="1" fill="#FBF236" opacity="0.015686" />
<rect x="3" y="19" width="1" height="1" fill="#FBF236" opacity="0.007843" />
<rect x="4" y="19" width="1" height="1" fill="#FBF236" opacity="0.054902" />
<rect x="5" y="19" width="1" height="1" fill="#FBF236" opacity="0.192157" />
<rect x="6" y="19" width="1" height="1" fill="#FBF236" opacity="0.517647" />
<rect x="7" y="19" width="1" height="1" fill="#FBF236" opacity="0.854902" />
<rect x="8" y="19" width="1" height="1" fill="#FBF236" opacity="0.984314" />
<rect x="9" y="19" width="1" height="1" fill="#000000" />
<rect x="10" y="19" width="1" height="1" fill="#DF7126" />
<rect x="11" y="19" width="1" height="1" fill="#FFD700" />
<rect x="12" y="19" width="1" height="1" fill="#000000" />
<rect x="13" y="19" width="1" height="1" fill="#DF7126" />
<rect x="14" y="19" width="1" height="1" fill="#DF7126" />
<rect x="15" y="19" width="1" height="1" fill="#000000" />
<rect x="16" y="19" width="1" height="1" fill="#FBF236" opacity="0.996078" />
<rect x="17" y="19" width="1" height="1" fill="#FBF236" opacity="0.952941" />
<rect x="18" y="19" width="1" height="1" fill="#FBF236" opacity="0.698039" />
<rect x="19" y="19" width="1" height="1" fill="#FBF236" opacity="0.345098" />
<rect x="20" y="19" width="1" height="1" fill="#FBF236" opacity="0.098039" />
<rect x="21" y="19" width="1" height="1" fill="#FBF236" opacity="0.054902" />
<rect x="22" y="19" width="1" height="1" fill="#FBF236" opacity="0.062745" />
<rect x="23" y="19" width="1" height="1" fill="#FBF236" opacity="0.070588" />
<rect x="24" y="19" width="1" height="1" fill="#FBF236" opacity="0.054902" />
<rect x="25" y="19" width="1" height="1" fill="#FBF236" opacity="0.031373" />
<rect x="26" y="19" width="1" height="1" fill="#FBF236" opacity="0.015686" />
<rect x="3" y="20" width="1" height="1" fill="#FBF236" opacity="0.023529" />
<rect x="4" y="20" width="1" height="1" fill="#FBF236" opacity="0.113725" />
<rect x="5" y="20" width="1" height="1" fill="#FBF236" opacity="0.447059" />
<rect x="6" y="20" width="1" height="1" fill="#FBF236" opacity="0.827451" />
<rect x="7" y="20" width="1" height="1" fill="#FBF236" opacity="0.984314" />
<rect x="8" y="20" width="1" height="1" fill="#000000" />
<rect x="9" y="20" width="1" height="1" fill="#DF7126" />
<rect x="10" y="20" width="1" height="1" fill="#FFD700" />
<rect x="11" y="20" width="1" height="1" fill="#DF7126" />
<rect x="12" y="20" width="1" height="1" fill="#DF7126" />
<rect x="13" y="20" width="1" height="1" fill="#000000" />
<rect x="14" y="20" width="1" height="1" fill="#000000" />
<rect x="15" y="20" width="1" height="1" fill="#FBF236" opacity="0.992157" />
<rect x="16" y="20" width="1" height="1" fill="#FBF236" opacity="0.929412" />
<rect x="17" y="20" width="1" height="1" fill="#FBF236" opacity="0.694118" />
<rect x="18" y="20" width="1" height="1" fill="#FBF236" opacity="0.345098" />
<rect x="19" y="20" width="1" height="1" fill="#FBF236" opacity="0.078431" />
<rect x="20" y="20" width="1" height="1" fill="#FBF236" opacity="0.023529" />
<rect x="21" y="20" width="1" height="1" fill="#FBF236" opacity="0.007843" />
<rect x="22" y="20" width="1" height="1" fill="#FBF236" opacity="0.007843" />
<rect x="23" y="20" width="1" height="1" fill="#FBF236" opacity="0.007843" />
<rect x="24" y="20" width="1" height="1" fill="#FBF236" opacity="0.007843" />
<rect x="2" y="21" width="1" height="1" fill="#FBF236" opacity="0.007843" />
<rect x="3" y="21" width="1" height="1" fill="#FBF236" opacity="0.062745" />
<rect x="4" y="21" width="1" height="1" fill="#FBF236" opacity="0.349020" />
<rect x="5" y="21" width="1" height="1" fill="#FBF236" opacity="0.745098" />
<rect x="6" y="21" width="1" height="1" fill="#FBF236" opacity="0.972549" />
<rect x="7" y="21" width="1" height="1" fill="#000000" />
<rect x="8" y="21" width="1" height="1" fill="#DF7126" />
<rect x="9" y="21" width="1" height="1" fill="#FFD700" />
<rect x="10" y="21" width="1" height="1" fill="#000000" />
<rect x="11" y="21" width="1" height="1" fill="#DF7126" />
<rect x="12" y="21" width="1" height="1" fill="#DF7126" />
<rect x="13" y="21" width="1" height="1" fill="#000000" />
<rect x="14" y="21" width="1" height="1" fill="#FBF236" opacity="0.980392" />
<rect x="15" y="21" width="1" height="1" fill="#FBF236" opacity="0.898039" />
<rect x="16" y="21" width="1" height="1" fill="#FBF236" opacity="0.619608" />
<rect x="17" y="21" width="1" height="1" fill="#FBF236" opacity="0.345098" />
<rect x="18" y="21" width="1" height="1" fill="#FBF236" opacity="0.078431" />
<rect x="19" y="21" width="1" height="1" fill="#FBF236" opacity="0.015686" />
<rect x="2" y="22" width="1" height="1" fill="#FBF236" opacity="0.031373" />
<rect x="3" y="22" width="1" height="1" fill="#FBF236" opacity="0.129412" />
<rect x="4" y="22" width="1" height="1" fill="#FBF236" opacity="0.560784" />
<rect x="5" y="22" width="1" height="1" fill="#FBF236" opacity="0.909804" />
<rect x="6" y="22" width="1" height="1" fill="#FBF236" opacity="0.996078" />
<rect x="7" y="22" width="1" height="1" fill="#000000" />
<rect x="8" y="22" width="1" height="1" fill="#FFD700" />
<rect x="9" y="22" width="1" height="1" fill="#DF7126" />
<rect x="10" y="22" width="1" height="1" fill="#DF7126" />
<rect x="11" y="22" width="1" height="1" fill="#000000" />
<rect x="12" y="22" width="1" height="1" fill="#000000" />
<rect x="13" y="22" width="1" height="1" fill="#FBF236" opacity="0.976471" />
<rect x="14" y="22" width="1" height="1" fill="#FBF236" opacity="0.839216" />
<rect x="15" y="22" width="1" height="1" fill="#FBF236" opacity="0.545098" />
<rect x="16" y="22" width="1" height="1" fill="#FBF236" opacity="0.235294" />
<rect x="17" y="22" width="1" height="1" fill="#FBF236" opacity="0.078431" />
<rect x="18" y="22" width="1" height="1" fill="#FBF236" opacity="0.015686" />
<rect x="1" y="23" width="1" height="1" fill="#FBF236" opacity="0.015686" />
<rect x="2" y="23" width="1" height="1" fill="#FBF236" opacity="0.090196" />
<rect x="3" y="23" width="1" height="1" fill="#FBF236" opacity="0.376471" />
<rect x="4" y="23" width="1" height="1" fill="#FBF236" opacity="0.819608" />
<rect x="5" y="23" width="1" height="1" fill="#FBF236" opacity="0.980392" />
<rect x="6" y="23" width="1" height="1" fill="#000000" />
<rect x="7" y="23" width="1" height="1" fill="#DF7126" />
<rect x="8" y="23" width="1" height="1" fill="#DF7126" />
<rect x="9" y="23" width="1" height="1" fill="#DF7126" />
<rect x="10" y="23" width="1" height="1" fill="#DF7126" />
<rect x="11" y="23" width="1" height="1" fill="#000000" />
<rect x="12" y="23" width="1" height="1" fill="#FBF236" opacity="0.968627" />
<rect x="13" y="23" width="1" height="1" fill="#FBF236" opacity="0.811765" />
<rect x="14" y="23" width="1" height="1" fill="#FBF236" opacity="0.486275" />
<rect x="15" y="23" width="1" height="1" fill="#FBF236" opacity="0.235294" />
<rect x="16" y="23" width="1" height="1" fill="#FBF236" opacity="0.078431" />
<rect x="17" y="23" width="1" height="1" fill="#FBF236" opacity="0.015686" />
<rect x="0" y="24" width="1" height="1" fill="#FBF236" opacity="0.023529" />
<rect x="1" y="24" width="1" height="1" fill="#FBF236" opacity="0.078431" />
<rect x="2" y="24" width="1" height="1" fill="#FBF236" opacity="0.235294" />
<rect x="3" y="24" width="1" height="1" fill="#FBF236" opacity="0.635294" />
<rect x="4" y="24" width="1" height="1" fill="#FBF236" opacity="0.933333" />
<rect x="5" y="24" width="1" height="1" fill="#FBF236" opacity="0.996078" />
<rect x="6" y="24" width="1" height="1" fill="#000000" />
<rect x="7" y="24" width="1" height="1" fill="#DF7126" />
<rect x="8" y="24" width="1" height="1" fill="#DF7126" />
<rect x="9" y="24" width="1" height="1" fill="#000000" />
<rect x="10" y="24" width="1" height="1" fill="#000000" />
<rect x="11" y="24" width="1" height="1" fill="#FBF236" opacity="0.960784" />
<rect x="12" y="24" width="1" height="1" fill="#FBF236" opacity="0.803922" />
<rect x="13" y="24" width="1" height="1" fill="#FBF236" opacity="0.486275" />
<rect x="14" y="24" width="1" height="1" fill="#FBF236" opacity="0.235294" />
<rect x="15" y="24" width="1" height="1" fill="#FBF236" opacity="0.078431" />
<rect x="16" y="24" width="1" height="1" fill="#FBF236" opacity="0.015686" />
<rect x="0" y="25" width="1" height="1" fill="#FBF236" opacity="0.090196" />
<rect x="1" y="25" width="1" height="1" fill="#FBF236" opacity="0.219608" />
<rect x="2" y="25" width="1" height="1" fill="#FBF236" opacity="0.533333" />
<rect x="3" y="25" width="1" height="1" fill="#FBF236" opacity="0.894118" />
<rect x="4" y="25" width="1" height="1" fill="#FBF236" opacity="0.992157" />
<rect x="5" y="25" width="1" height="1" fill="#000000" />
<rect x="6" y="25" width="1" height="1" fill="#DF7126" />
<rect x="7" y="25" width="1" height="1" fill="#000000" />
<rect x="8" y="25" width="1" height="1" fill="#000000" />
<rect x="9" y="25" width="1" height="1" fill="#FBF236" opacity="0.984314" />
<rect x="10" y="25" width="1" height="1" fill="#FBF236" opacity="0.917647" />
<rect x="11" y="25" width="1" height="1" fill="#FBF236" opacity="0.752941" />
<rect x="12" y="25" width="1" height="1" fill="#FBF236" opacity="0.462745" />
<rect x="13" y="25" width="1" height="1" fill="#FBF236" opacity="0.227451" />
<rect x="14" y="25" width="1" height="1" fill="#FBF236" opacity="0.078431" />
<rect x="15" y="25" width="1" height="1" fill="#FBF236" opacity="0.015686" />
<rect x="0" y="26" width="1" height="1" fill="#FBF236" opacity="0.219608" />
<rect x="1" y="26" width="1" height="1" fill="#FBF236" opacity="0.435294" />
<rect x="2" y="26" width="1" height="1" fill="#FBF236" opacity="0.819608" />
<rect x="3" y="26" width="1" height="1" fill="#FBF236" opacity="0.980392" />
<rect x="4" y="26" width="1" height="1" fill="#000000" />
<rect x="5" y="26" width="1" height="1" fill="#000000" />
<rect x="6" y="26" width="1" height="1" fill="#000000" />
<rect x="7" y="26" width="1" height="1" fill="#FBF236" opacity="0.984314" />
<rect x="8" y="26" width="1" height="1" fill="#FBF236" opacity="0.929412" />
<rect x="9" y="26" width="1" height="1" fill="#FBF236" opacity="0.796078" />
<rect x="10" y="26" width="1" height="1" fill="#FBF236" opacity="0.584314" />
<rect x="11" y="26" width="1" height="1" fill="#FBF236" opacity="0.360784" />
<rect x="12" y="26" width="1" height="1" fill="#FBF236" opacity="0.192157" />
<rect x="13" y="26" width="1" height="1" fill="#FBF236" opacity="0.070588" />
<rect x="14" y="26" width="1" height="1" fill="#FBF236" opacity="0.015686" />
<rect x="0" y="27" width="1" height="1" fill="#FBF236" opacity="0.360784" />
<rect x="1" y="27" width="1" height="1" fill="#FBF236" opacity="0.678431" />
<rect x="2" y="27" width="1" height="1" fill="#FBF236" opacity="0.952941" />
<rect x="3" y="27" width="1" height="1" fill="#000000" />
<rect x="4" y="27" width="1" height="1" fill="#000000" />
<rect x="5" y="27" width="1" height="1" fill="#000000" />
<rect x="6" y="27" width="1" height="1" fill="#FBF236" opacity="0.968627" />
<rect x="7" y="27" width="1" height="1" fill="#FBF236" opacity="0.839216" />
<rect x="8" y="27" width="1" height="1" fill="#FBF236" opacity="0.615686" />
<rect x="9" y="27" width="1" height="1" fill="#FBF236" opacity="0.400000" />
<rect x="10" y="27" width="1" height="1" fill="#FBF236" opacity="0.239216" />
<rect x="11" y="27" width="1" height="1" fill="#FBF236" opacity="0.113725" />
<rect x="12" y="27" width="1" height="1" fill="#FBF236" opacity="0.054902" />
<rect x="13" y="27" width="1" height="1" fill="#FBF236" opacity="0.015686" />
<rect x="0" y="28" width="1" height="1" fill="#FBF236" opacity="0.454902" />
<rect x="1" y="28" width="1" height="1" fill="#FBF236" opacity="0.788235" />
<rect x="2" y="28" width="1" height="1" fill="#000000" />
<rect x="3" y="28" width="1" height="1" fill="#000000" />
<rect x="4" y="28" width="1" height="1" fill="#000000" />
<rect x="5" y="28" width="1" height="1" fill="#FBF236" opacity="0.964706" />
<rect x="6" y="28" width="1" height="1" fill="#FBF236" opacity="0.803922" />
<rect x="7" y="28" width="1" height="1" fill="#FBF236" opacity="0.501961" />
<rect x="8" y="28" width="1" height="1" fill="#FBF236" opacity="0.270588" />
<rect x="9" y="28" width="1" height="1" fill="#FBF236" opacity="0.129412" />
<rect x="10" y="28" width="1" height="1" fill="#FBF236" opacity="0.062745" />
<rect x="11" y="28" width="1" height="1" fill="#FBF236" opacity="0.023529" />
<rect x="12" y="28" width="1" height="1" fill="#FBF236" opacity="0.007843" />
<rect x="0" y="29" width="1" height="1" fill="#FBF236" opacity="0.435294" />
<rect x="1" y="29" width="1" height="1" fill="#FBF236" opacity="0.760784" />
<rect x="2" y="29" width="1" height="1" fill="#000000" />
<rect x="3" y="29" width="1" height="1" fill="#000000" />
<rect x="4" y="29" width="1" height="1" fill="#FBF236" opacity="0.941176" />
<rect x="5" y="29" width="1" height="1" fill="#FBF236" opacity="0.788235" />
<rect x="6" y="29" width="1" height="1" fill="#FBF236" opacity="0.474510" />
<rect x="7" y="29" width="1" height="1" fill="#FBF236" opacity="0.235294" />
<rect x="8" y="29" width="1" height="1" fill="#FBF236" opacity="0.090196" />
<rect x="9" y="29" width="1" height="1" fill="#FBF236" opacity="0.031373" />
<rect x="10" y="29" width="1" height="1" fill="#FBF236" opacity="0.007843" />
<rect x="0" y="30" width="1" height="1" fill="#FBF236" opacity="0.325490" />
<rect x="1" y="30" width="1" height="1" fill="#FBF236" opacity="0.572549" />
<rect x="2" y="30" width="1" height="1" fill="#FBF236" opacity="0.760784" />
<rect x="3" y="30" width="1" height="1" fill="#FBF236" opacity="0.788235" />
<rect x="4" y="30" width="1" height="1" fill="#FBF236" opacity="0.678431" />
<rect x="5" y="30" width="1" height="1" fill="#FBF236" opacity="0.435294" />
<rect x="6" y="30" width="1" height="1" fill="#FBF236" opacity="0.219608" />
<rect x="7" y="30" width="1" height="1" fill="#FBF236" opacity="0.078431" />
<rect x="8" y="30" width="1" height="1" fill="#FBF236" opacity="0.015686" />
<rect x="0" y="31" width="1" height="1" fill="#FBF236" opacity="0.211765" />
<rect x="1" y="31" width="1" height="1" fill="#FBF236" opacity="0.325490" />
<rect x="2" y="31" width="1" height="1" fill="#FBF236" opacity="0.435294" />
<rect x="3" y="31" width="1" height="1" fill="#FBF236" opacity="0.454902" />
<rect x="4" y="31" width="1" height="1" fill="#FBF236" opacity="0.360784" />
<rect x="5" y="31" width="1" height="1" fill="#FBF236" opacity="0.219608" />
<rect x="6" y="31" width="1" height="1" fill="#FBF236" opacity="0.090196" />
<rect x="7" y="31" width="1" height="1" fill="#FBF236" opacity="0.023529" />
</svg>