<?xml version="1.0" encoding="utf-8"?>
<!-- Generator: Adobe Illustrator 16.0.0, SVG Export Plug-In . SVG Version: 6.00 Build 0)  -->
<!DOCTYPE svg PUBLIC "-//W3C//DTD SVG 1.1//EN" "http://www.w3.org/Graphics/SVG/1.1/DTD/svg11.dtd">
<svg version="1.1" id="Layer_1" shape-rendering="crispEdges"
	 xmlns="http://www.w3.org/2000/svg" xmlns:xlink="http://www.w3.org/1999/xlink" x="0px" y="0px" width="101px" height="171px"
	 viewBox="0 -30 101 171" enable-background="new 0 0 101 171" xml:space="preserve">
<g>
	<rect x="39.101" y="47.55" width="2.85" height="2.85"/>
	<rect x="41.95" y="47.55" width="2.85" height="2.85"/>
	<rect x="44.8" y="47.55" width="2.851" height="2.85"/>
	<rect x="47.65" y="47.55" width="2.85" height="2.85"/>
	<rect x="50.5" y="47.55" width="2.851" height="2.85"/>
	<rect x="53.351" y="47.55" width="2.85" height="2.85"/>
	<rect x="56.2" y="47.55" width="2.85" height="2.85"/>
	<rect x="59.05" y="47.55" width="2.851" height="2.85"/>
	<rect x="61.9" y="47.55" width="2.85" height="2.85"/>
	<rect x="64.75" y="47.55" width="2.85" height="2.85"/>
	<rect x="67.6" y="47.55" width="2.851" height="2.85"/>
	<rect x="70.45" y="47.55" width="2.85" height="2.85"/>
	<rect x="73.3" y="47.55" width="2.851" height="2.85"/>
	<rect x="76.15" y="47.55" width="2.85" height="2.85"/>
	<rect x="36.25" y="50.4" width="2.851" height="2.85"/>
	<rect x="39.101" y="50.4" fill="#99E550" width="2.85" height="2.85"/>
	<rect x="41.95" y="50.4" fill="#99E550" width="2.85" height="2.85"/>
	<rect x="44.8" y="50.4" fill="#99E550" width="2.851" height="2.85"/>
	<rect x="47.65" y="50.4" fill="#99E550" width="2.85" height="2.85"/>
	<rect x="50.5" y="50.4" fill="#99E550" width="2.851" height="2.85"/>
	<rect x="53.351" y="50.4" fill="#99E550" width="2.85" height="2.85"/>
	<rect x="56.2" y="50.4" fill="#99E550" width="2.85" height="2.85"/>
	<rect x="59.05" y="50.4" fill="#99E550" width="2.851" height="2.85"/>
	<rect x="61.9" y="50.4" fill="#99E550" width="2.85" height="2.85"/>
	<rect x="64.75" y="50.4" fill="#99E550" width="2.85" height="2.85"/>
	<rect x="67.6" y="50.4" fill="#99E550" width="2.851" height="2.85"/>
	<rect x="70.45" y="50.4" fill="#99E550" width="2.85" height="2.85"/>
	<rect x="73.3" y="50.4" fill="#99E550" width="2.851" height="2.85"/>
	<rect x="76.15" y="50.4" fill="#99E550" width="2.85" height="2.85"/>
	<rect x="79" y="50.4" width="2.85" height="2.85"/>
	<rect x="81.85" y="50.4" width="2.851" height="2.85"/>
	<rect x="33.4" y="53.25" width="2.85" height="2.85"/>
	<rect x="36.25" y="53.25" width="2.851" height="2.85"/>
	<rect x="39.101" y="53.25" fill="#3288A5" width="2.85" height="2.85"/>
	<rect x="41.95" y="53.25" fill="#3288A5" width="2.85" height="2.85"/>
	<rect x="44.8" y="53.25" fill="#3288A5" width="2.851" height="2.85"/>
	<rect x="47.65" y="53.25" fill="#3288A5" width="2.85" height="2.85"/>
	<rect x="50.5" y="53.25" fill="#3288A5" width="2.851" height="2.85"/>
	<rect x="53.351" y="53.25" fill="#3288A5" width="2.85" height="2.85"/>
	<rect x="56.2" y="53.25" fill="#3288A5" width="2.85" height="2.85"/>
	<rect x="59.05" y="53.25" fill="#6ABE30" width="2.851" height="2.85"/>
	<rect x="61.9" y="53.25" fill="#3288A5" width="2.85" height="2.85"/>
	<rect x="64.75" y="53.25" fill="#3288A5" width="2.85" height="2.85"/>
	<rect x="67.6" y="53.25" fill="#3288A5" width="2.851" height="2.85"/>
	<rect x="70.45" y="53.25" fill="#3288A5" width="2.85" height="2.85"/>
	<rect x="73.3" y="53.25" fill="#3288A5" width="2.851" height="2.85"/>
	<rect x="76.15" y="53.25" fill="#99E550" width="2.85" height="2.85"/>
	<rect x="79" y="53.25" fill="#99E550" width="2.85" height="2.85"/>
	<rect x="81.85" y="53.25" fill="#99E550" width="2.851" height="2.85"/>
	<rect x="84.7" y="53.25" width="2.85" height="2.85"/>
	<rect x="30.55" y="56.1" width="2.851" height="2.85"/>
	<rect x="33.4" y="56.1" fill="#6FADC1" width="2.85" height="2.85"/>
	<rect x="36.25" y="56.1" fill="#FFFFFF" width="2.851" height="2.85"/>
	<rect x="39.101" y="56.1" fill="#6FADC1" width="2.85" height="2.85"/>
	<rect x="41.95" y="56.1" fill="#3288A5" width="2.85" height="2.85"/>
	<rect x="44.8" y="56.1" fill="#3288A5" width="2.851" height="2.85"/>
	<rect x="47.65" y="56.1" fill="#3288A5" width="2.85" height="2.85"/>
	<rect x="50.5" y="56.1" fill="#3288A5" width="2.851" height="2.85"/>
	<rect x="53.351" y="56.1" fill="#6FADC1" width="2.85" height="2.85"/>
	<rect x="56.2" y="56.1" fill="#3288A5" width="2.85" height="2.85"/>
	<rect x="59.05" y="56.1" fill="#6ABE30" width="2.851" height="2.85"/>
	<rect x="61.9" y="56.1" fill="#3288A5" width="2.85" height="2.85"/>
	<rect x="64.75" y="56.1" fill="#6FADC1" width="2.85" height="2.85"/>
	<rect x="67.6" y="56.1" fill="#6FADC1" width="2.851" height="2.85"/>
	<rect x="70.45" y="56.1" fill="#6FADC1" width="2.85" height="2.85"/>
	<rect x="73.3" y="56.1" fill="#6FADC1" width="2.851" height="2.85"/>
	<rect x="76.15" y="56.1" fill="#6FADC1" width="2.85" height="2.85"/>
	<rect x="79" y="56.1" fill="#6ABE30" width="2.85" height="2.85"/>
	<rect x="81.85" y="56.1" fill="#99E550" width="2.851" height="2.85"/>
	<rect x="84.7" y="56.1" fill="#99E550" width="2.85" height="2.85"/>
	<rect x="87.55" y="56.1" width="2.851" height="2.85"/>
	<rect x="27.7" y="58.95" width="2.85" height="2.85"/>
	<rect x="30.55" y="58.95" fill="#6FADC1" width="2.851" height="2.85"/>
	<rect x="33.4" y="58.95" fill="#FFFFFF" width="2.85" height="2.85"/>
	<rect x="36.25" y="58.95" fill="#6FADC1" width="2.851" height="2.85"/>
	<rect x="39.101" y="58.95" fill="#3288A5" width="2.85" height="2.85"/>
	<rect x="41.95" y="58.95" fill="#3288A5" width="2.85" height="2.85"/>
	<rect x="44.8" y="58.95" fill="#3288A5" width="2.851" height="2.85"/>
	<rect x="47.65" y="58.95" fill="#3288A5" width="2.85" height="2.85"/>
	<rect x="50.5" y="58.95" fill="#3288A5" width="2.851" height="2.85"/>
	<rect x="53.351" y="58.95" fill="#3288A5" width="2.85" height="2.85"/>
	<rect x="56.2" y="58.95" fill="#3288A5" width="2.85" height="2.85"/>
	<rect x="59.05" y="58.95" fill="#6ABE30" width="2.851" height="2.85"/>
	<rect x="61.9" y="58.95" fill="#3288A5" width="2.85" height="2.85"/>
	<rect x="64.75" y="58.95" fill="#6FADC1" width="2.85" height="2.85"/>
	<rect x="67.6" y="58.95" fill="#6FADC1" width="2.851" height="2.85"/>
	<rect x="70.45" y="58.95" fill="#6FADC1" width="2.85" height="2.85"/>
	<rect x="73.3" y="58.95" fill="#6FADC1" width="2.851" height="2.85"/>
	<rect x="76.15" y="58.95" fill="#6FADC1" width="2.85" height="2.85"/>
	<rect x="79" y="58.95" fill="#6FADC1" width="2.85" height="2.85"/>
	<rect x="81.85" y="58.95" fill="#6FADC1" width="2.851" height="2.85"/>
	<rect x="84.7" y="58.95" fill="#6ABE30" width="2.85" height="2.85"/>
	<rect x="87.55" y="58.95" fill="#99E550" width="2.851" height="2.85"/>
	<rect x="90.4" y="58.95" width="2.85" height="2.85"/>
	<rect x="24.851" y="61.8" width="2.85" height="2.85"/>
	<rect x="27.7" y="61.8" fill="#6FADC1" width="2.85" height="2.85"/>
	<rect x="30.55" y="61.8" fill="#FFFFFF" width="2.851" height="2.85"/>
	<rect x="33.4" y="61.8" fill="#6FADC1" width="2.85" height="2.85"/>
	<rect x="36.25" y="61.8" fill="#6FADC1" width="2.851" height="2.85"/>
	<rect x="39.101" y="61.8" fill="#3288A5" width="2.85" height="2.85"/>
	<rect x="41.95" y="61.8" fill="#3288A5" width="2.85" height="2.85"/>
	<rect x="44.8" y="61.8" fill="#3288A5" width="2.851" height="2.85"/>
	<rect x="47.65" y="61.8" fill="#3288A5" width="2.85" height="2.85"/>
	<rect x="50.5" y="61.8" fill="#3288A5" width="2.851" height="2.85"/>
	<rect x="53.351" y="61.8" fill="#3288A5" width="2.85" height="2.85"/>
	<rect x="56.2" y="61.8" fill="#3288A5" width="2.85" height="2.85"/>
	<rect x="59.05" y="61.8" fill="#6ABE30" width="2.851" height="2.85"/>
	<rect x="61.9" y="61.8" fill="#3288A5" width="2.85" height="2.85"/>
	<rect x="64.75" y="61.8" fill="#6FADC1" width="2.85" height="2.85"/>
	<rect x="67.6" y="61.8" fill="#6FADC1" width="2.851" height="2.85"/>
	<rect x="70.45" y="61.8" fill="#6FADC1" width="2.85" height="2.85"/>
	<rect x="73.3" y="61.8" fill="#6FADC1" width="2.851" height="2.85"/>
	<rect x="76.15" y="61.8" fill="#6FADC1" width="2.85" height="2.85"/>
	<rect x="79" y="61.8" fill="#6FADC1" width="2.85" height="2.85"/>
	<rect x="81.85" y="61.8" fill="#6FADC1" width="2.851" height="2.85"/>
	<rect x="84.7" y="61.8" fill="#6FADC1" width="2.85" height="2.85"/>
	<rect x="87.55" y="61.8" fill="#6ABE30" width="2.851" height="2.85"/>
	<rect x="90.4" y="61.8" fill="#99E550" width="2.85" height="2.85"/>
	<rect x="93.25" y="61.8" width="2.85" height="2.85"/>
	<rect x="24.851" y="64.65" width="2.85" height="2.85"/>
	<rect x="27.7" y="64.65" fill="#6FADC1" width="2.85" height="2.85"/>
	<rect x="30.55" y="64.65" fill="#3288A5" width="2.851" height="2.85"/>
	<rect x="33.4" y="64.65" fill="#3288A5" width="2.85" height="2.85"/>
	<rect x="36.25" y="64.65" fill="#6FADC1" width="2.851" height="2.85"/>
	<rect x="39.101" y="64.65" fill="#6FADC1" width="2.85" height="2.85"/>
	<rect x="41.95" y="64.65" fill="#3288A5" width="2.85" height="2.85"/>
	<rect x="44.8" y="64.65" fill="#3288A5" width="2.851" height="2.85"/>
	<rect x="47.65" y="64.65" fill="#3288A5" width="2.85" height="2.85"/>
	<rect x="50.5" y="64.65" fill="#3288A5" width="2.851" height="2.85"/>
	<rect x="53.351" y="64.65" fill="#3288A5" width="2.85" height="2.85"/>
	<rect x="56.2" y="64.65" fill="#3288A5" width="2.85" height="2.85"/>
	<rect x="59.05" y="64.65" fill="#6ABE30" width="2.851" height="2.85"/>
	<rect x="61.9" y="64.65" fill="#3288A5" width="2.85" height="2.85"/>
	<rect x="64.75" y="64.65" fill="#6FADC1" width="2.85" height="2.85"/>
	<rect x="67.6" y="64.65" fill="#6FADC1" width="2.851" height="2.85"/>
	<rect x="70.45" y="64.65" fill="#6FADC1" width="2.85" height="2.85"/>
	<rect x="73.3" y="64.65" fill="#6FADC1" width="2.851" height="2.85"/>
	<rect x="76.15" y="64.65" fill="#6FADC1" width="2.85" height="2.85"/>
	<rect x="79" y="64.65" fill="#6FADC1" width="2.85" height="2.85"/>
	<rect x="81.85" y="64.65" fill="#6FADC1" width="2.851" height="2.85"/>
	<rect x="84.7" y="64.65" fill="#6FADC1" width="2.85" height="2.85"/>
	<rect x="87.55" y="64.65" fill="#6ABE30" width="2.851" height="2.85"/>
	<rect x="90.4" y="64.65" fill="#6ABE30" width="2.85" height="2.85"/>
	<rect x="93.25" y="64.65" width="2.85" height="2.85"/>
	<rect x="22" y="67.5" width="2.851" height="2.85"/>
	<rect x="24.851" y="67.5" fill="#6FADC1" width="2.85" height="2.85"/>
	<rect x="27.7" y="67.5" fill="#FFFFFF" width="2.85" height="2.85"/>
	<rect x="30.55" y="67.5" fill="#3288A5" width="2.851" height="2.85"/>
	<rect x="33.4" y="67.5" fill="#3288A5" width="2.85" height="2.85"/>
	<rect x="36.25" y="67.5" fill="#6FADC1" width="2.851" height="2.85"/>
	<rect x="39.101" y="67.5" fill="#6FADC1" width="2.85" height="2.85"/>
	<rect x="41.95" y="67.5" fill="#6FADC1" width="2.85" height="2.85"/>
	<rect x="44.8" y="67.5" fill="#3288A5" width="2.851" height="2.85"/>
	<rect x="47.65" y="67.5" fill="#3288A5" width="2.85" height="2.85"/>
	<rect x="50.5" y="67.5" fill="#3288A5" width="2.851" height="2.85"/>
	<rect x="53.351" y="67.5" fill="#3288A5" width="2.85" height="2.85"/>
	<rect x="56.2" y="67.5" fill="#3288A5" width="2.85" height="2.85"/>
	<rect x="59.05" y="67.5" fill="#6ABE30" width="2.851" height="2.85"/>
	<rect x="61.9" y="67.5" fill="#6ABE30" width="2.85" height="2.85"/>
	<rect x="64.75" y="67.5" fill="#6ABE30" width="2.85" height="2.85"/>
	<rect x="67.6" y="67.5" fill="#6ABE30" width="2.851" height="2.85"/>
	<rect x="70.45" y="67.5" fill="#6ABE30" width="2.85" height="2.85"/>
	<rect x="73.3" y="67.5" fill="#6ABE30" width="2.851" height="2.85"/>
	<rect x="76.15" y="67.5" fill="#6ABE30" width="2.85" height="2.85"/>
	<rect x="79" y="67.5" fill="#6ABE30" width="2.85" height="2.85"/>
	<rect x="81.85" y="67.5" fill="#6ABE30" width="2.851" height="2.85"/>
	<rect x="84.7" y="67.5" fill="#6ABE30" width="2.85" height="2.85"/>
	<rect x="87.55" y="67.5" fill="#6ABE30" width="2.851" height="2.85"/>
	<rect x="90.4" y="67.5" fill="#6ABE30" width="2.85" height="2.85"/>
	<rect x="93.25" y="67.5" width="2.85" height="2.85"/>
	<rect x="10.601" y="70.35" width="2.85" height="2.85"/>
	<rect x="13.45" y="70.35" width="2.85" height="2.85"/>
	<rect x="16.3" y="70.35" width="2.851" height="2.85"/>
	<rect x="19.15" y="70.35" width="2.85" height="2.85"/>
	<rect x="22" y="70.35" fill="#6ABE30" width="2.851" height="2.85"/>
	<rect x="24.851" y="70.35" fill="#6ABE30" width="2.85" height="2.85"/>
	<rect x="27.7" y="70.35" fill="#6ABE30" width="2.85" height="2.85"/>
	<rect x="30.55" y="70.35" fill="#6ABE30" width="2.851" height="2.85"/>
	<rect x="33.4" y="70.35" fill="#6ABE30" width="2.85" height="2.85"/>
	<rect x="36.25" y="70.35" fill="#6ABE30" width="2.851" height="2.85"/>
	<rect x="39.101" y="70.35" fill="#6ABE30" width="2.85" height="2.85"/>
	<rect x="41.95" y="70.35" fill="#6ABE30" width="2.85" height="2.85"/>
	<rect x="44.8" y="70.35" fill="#6ABE30" width="2.851" height="2.85"/>
	<rect x="47.65" y="70.35" fill="#6ABE30" width="2.85" height="2.85"/>
	<rect x="50.5" y="70.35" fill="#6ABE30" width="2.851" height="2.85"/>
	<rect x="53.351" y="70.35" fill="#6ABE30" width="2.85" height="2.85"/>
	<rect x="56.2" y="70.35" fill="#6ABE30" width="2.85" height="2.85"/>
	<rect x="59.05" y="70.35" fill="#6ABE30" width="2.851" height="2.85"/>
	<rect x="61.9" y="70.35" fill="#6ABE30" width="2.85" height="2.85"/>
	<rect x="64.75" y="70.35" fill="#99E550" width="2.85" height="2.85"/>
	<rect x="67.6" y="70.35" fill="#99E550" width="2.851" height="2.85"/>
	<rect x="70.45" y="70.35" fill="#99E550" width="2.85" height="2.85"/>
	<rect x="73.3" y="70.35" fill="#99E550" width="2.851" height="2.85"/>
	<rect x="76.15" y="70.35" fill="#99E550" width="2.85" height="2.85"/>
	<rect x="79" y="70.35" fill="#99E550" width="2.85" height="2.85"/>
	<rect x="81.85" y="70.35" fill="#99E550" width="2.851" height="2.85"/>
	<rect x="84.7" y="70.35" fill="#99E550" width="2.85" height="2.85"/>
	<rect x="87.55" y="70.35" fill="#6ABE30" width="2.851" height="2.85"/>
	<rect x="90.4" y="70.35" fill="#6ABE30" width="2.85" height="2.85"/>
	<rect x="93.25" y="70.35" width="2.85" height="2.85"/>
	<rect x="7.75" y="73.2" width="2.851" height="2.85"/>
	<rect x="10.601" y="73.2" fill="#FBF236" width="2.85" height="2.85"/>
	<rect x="13.45" y="73.2" fill="#FBF236" width="2.85" height="2.85"/>
	<rect x="16.3" y="73.2" fill="#FBF236" width="2.851" height="2.85"/>
	<rect x="19.15" y="73.2" fill="#99E550" width="2.85" height="2.85"/>
	<rect x="22" y="73.2" fill="#99E550" width="2.851" height="2.85"/>
	<rect x="24.851" y="73.2" fill="#99E550" width="2.85" height="2.85"/>
	<rect x="27.7" y="73.2" fill="#99E550" width="2.85" height="2.85"/>
	<rect x="30.55" y="73.2" fill="#99E550" width="2.851" height="2.85"/>
	<rect x="33.4" y="73.2" fill="#99E550" width="2.85" height="2.85"/>
	<rect x="36.25" y="73.2" fill="#99E550" width="2.851" height="2.85"/>
	<rect x="39.101" y="73.2" fill="#99E550" width="2.85" height="2.85"/>
	<rect x="41.95" y="73.2" fill="#99E550" width="2.85" height="2.85"/>
	<rect x="44.8" y="73.2" fill="#99E550" width="2.851" height="2.85"/>
	<rect x="47.65" y="73.2" fill="#99E550" width="2.85" height="2.85"/>
	<rect x="50.5" y="73.2" fill="#99E550" width="2.851" height="2.85"/>
	<rect x="53.351" y="73.2" fill="#99E550" width="2.85" height="2.85"/>
	<rect x="56.2" y="73.2" fill="#99E550" width="2.85" height="2.85"/>
	<rect x="59.05" y="73.2" fill="#6ABE30" width="2.851" height="2.85"/>
	<rect x="61.9" y="73.2" fill="#99E550" width="2.85" height="2.85"/>
	<rect x="64.75" y="73.2" fill="#99E550" width="2.85" height="2.85"/>
	<rect x="67.6" y="73.2" fill="#99E550" width="2.851" height="2.85"/>
	<rect x="70.45" y="73.2" fill="#99E550" width="2.85" height="2.85"/>
	<rect x="73.3" y="73.2" fill="#99E550" width="2.851" height="2.85"/>
	<rect x="76.15" y="73.2" fill="#99E550" width="2.85" height="2.85"/>
	<rect x="79" y="73.2" fill="#99E550" width="2.85" height="2.85"/>
	<rect x="81.85" y="73.2" fill="#99E550" width="2.851" height="2.85"/>
	<rect x="84.7" y="73.2" fill="#99E550" width="2.85" height="2.85"/>
	<rect x="87.55" y="73.2" fill="#6ABE30" width="2.851" height="2.85"/>
	<rect x="90.4" y="73.2" fill="#6ABE30" width="2.85" height="2.85"/>
	<rect x="93.25" y="73.2" width="2.85" height="2.85"/>
	<rect x="7.75" y="76.05" width="2.851" height="2.85"/>
	<rect x="10.601" y="76.05" fill="#FBF236" width="2.85" height="2.85"/>
	<rect x="13.45" y="76.05" fill="#FBF236" width="2.85" height="2.85"/>
	<rect x="16.3" y="76.05" fill="#DF9800" width="2.851" height="2.85"/>
	<rect x="19.15" y="76.05" fill="#99E550" width="2.85" height="2.85"/>
	<rect x="22" y="76.05" fill="#99E550" width="2.851" height="2.85"/>
	<rect x="24.851" y="76.05" fill="#99E550" width="2.85" height="2.85"/>
	<rect x="27.7" y="76.05" fill="#99E550" width="2.85" height="2.85"/>
	<rect x="30.55" y="76.05" fill="#99E550" width="2.851" height="2.85"/>
	<rect x="33.4" y="76.05" fill="#99E550" width="2.85" height="2.85"/>
	<rect x="36.25" y="76.05" fill="#99E550" width="2.851" height="2.85"/>
	<rect x="39.101" y="76.05" fill="#99E550" width="2.85" height="2.85"/>
	<rect x="41.95" y="76.05" fill="#99E550" width="2.85" height="2.85"/>
	<rect x="44.8" y="76.05" fill="#99E550" width="2.851" height="2.85"/>
	<rect x="47.65" y="76.05" fill="#99E550" width="2.85" height="2.85"/>
	<rect x="50.5" y="76.05" fill="#99E550" width="2.851" height="2.85"/>
	<rect x="53.351" y="76.05" fill="#99E550" width="2.85" height="2.85"/>
	<rect x="56.2" y="76.05" fill="#99E550" width="2.85" height="2.85"/>
	<rect x="59.05" y="76.05" fill="#6ABE30" width="2.851" height="2.85"/>
	<rect x="61.9" y="76.05" fill="#99E550" width="2.85" height="2.85"/>
	<rect x="64.75" y="76.05" fill="#99E550" width="2.85" height="2.85"/>
	<rect x="67.6" y="76.05" fill="#99E550" width="2.851" height="2.85"/>
	<rect x="70.45" y="76.05" fill="#99E550" width="2.85" height="2.85"/>
	<rect x="73.3" y="76.05" fill="#99E550" width="2.851" height="2.85"/>
	<rect x="76.15" y="76.05" fill="#99E550" width="2.85" height="2.85"/>
	<rect x="79" y="76.05" fill="#99E550" width="2.85" height="2.85"/>
	<rect x="81.85" y="76.05" fill="#99E550" width="2.851" height="2.85"/>
	<rect x="84.7" y="76.05" fill="#6ABE30" width="2.85" height="2.85"/>
	<rect x="87.55" y="76.05" fill="#6ABE30" width="2.851" height="2.85"/>
	<rect x="90.4" y="76.05" fill="#6ABE30" width="2.85" height="2.85"/>
	<rect x="93.25" y="76.05" width="2.85" height="2.85"/>
	<rect x="4.9" y="78.9" width="2.85" height="2.85"/>
	<rect x="7.75" y="78.9" fill="#FBF236" width="2.851" height="2.85"/>
	<rect x="10.601" y="78.9" fill="#DF9800" width="2.85" height="2.85"/>
	<rect x="13.45" y="78.9" fill="#DF9800" width="2.85" height="2.85"/>
	<rect x="16.3" y="78.9" fill="#99E550" width="2.851" height="2.85"/>
	<rect x="19.15" y="78.9" fill="#99E550" width="2.85" height="2.85"/>
	<rect x="22" y="78.9" fill="#99E550" width="2.851" height="2.85"/>
	<rect x="24.851" y="78.9" fill="#99E550" width="2.85" height="2.85"/>
	<rect x="27.7" y="78.9" fill="#99E550" width="2.85" height="2.85"/>
	<rect x="30.55" y="78.9" fill="#99E550" width="2.851" height="2.85"/>
	<rect x="33.4" y="78.9" fill="#99E550" width="2.85" height="2.85"/>
	<rect x="36.25" y="78.9" fill="#99E550" width="2.851" height="2.85"/>
	<rect x="39.101" y="78.9" fill="#99E550" width="2.85" height="2.85"/>
	<rect x="41.95" y="78.9" fill="#99E550" width="2.85" height="2.85"/>
	<rect x="44.8" y="78.9" fill="#99E550" width="2.851" height="2.85"/>
	<rect x="47.65" y="78.9" width="2.85" height="2.85"/>
	<rect x="50.5" y="78.9" width="2.851" height="2.85"/>
	<rect x="53.351" y="78.9" fill="#99E550" width="2.85" height="2.85"/>
	<rect x="56.2" y="78.9" fill="#99E550" width="2.85" height="2.85"/>
	<rect x="59.05" y="78.9" fill="#6ABE30" width="2.851" height="2.85"/>
	<rect x="61.9" y="78.9" fill="#99E550" width="2.85" height="2.85"/>
	<rect x="64.75" y="78.9" fill="#99E550" width="2.85" height="2.85"/>
	<rect x="67.6" y="78.9" fill="#99E550" width="2.851" height="2.85"/>
	<rect x="70.45" y="78.9" fill="#99E550" width="2.85" height="2.85"/>
	<rect x="73.3" y="78.9" fill="#99E550" width="2.851" height="2.85"/>
	<rect x="76.15" y="78.9" fill="#99E550" width="2.85" height="2.85"/>
	<rect x="79" y="78.9" fill="#99E550" width="2.85" height="2.85"/>
	<rect x="81.85" y="78.9" fill="#99E550" width="2.851" height="2.85"/>
	<rect x="84.7" y="78.9" fill="#6ABE30" width="2.85" height="2.85"/>
	<rect x="87.55" y="78.9" fill="#6ABE30" width="2.851" height="2.85"/>
	<rect x="90.4" y="78.9" fill="#FB2A00" width="2.85" height="2.85"/>
	<rect x="93.25" y="78.9" width="2.85" height="2.85"/>
	<rect x="4.9" y="81.75" width="2.85" height="2.85"/>
	<rect x="7.75" y="81.75" fill="#99E550" width="2.851" height="2.85"/>
	<rect x="10.601" y="81.75" fill="#99E550" width="2.85" height="2.85"/>
	<rect x="13.45" y="81.75" fill="#99E550" width="2.85" height="2.85"/>
	<rect x="16.3" y="81.75" fill="#99E550" width="2.851" height="2.85"/>
	<rect x="19.15" y="81.75" fill="#99E550" width="2.85" height="2.85"/>
	<rect x="22" y="81.75" fill="#99E550" width="2.851" height="2.85"/>
	<rect x="24.851" y="81.75" fill="#99E550" width="2.85" height="2.85"/>
	<rect x="27.7" y="81.75" fill="#99E550" width="2.85" height="2.85"/>
	<rect x="30.55" y="81.75" fill="#99E550" width="2.851" height="2.85"/>
	<rect x="33.4" y="81.75" fill="#99E550" width="2.85" height="2.85"/>
	<rect x="36.25" y="81.75" fill="#99E550" width="2.851" height="2.85"/>
	<rect x="39.101" y="81.75" fill="#99E550" width="2.85" height="2.85"/>
	<rect x="41.95" y="81.75" fill="#99E550" width="2.85" height="2.85"/>
	<rect x="44.8" y="81.75" fill="#99E550" width="2.851" height="2.85"/>
	<rect x="47.65" y="81.75" fill="#6ABE30" width="2.85" height="2.85"/>
	<rect x="50.5" y="81.75" fill="#6ABE30" width="2.851" height="2.85"/>
	<rect x="53.351" y="81.75" fill="#99E550" width="2.85" height="2.85"/>
	<rect x="56.2" y="81.75" fill="#99E550" width="2.85" height="2.85"/>
	<rect x="59.05" y="81.75" fill="#6ABE30" width="2.851" height="2.85"/>
	<rect x="61.9" y="81.75" fill="#99E550" width="2.85" height="2.85"/>
	<rect x="64.75" y="81.75" fill="#99E550" width="2.85" height="2.85"/>
	<rect x="67.6" y="81.75" fill="#99E550" width="2.851" height="2.85"/>
	<rect x="70.45" y="81.75" fill="#99E550" width="2.85" height="2.85"/>
	<rect x="73.3" y="81.75" fill="#99E550" width="2.851" height="2.85"/>
	<rect x="76.15" y="81.75" fill="#99E550" width="2.85" height="2.85"/>
	<rect x="79" y="81.75" fill="#6ABE30" width="2.85" height="2.85"/>
	<rect x="81.85" y="81.75" fill="#6ABE30" width="2.851" height="2.85"/>
	<rect x="84.7" y="81.75" fill="#6ABE30" width="2.85" height="2.85"/>
	<rect x="87.55" y="81.75" fill="#6ABE30" width="2.851" height="2.85"/>
	<rect x="90.4" y="81.75" fill="#FB2A00" width="2.85" height="2.85"/>
	<rect x="93.25" y="81.75" width="2.85" height="2.85"/>
	<rect x="4.9" y="84.6" width="2.85" height="2.85"/>
	<rect x="7.75" y="84.6" fill="#99E550" width="2.851" height="2.85"/>
	<rect x="10.601" y="84.6" fill="#99E550" width="2.85" height="2.85"/>
	<rect x="13.45" y="84.6" fill="#99E550" width="2.85" height="2.85"/>
	<rect x="16.3" y="84.6" fill="#99E550" width="2.851" height="2.85"/>
	<rect x="19.15" y="84.6" fill="#99E550" width="2.85" height="2.85"/>
	<rect x="22" y="84.6" fill="#99E550" width="2.851" height="2.85"/>
	<rect x="24.851" y="84.6" fill="#99E550" width="2.85" height="2.85"/>
	<rect x="27.7" y="84.6" fill="#99E550" width="2.85" height="2.85"/>
	<rect x="30.55" y="84.6" fill="#99E550" width="2.851" height="2.85"/>
	<rect x="33.4" y="84.6" fill="#99E550" width="2.85" height="2.85"/>
	<rect x="36.25" y="84.6" fill="#99E550" width="2.851" height="2.85"/>
	<rect x="39.101" y="84.6" fill="#99E550" width="2.85" height="2.85"/>
	<rect x="41.95" y="84.6" fill="#99E550" width="2.85" height="2.85"/>
	<rect x="44.8" y="84.6" fill="#99E550" width="2.851" height="2.85"/>
	<rect x="47.65" y="84.6" fill="#99E550" width="2.85" height="2.85"/>
	<rect x="50.5" y="84.6" fill="#99E550" width="2.851" height="2.85"/>
	<rect x="53.351" y="84.6" fill="#99E550" width="2.85" height="2.85"/>
	<rect x="56.2" y="84.6" fill="#99E550" width="2.85" height="2.85"/>
	<rect x="59.05" y="84.6" fill="#6ABE30" width="2.851" height="2.85"/>
	<rect x="61.9" y="84.6" fill="#99E550" width="2.85" height="2.85"/>
	<rect x="64.75" y="84.6" fill="#99E550" width="2.85" height="2.85"/>
	<rect x="67.6" y="84.6" fill="#99E550" width="2.851" height="2.85"/>
	<rect x="70.45" y="84.6" fill="#99E550" width="2.85" height="2.85"/>
	<rect x="73.3" y="84.6" fill="#6ABE30" width="2.851" height="2.85"/>
	<rect x="76.15" y="84.6" fill="#6ABE30" width="2.85" height="2.85"/>
	<rect x="79" y="84.6" fill="#6ABE30" width="2.85" height="2.85"/>
	<rect x="81.85" y="84.6" fill="#6ABE30" width="2.851" height="2.85"/>
	<rect x="84.7" y="84.6" fill="#6ABE30" width="2.85" height="2.85"/>
	<rect x="87.55" y="84.6" fill="#6ABE30" width="2.851" height="2.85"/>
	<rect x="90.4" y="84.6" fill="#A90505" width="2.85" height="2.85"/>
	<rect x="93.25" y="84.6" width="2.85" height="2.85"/>
	<rect x="4.9" y="87.45" width="2.85" height="2.85"/>
	<rect x="7.75" y="87.45" fill="#6ABE30" width="2.851" height="2.85"/>
	<rect x="10.601" y="87.45" fill="#6ABE30" width="2.85" height="2.85"/>
	<rect x="13.45" y="87.45" fill="#6ABE30" width="2.85" height="2.85"/>
	<rect x="16.3" y="87.45" fill="#6ABE30" width="2.851" height="2.85"/>
	<rect x="19.15" y="87.45" fill="#6ABE30" width="2.85" height="2.85"/>
	<rect x="22" y="87.45" fill="#6ABE30" width="2.851" height="2.85"/>
	<rect x="24.851" y="87.45" fill="#6ABE30" width="2.85" height="2.85"/>
	<rect x="27.7" y="87.45" fill="#6ABE30" width="2.85" height="2.85"/>
	<rect x="30.55" y="87.45" fill="#6ABE30" width="2.851" height="2.85"/>
	<rect x="33.4" y="87.45" fill="#6ABE30" width="2.85" height="2.85"/>
	<rect x="36.25" y="87.45" fill="#6ABE30" width="2.851" height="2.85"/>
	<rect x="39.101" y="87.45" fill="#6ABE30" width="2.85" height="2.85"/>
	<rect x="41.95" y="87.45" fill="#6ABE30" width="2.85" height="2.85"/>
	<rect x="44.8" y="87.45" fill="#6ABE30" width="2.851" height="2.85"/>
	<rect x="47.65" y="87.45" fill="#6ABE30" width="2.85" height="2.85"/>
	<rect x="50.5" y="87.45" fill="#6ABE30" width="2.851" height="2.85"/>
	<rect x="53.351" y="87.45" fill="#6ABE30" width="2.85" height="2.85"/>
	<rect x="56.2" y="87.45" fill="#6ABE30" width="2.85" height="2.85"/>
	<rect x="59.05" y="87.45" fill="#6ABE30" width="2.851" height="2.85"/>
	<rect x="61.9" y="87.45" fill="#6ABE30" width="2.85" height="2.85"/>
	<rect x="64.75" y="87.45" fill="#6ABE30" width="2.85" height="2.85"/>
	<rect x="67.6" y="87.45" fill="#6ABE30" width="2.851" height="2.85"/>
	<rect x="70.45" y="87.45" fill="#6ABE30" width="2.85" height="2.85"/>
	<rect x="73.3" y="87.45" fill="#6ABE30" width="2.851" height="2.85"/>
	<rect x="76.15" y="87.45" fill="#6ABE30" width="2.85" height="2.85"/>
	<rect x="79" y="87.45" fill="#6ABE30" width="2.85" height="2.85"/>
	<rect x="81.85" y="87.45" fill="#6ABE30" width="2.851" height="2.85"/>
	<rect x="84.7" y="87.45" fill="#6ABE30" width="2.85" height="2.85"/>
	<rect x="87.55" y="87.45" fill="#6ABE30" width="2.851" height="2.85"/>
	<rect x="90.4" y="87.45" fill="#6ABE30" width="2.85" height="2.85"/>
	<rect x="93.25" y="87.45" width="2.85" height="2.85"/>
	<rect x="4.9" y="90.3" width="2.85" height="2.851"/>
	<rect x="7.75" y="90.3" width="2.851" height="2.851"/>
	<rect x="10.601" y="90.3" width="2.85" height="2.851"/>
	<rect x="13.45" y="90.3" width="2.85" height="2.851"/>
	<rect x="16.3" y="90.3" width="2.851" height="2.851"/>
	<rect x="19.15" y="90.3" fill="#6ABE30" width="2.85" height="2.851"/>
	<rect x="22" y="90.3" fill="#6ABE30" width="2.851" height="2.851"/>
	<rect x="24.851" y="90.3" fill="#6ABE30" width="2.85" height="2.851"/>
	<rect x="27.7" y="90.3" fill="#6ABE30" width="2.85" height="2.851"/>
	<rect x="30.55" y="90.3" fill="#6ABE30" width="2.851" height="2.851"/>
	<rect x="33.4" y="90.3" fill="#6ABE30" width="2.85" height="2.851"/>
	<rect x="36.25" y="90.3" fill="#6ABE30" width="2.851" height="2.851"/>
	<rect x="39.101" y="90.3" width="2.85" height="2.851"/>
	<rect x="41.95" y="90.3" width="2.85" height="2.851"/>
	<rect x="44.8" y="90.3" width="2.851" height="2.851"/>
	<rect x="47.65" y="90.3" width="2.85" height="2.851"/>
	<rect x="50.5" y="90.3" width="2.851" height="2.851"/>
	<rect x="53.351" y="90.3" width="2.85" height="2.851"/>
	<rect x="56.2" y="90.3" width="2.85" height="2.851"/>
	<rect x="59.05" y="90.3" width="2.851" height="2.851"/>
	<rect x="61.9" y="90.3" width="2.85" height="2.851"/>
	<rect x="64.75" y="90.3" width="2.85" height="2.851"/>
	<rect x="67.6" y="90.3" fill="#6ABE30" width="2.851" height="2.851"/>
	<rect x="70.45" y="90.3" fill="#6ABE30" width="2.85" height="2.851"/>
	<rect x="73.3" y="90.3" fill="#6ABE30" width="2.851" height="2.851"/>
	<rect x="76.15" y="90.3" fill="#6ABE30" width="2.85" height="2.851"/>
	<rect x="79" y="90.3" width="2.85" height="2.851"/>
	<rect x="81.85" y="90.3" width="2.851" height="2.851"/>
	<rect x="84.7" y="90.3" width="2.85" height="2.851"/>
	<rect x="87.55" y="90.3" width="2.851" height="2.851"/>
	<rect x="90.4" y="90.3" width="2.85" height="2.851"/>
	<rect x="93.25" y="90.3" width="2.85" height="2.851"/>
	<rect x="4.9" y="93.15" width="2.85" height="2.85"/>
	<rect x="7.75" y="93.15" fill="#FFFFFF" width="2.851" height="2.85"/>
	<rect x="10.601" y="93.15" fill="#FFFFFF" width="2.85" height="2.85"/>
	<rect x="13.45" y="93.15" fill="#FFFFFF" width="2.85" height="2.85"/>
	<rect x="16.3" y="93.15" fill="#FFFFFF" width="2.851" height="2.85"/>
	<rect x="19.15" y="93.15" fill="#9BADB7" width="2.85" height="2.85"/>
	<rect x="22" y="93.15" fill="#9BADB7" width="2.851" height="2.85"/>
	<rect x="24.851" y="93.15" width="2.85" height="2.85"/>
	<rect x="27.7" y="93.15" width="2.85" height="2.85"/>
	<rect x="30.55" y="93.15" width="2.851" height="2.85"/>
	<rect x="33.4" y="93.15" fill="#9BADB7" width="2.85" height="2.85"/>
	<rect x="36.25" y="93.15" fill="#9BADB7" width="2.851" height="2.85"/>
	<rect x="39.101" y="93.15" fill="#FFFFFF" width="2.85" height="2.85"/>
	<rect x="41.95" y="93.15" fill="#FFFFFF" width="2.85" height="2.85"/>
	<rect x="44.8" y="93.15" fill="#FFFFFF" width="2.851" height="2.85"/>
	<rect x="47.65" y="93.15" fill="#FFFFFF" width="2.85" height="2.85"/>
	<rect x="50.5" y="93.15" fill="#FFFFFF" width="2.851" height="2.85"/>
	<rect x="53.351" y="93.15" width="2.85" height="2.85"/>
	<rect x="56.2" y="93.15" fill="#FFFFFF" width="2.85" height="2.85"/>
	<rect x="59.05" y="93.15" fill="#FFFFFF" width="2.851" height="2.85"/>
	<rect x="61.9" y="93.15" fill="#9BADB7" width="2.85" height="2.85"/>
	<rect x="64.75" y="93.15" fill="#9BADB7" width="2.85" height="2.85"/>
	<rect x="67.6" y="93.15" width="2.851" height="2.85"/>
	<rect x="70.45" y="93.15" width="2.85" height="2.85"/>
	<rect x="73.3" y="93.15" width="2.851" height="2.85"/>
	<rect x="76.15" y="93.15" fill="#9BADB7" width="2.85" height="2.85"/>
	<rect x="79" y="93.15" fill="#9BADB7" width="2.85" height="2.85"/>
	<rect x="81.85" y="93.15" fill="#FFFFFF" width="2.851" height="2.85"/>
	<rect x="84.7" y="93.15" fill="#FFFFFF" width="2.85" height="2.85"/>
	<rect x="87.55" y="93.15" fill="#FFFFFF" width="2.851" height="2.85"/>
	<rect x="90.4" y="93.15" fill="#FFFFFF" width="2.85" height="2.85"/>
	<rect x="93.25" y="93.15" width="2.85" height="2.85"/>
	<rect x="4.9" y="96" width="2.85" height="2.85"/>
	<rect x="7.75" y="96" fill="#FFFFFF" width="2.851" height="2.85"/>
	<rect x="10.601" y="96" fill="#9BADB7" width="2.85" height="2.85"/>
	<rect x="13.45" y="96" fill="#9BADB7" width="2.85" height="2.85"/>
	<rect x="16.3" y="96" fill="#9BADB7" width="2.851" height="2.85"/>
	<rect x="19.15" y="96" fill="#9BADB7" width="2.85" height="2.85"/>
	<rect x="22" y="96" width="2.851" height="2.85"/>
	<rect x="24.851" y="96" width="2.85" height="2.85"/>
	<rect x="27.7" y="96" width="2.85" height="2.85"/>
	<rect x="30.55" y="96" width="2.851" height="2.85"/>
	<rect x="33.4" y="96" width="2.85" height="2.85"/>
	<rect x="36.25" y="96" fill="#9BADB7" width="2.851" height="2.85"/>
	<rect x="39.101" y="96" fill="#9BADB7" width="2.85" height="2.85"/>
	<rect x="41.95" y="96" fill="#9BADB7" width="2.85" height="2.85"/>
	<rect x="44.8" y="96" fill="#9BADB7" width="2.851" height="2.85"/>
	<rect x="47.65" y="96" fill="#9BADB7" width="2.85" height="2.85"/>
	<rect x="50.5" y="96" fill="#9BADB7" width="2.851" height="2.85"/>
	<rect x="53.351" y="96" width="2.85" height="2.85"/>
	<rect x="56.2" y="96" fill="#9BADB7" width="2.85" height="2.85"/>
	<rect x="59.05" y="96" fill="#9BADB7" width="2.851" height="2.85"/>
	<rect x="61.9" y="96" fill="#9BADB7" width="2.85" height="2.85"/>
	<rect x="64.75" y="96" width="2.85" height="2.85"/>
	<rect x="67.6" y="96" width="2.851" height="2.85"/>
	<rect x="70.45" y="96" width="2.85" height="2.85"/>
	<rect x="73.3" y="96" width="2.851" height="2.85"/>
	<rect x="76.15" y="96" width="2.85" height="2.85"/>
	<rect x="79" y="96" fill="#9BADB7" width="2.85" height="2.85"/>
	<rect x="81.85" y="96" fill="#9BADB7" width="2.851" height="2.85"/>
	<rect x="84.7" y="96" fill="#9BADB7" width="2.85" height="2.85"/>
	<rect x="87.55" y="96" fill="#9BADB7" width="2.851" height="2.85"/>
	<rect x="90.4" y="96" fill="#9BADB7" width="2.85" height="2.85"/>
	<rect x="93.25" y="96" width="2.85" height="2.85"/>
	<rect x="4.9" y="98.85" width="2.85" height="2.851"/>
	<rect x="7.75" y="98.85" fill="#9BADB7" width="2.851" height="2.851"/>
	<rect x="10.601" y="98.85" fill="#9BADB7" width="2.85" height="2.851"/>
	<rect x="13.45" y="98.85" fill="#9BADB7" width="2.85" height="2.851"/>
	<rect x="16.3" y="98.85" fill="#9BADB7" width="2.851" height="2.851"/>
	<rect x="19.15" y="98.85" width="2.85" height="2.851"/>
	<rect x="22" y="98.85" width="2.851" height="2.851"/>
	<rect x="24.851" y="98.85" width="2.85" height="2.851"/>
	<rect x="27.7" y="98.85" fill="#595652" width="2.85" height="2.851"/>
	<rect x="30.55" y="98.85" width="2.851" height="2.851"/>
	<rect x="33.4" y="98.85" width="2.85" height="2.851"/>
	<rect x="36.25" y="98.85" width="2.851" height="2.851"/>
	<rect x="39.101" y="98.85" fill="#9BADB7" width="2.85" height="2.851"/>
	<rect x="41.95" y="98.85" fill="#9BADB7" width="2.85" height="2.851"/>
	<rect x="44.8" y="98.85" fill="#9BADB7" width="2.851" height="2.851"/>
	<rect x="47.65" y="98.85" fill="#9BADB7" width="2.85" height="2.851"/>
	<rect x="50.5" y="98.85" fill="#9BADB7" width="2.851" height="2.851"/>
	<rect x="53.351" y="98.85" width="2.85" height="2.851"/>
	<rect x="56.2" y="98.85" fill="#9BADB7" width="2.85" height="2.851"/>
	<rect x="59.05" y="98.85" fill="#9BADB7" width="2.851" height="2.851"/>
	<rect x="61.9" y="98.85" width="2.85" height="2.851"/>
	<rect x="64.75" y="98.85" width="2.85" height="2.851"/>
	<rect x="67.6" y="98.85" width="2.851" height="2.851"/>
	<rect x="70.45" y="98.85" fill="#595652" width="2.85" height="2.851"/>
	<rect x="73.3" y="98.85" width="2.851" height="2.851"/>
	<rect x="76.15" y="98.85" width="2.85" height="2.851"/>
	<rect x="79" y="98.85" width="2.85" height="2.851"/>
	<rect x="81.85" y="98.85" fill="#9BADB7" width="2.851" height="2.851"/>
	<rect x="84.7" y="98.85" fill="#9BADB7" width="2.85" height="2.851"/>
	<rect x="87.55" y="98.85" fill="#9BADB7" width="2.851" height="2.851"/>
	<rect x="90.4" y="98.85" fill="#9BADB7" width="2.85" height="2.851"/>
	<rect x="93.25" y="98.85" width="2.85" height="2.851"/>
	<rect x="7.75" y="101.7" width="2.851" height="2.85"/>
	<rect x="10.601" y="101.7" width="2.85" height="2.85"/>
	<rect x="13.45" y="101.7" width="2.85" height="2.85"/>
	<rect x="16.3" y="101.7" width="2.851" height="2.85"/>
	<rect x="19.15" y="101.7" width="2.85" height="2.85"/>
	<rect x="22" y="101.7" width="2.851" height="2.85"/>
	<rect x="24.851" y="101.7" fill="#595652" width="2.85" height="2.85"/>
	<rect x="27.7" y="101.7" width="2.85" height="2.85"/>
	<rect x="30.55" y="101.7" width="2.851" height="2.85"/>
	<rect x="33.4" y="101.7" width="2.85" height="2.85"/>
	<rect x="36.25" y="101.7" width="2.851" height="2.85"/>
	<rect x="39.101" y="101.7" width="2.85" height="2.85"/>
	<rect x="41.95" y="101.7" width="2.85" height="2.85"/>
	<rect x="44.8" y="101.7" width="2.851" height="2.85"/>
	<rect x="47.65" y="101.7" width="2.85" height="2.85"/>
	<rect x="50.5" y="101.7" width="2.851" height="2.85"/>
	<rect x="53.351" y="101.7" width="2.85" height="2.85"/>
	<rect x="56.2" y="101.7" width="2.85" height="2.85"/>
	<rect x="59.05" y="101.7" width="2.851" height="2.85"/>
	<rect x="61.9" y="101.7" width="2.85" height="2.85"/>
	<rect x="64.75" y="101.7" width="2.85" height="2.85"/>
	<rect x="67.6" y="101.7" fill="#595652" width="2.851" height="2.85"/>
	<rect x="70.45" y="101.7" width="2.85" height="2.85"/>
	<rect x="73.3" y="101.7" width="2.851" height="2.85"/>
	<rect x="76.15" y="101.7" width="2.85" height="2.85"/>
	<rect x="79" y="101.7" width="2.85" height="2.85"/>
	<rect x="81.85" y="101.7" width="2.851" height="2.85"/>
	<rect x="84.7" y="101.7" width="2.85" height="2.85"/>
	<rect x="87.55" y="101.7" width="2.851" height="2.85"/>
	<rect x="90.4" y="101.7" width="2.85" height="2.85"/>
	<rect x="19.15" y="104.55" width="2.85" height="2.851"/>
	<rect x="22" y="104.55" width="2.851" height="2.851"/>
	<rect x="24.851" y="104.55" width="2.85" height="2.851"/>
	<rect x="27.7" y="104.55" width="2.85" height="2.851"/>
	<rect x="30.55" y="104.55" width="2.851" height="2.851"/>
	<rect x="33.4" y="104.55" width="2.85" height="2.851"/>
	<rect x="36.25" y="104.55" width="2.851" height="2.851"/>
	<rect x="61.9" y="104.55" width="2.85" height="2.851"/>
	<rect x="64.75" y="104.55" width="2.85" height="2.851"/>
	<rect x="67.6" y="104.55" width="2.851" height="2.851"/>
	<rect x="70.45" y="104.55" width="2.85" height="2.851"/>
	<rect x="73.3" y="104.55" width="2.851" height="2.851"/>
	<rect x="76.15" y="104.55" width="2.85" height="2.851"/>
	<rect x="79" y="104.55" width="2.85" height="2.851"/>
	<rect x="22" y="107.4" width="2.851" height="2.85"/>
	<rect x="24.851" y="107.4" width="2.85" height="2.85"/>
	<rect x="27.7" y="107.4" width="2.85" height="2.85"/>
	<rect x="30.55" y="107.4" width="2.851" height="2.85"/>
	<rect x="33.4" y="107.4" width="2.85" height="2.85"/>
	<rect x="64.75" y="107.4" width="2.85" height="2.85"/>
	<rect x="67.6" y="107.4" width="2.851" height="2.85"/>
	<rect x="70.45" y="107.4" width="2.85" height="2.85"/>
	<rect x="73.3" y="107.4" width="2.851" height="2.85"/>
	<rect x="76.15" y="107.4" width="2.85" height="2.85"/>
	<rect x="24.851" y="110.25" width="2.85" height="2.85"/>
	<rect x="27.7" y="110.25" width="2.85" height="2.85"/>
	<rect x="30.55" y="110.25" width="2.851" height="2.85"/>
	<rect x="67.6" y="110.25" width="2.851" height="2.85"/>
	<rect x="70.45" y="110.25" width="2.85" height="2.85"/>
	<rect x="73.3" y="110.25" width="2.851" height="2.85"/>
</g>
</svg>
