<?xml version="1.0" encoding="utf-8"?>
<!-- Generator: Adobe Illustrator 16.0.0, SVG Export Plug-In . SVG Version: 6.00 Build 0)  -->
<!DOCTYPE svg PUBLIC "-//W3C//DTD SVG 1.1//EN" "http://www.w3.org/Graphics/SVG/1.1/DTD/svg11.dtd">
<svg version="1.1" id="Layer_1" shape-rendering="crispEdges"
	 xmlns="http://www.w3.org/2000/svg" xmlns:xlink="http://www.w3.org/1999/xlink" x="0px" y="0px" width="101px" height="171px"
	 viewBox="0 0 101 171" enable-background="new 0 0 101 171" xml:space="preserve">
<g>
	<rect x="45.614" y="78.171" width="2.443" height="2.443"/>
	<rect x="48.058" y="78.171" width="2.443" height="2.443"/>
	<rect x="50.501" y="78.171" width="2.442" height="2.443"/>
	<rect x="52.943" y="78.171" width="2.442" height="2.443"/>
	<rect x="33.4" y="80.614" fill="#D20000" width="2.442" height="2.443"/>
	<rect x="35.843" y="80.614" width="2.443" height="2.443"/>
	<rect x="43.172" y="80.614" width="2.442" height="2.443"/>
	<rect x="45.614" y="80.614" fill="#F99E87" width="2.443" height="2.443"/>
	<rect x="48.058" y="80.614" fill="#F99E87" width="2.443" height="2.443"/>
	<rect x="50.501" y="80.614" fill="#D20000" width="2.442" height="2.443"/>
	<rect x="52.943" y="80.614" fill="#840B0B" width="2.442" height="2.443"/>
	<rect x="55.386" y="80.614" width="2.443" height="2.443"/>
	<rect x="23.629" y="83.057" width="2.442" height="2.443"/>
	<rect x="26.071" y="83.057" width="2.443" height="2.443"/>
	<rect x="33.4" y="83.057" width="2.442" height="2.443"/>
	<rect x="35.843" y="83.057" width="2.443" height="2.443"/>
	<rect x="45.614" y="83.057" width="2.443" height="2.443"/>
	<rect x="48.058" y="83.057" fill="#D20000" width="2.443" height="2.443"/>
	<rect x="50.501" y="83.057" fill="#D20000" width="2.442" height="2.443"/>
	<rect x="52.943" y="83.057" width="2.442" height="2.443"/>
	<rect x="72.486" y="83.057" width="2.442" height="2.443"/>
	<rect x="74.929" y="83.057" width="2.443" height="2.443"/>
	<rect x="21.186" y="85.5" width="2.443" height="2.443"/>
	<rect x="23.629" y="85.5" fill="#F99E87" width="2.442" height="2.443"/>
	<rect x="26.071" y="85.5" width="2.443" height="2.443"/>
	<rect x="48.058" y="85.5" width="2.443" height="2.443"/>
	<rect x="50.501" y="85.5" fill="#840B0B" width="2.442" height="2.443"/>
	<rect x="52.943" y="85.5" width="2.442" height="2.443"/>
	<rect x="60.272" y="85.5" width="2.442" height="2.443"/>
	<rect x="72.486" y="85.5" width="2.442" height="2.443"/>
	<rect x="74.929" y="85.5" fill="#F99E87" width="2.443" height="2.443"/>
	<rect x="77.372" y="85.5" width="2.443" height="2.443"/>
	<rect x="21.186" y="87.943" width="2.443" height="2.442"/>
	<rect x="23.629" y="87.943" width="2.442" height="2.442"/>
	<rect x="26.071" y="87.943" fill="#D20000" width="2.443" height="2.442"/>
	<rect x="28.515" y="87.943" width="2.442" height="2.442"/>
	<rect x="43.172" y="87.943" width="2.442" height="2.442"/>
	<rect x="45.614" y="87.943" width="2.443" height="2.442"/>
	<rect x="48.058" y="87.943" fill="#D20000" width="2.443" height="2.442"/>
	<rect x="50.501" y="87.943" fill="#D20000" width="2.442" height="2.442"/>
	<rect x="52.943" y="87.943" fill="#840B0B" width="2.442" height="2.442"/>
	<rect x="55.386" y="87.943" width="2.443" height="2.442"/>
	<rect x="70.044" y="87.943" width="2.442" height="2.442"/>
	<rect x="72.486" y="87.943" fill="#D20000" width="2.442" height="2.442"/>
	<rect x="74.929" y="87.943" width="2.443" height="2.442"/>
	<rect x="77.372" y="87.943" width="2.443" height="2.442"/>
	<rect x="26.071" y="90.386" width="2.443" height="2.442"/>
	<rect x="28.515" y="90.386" fill="#D20000" width="2.442" height="2.442"/>
	<rect x="30.957" y="90.386" width="2.443" height="2.442"/>
	<rect x="40.729" y="90.386" width="2.443" height="2.442"/>
	<rect x="43.172" y="90.386" fill="#F99E87" width="2.442" height="2.442"/>
	<rect x="45.614" y="90.386" fill="#D20000" width="2.443" height="2.442"/>
	<rect x="48.058" y="90.386" fill="#D20000" width="2.443" height="2.442"/>
	<rect x="50.501" y="90.386" fill="#D20000" width="2.442" height="2.442"/>
	<rect x="52.943" y="90.386" fill="#D20000" width="2.442" height="2.442"/>
	<rect x="55.386" y="90.386" fill="#D20000" width="2.443" height="2.442"/>
	<rect x="57.829" y="90.386" width="2.443" height="2.442"/>
	<rect x="67.601" y="90.386" width="2.443" height="2.442"/>
	<rect x="70.044" y="90.386" fill="#D20000" width="2.442" height="2.442"/>
	<rect x="72.486" y="90.386" width="2.442" height="2.442"/>
	<rect x="28.515" y="92.828" width="2.442" height="2.443"/>
	<rect x="30.957" y="92.828" fill="#D20000" width="2.443" height="2.443"/>
	<rect x="33.4" y="92.828" width="2.442" height="2.443"/>
	<rect x="35.843" y="92.828" width="2.443" height="2.443"/>
	<rect x="38.286" y="92.828" width="2.442" height="2.443"/>
	<rect x="40.729" y="92.828" fill="#F99E87" width="2.443" height="2.443"/>
	<rect x="43.172" y="92.828" fill="#D20000" width="2.442" height="2.443"/>
	<rect x="45.614" y="92.828" fill="#D20000" width="2.443" height="2.443"/>
	<rect x="48.058" y="92.828" fill="#D20000" width="2.443" height="2.443"/>
	<rect x="50.501" y="92.828" fill="#D20000" width="2.442" height="2.443"/>
	<rect x="52.943" y="92.828" fill="#D20000" width="2.442" height="2.443"/>
	<rect x="55.386" y="92.828" fill="#D20000" width="2.443" height="2.443"/>
	<rect x="57.829" y="92.828" fill="#D20000" width="2.443" height="2.443"/>
	<rect x="60.272" y="92.828" width="2.442" height="2.443"/>
	<rect x="62.715" y="92.828" width="2.442" height="2.443"/>
	<rect x="65.157" y="92.828" width="2.443" height="2.443"/>
	<rect x="67.601" y="92.828" fill="#D20000" width="2.443" height="2.443"/>
	<rect x="70.044" y="92.828" width="2.442" height="2.443"/>
	<rect x="16.3" y="95.271" fill="#D20000" width="2.443" height="2.443"/>
	<rect x="18.743" y="95.271" width="2.442" height="2.443"/>
	<rect x="30.957" y="95.271" width="2.443" height="2.443"/>
	<rect x="33.4" y="95.271" width="2.442" height="2.443"/>
	<rect x="35.843" y="95.271" fill="#F99E87" width="2.443" height="2.443"/>
	<rect x="38.286" y="95.271" fill="#D20000" width="2.442" height="2.443"/>
	<rect x="40.729" y="95.271" fill="#D20000" width="2.443" height="2.443"/>
	<rect x="43.172" y="95.271" fill="#D20000" width="2.442" height="2.443"/>
	<rect x="45.614" y="95.271" fill="#D20000" width="2.443" height="2.443"/>
	<rect x="48.058" y="95.271" fill="#D20000" width="2.443" height="2.443"/>
	<rect x="50.501" y="95.271" fill="#D20000" width="2.442" height="2.443"/>
	<rect x="52.943" y="95.271" fill="#D20000" width="2.442" height="2.443"/>
	<rect x="55.386" y="95.271" fill="#D20000" width="2.443" height="2.443"/>
	<rect x="57.829" y="95.271" fill="#D20000" width="2.443" height="2.443"/>
	<rect x="60.272" y="95.271" fill="#D20000" width="2.442" height="2.443"/>
	<rect x="62.715" y="95.271" fill="#840B0B" width="2.442" height="2.443"/>
	<rect x="65.157" y="95.271" fill="#840B0B" width="2.443" height="2.443"/>
	<rect x="67.601" y="95.271" width="2.443" height="2.443"/>
	<rect x="77.372" y="95.271" width="2.443" height="2.443"/>
	<rect x="16.3" y="97.715" width="2.443" height="2.442"/>
	<rect x="18.743" y="97.715" width="2.442" height="2.442"/>
	<rect x="30.957" y="97.715" width="2.443" height="2.442"/>
	<rect x="33.4" y="97.715" fill="#F99E87" width="2.442" height="2.442"/>
	<rect x="35.843" y="97.715" fill="#D20000" width="2.443" height="2.442"/>
	<rect x="38.286" y="97.715" fill="#D20000" width="2.442" height="2.442"/>
	<rect x="40.729" y="97.715" fill="#D20000" width="2.443" height="2.442"/>
	<rect x="43.172" y="97.715" fill="#D20000" width="2.442" height="2.442"/>
	<rect x="45.614" y="97.715" fill="#D20000" width="2.443" height="2.442"/>
	<rect x="48.058" y="97.715" fill="#F99E87" width="2.443" height="2.442"/>
	<rect x="50.501" y="97.715" fill="#840B0B" width="2.442" height="2.442"/>
	<rect x="52.943" y="97.715" width="2.442" height="2.442"/>
	<rect x="55.386" y="97.715" fill="#D20000" width="2.443" height="2.442"/>
	<rect x="57.829" y="97.715" fill="#D20000" width="2.443" height="2.442"/>
	<rect x="60.272" y="97.715" fill="#D20000" width="2.442" height="2.442"/>
	<rect x="62.715" y="97.715" fill="#D20000" width="2.442" height="2.442"/>
	<rect x="65.157" y="97.715" fill="#840B0B" width="2.443" height="2.442"/>
	<rect x="67.601" y="97.715" width="2.443" height="2.442"/>
	<rect x="77.372" y="97.715" width="2.443" height="2.442"/>
	<rect x="30.957" y="100.157" width="2.443" height="2.442"/>
	<rect x="33.4" y="100.157" fill="#D20000" width="2.442" height="2.442"/>
	<rect x="35.843" y="100.157" fill="#D20000" width="2.443" height="2.442"/>
	<rect x="38.286" y="100.157" fill="#D20000" width="2.442" height="2.442"/>
	<rect x="40.729" y="100.157" fill="#D20000" width="2.443" height="2.442"/>
	<rect x="43.172" y="100.157" fill="#D20000" width="2.442" height="2.442"/>
	<rect x="45.614" y="100.157" fill="#D20000" width="2.443" height="2.442"/>
	<rect x="48.058" y="100.157" fill="#840B0B" width="2.443" height="2.442"/>
	<rect x="50.501" y="100.157" fill="#840B0B" width="2.442" height="2.442"/>
	<rect x="52.943" y="100.157" width="2.442" height="2.442"/>
	<rect x="55.386" y="100.157" fill="#D20000" width="2.443" height="2.442"/>
	<rect x="57.829" y="100.157" fill="#D20000" width="2.443" height="2.442"/>
	<rect x="60.272" y="100.157" fill="#D20000" width="2.442" height="2.442"/>
	<rect x="62.715" y="100.157" fill="#D20000" width="2.442" height="2.442"/>
	<rect x="65.157" y="100.157" fill="#D20000" width="2.443" height="2.442"/>
	<rect x="67.601" y="100.157" width="2.443" height="2.442"/>
	<rect x="23.629" y="102.6" width="2.442" height="2.443"/>
	<rect x="28.515" y="102.6" width="2.442" height="2.443"/>
	<rect x="30.957" y="102.6" fill="#F99E87" width="2.443" height="2.443"/>
	<rect x="33.4" y="102.6" fill="#D20000" width="2.442" height="2.443"/>
	<rect x="35.843" y="102.6" fill="#D20000" width="2.443" height="2.443"/>
	<rect x="38.286" y="102.6" fill="#D20000" width="2.442" height="2.443"/>
	<rect x="40.729" y="102.6" fill="#D20000" width="2.443" height="2.443"/>
	<rect x="43.172" y="102.6" fill="#D20000" width="2.442" height="2.443"/>
	<rect x="45.614" y="102.6" fill="#D20000" width="2.443" height="2.443"/>
	<rect x="48.058" y="102.6" width="2.443" height="2.443"/>
	<rect x="50.501" y="102.6" width="2.442" height="2.443"/>
	<rect x="52.943" y="102.6" fill="#D20000" width="2.442" height="2.443"/>
	<rect x="55.386" y="102.6" fill="#D20000" width="2.443" height="2.443"/>
	<rect x="57.829" y="102.6" fill="#D20000" width="2.443" height="2.443"/>
	<rect x="60.272" y="102.6" fill="#D20000" width="2.442" height="2.443"/>
	<rect x="62.715" y="102.6" fill="#D20000" width="2.442" height="2.443"/>
	<rect x="65.157" y="102.6" fill="#D20000" width="2.443" height="2.443"/>
	<rect x="67.601" y="102.6" fill="#840B0B" width="2.443" height="2.443"/>
	<rect x="70.044" y="102.6" width="2.442" height="2.443"/>
	<rect x="18.743" y="105.043" width="2.442" height="2.443"/>
	<rect x="26.071" y="105.043" width="2.443" height="2.443"/>
	<rect x="28.515" y="105.043" fill="#F99E87" width="2.442" height="2.443"/>
	<rect x="30.957" y="105.043" fill="#D20000" width="2.443" height="2.443"/>
	<rect x="33.4" y="105.043" fill="#D20000" width="2.442" height="2.443"/>
	<rect x="35.843" y="105.043" fill="#D20000" width="2.443" height="2.443"/>
	<rect x="38.286" y="105.043" fill="#840B0B" width="2.442" height="2.443"/>
	<rect x="40.729" y="105.043" fill="#840B0B" width="2.443" height="2.443"/>
	<rect x="43.172" y="105.043" fill="#D20000" width="2.442" height="2.443"/>
	<rect x="45.614" y="105.043" fill="#D20000" width="2.443" height="2.443"/>
	<rect x="48.058" y="105.043" fill="#D20000" width="2.443" height="2.443"/>
	<rect x="50.501" y="105.043" fill="#D20000" width="2.442" height="2.443"/>
	<rect x="52.943" y="105.043" fill="#D20000" width="2.442" height="2.443"/>
	<rect x="55.386" y="105.043" fill="#D20000" width="2.443" height="2.443"/>
	<rect x="57.829" y="105.043" fill="#D20000" width="2.443" height="2.443"/>
	<rect x="60.272" y="105.043" fill="#840B0B" width="2.442" height="2.443"/>
	<rect x="62.715" y="105.043" width="2.442" height="2.443"/>
	<rect x="65.157" y="105.043" fill="#D20000" width="2.443" height="2.443"/>
	<rect x="67.601" y="105.043" fill="#D20000" width="2.443" height="2.443"/>
	<rect x="70.044" y="105.043" fill="#840B0B" width="2.442" height="2.443"/>
	<rect x="72.486" y="105.043" width="2.442" height="2.443"/>
	<rect x="79.815" y="105.043" width="2.442" height="2.443"/>
	<rect x="16.3" y="107.486" width="2.443" height="2.442"/>
	<rect x="18.743" y="107.486" fill="#F99E87" width="2.442" height="2.442"/>
	<rect x="21.186" y="107.486" width="2.443" height="2.442"/>
	<rect x="26.071" y="107.486" width="2.443" height="2.442"/>
	<rect x="28.515" y="107.486" fill="#D20000" width="2.442" height="2.442"/>
	<rect x="30.957" y="107.486" fill="#D20000" width="2.443" height="2.442"/>
	<rect x="33.4" y="107.486" fill="#D20000" width="2.442" height="2.442"/>
	<rect x="35.843" y="107.486" fill="#D20000" width="2.443" height="2.442"/>
	<rect x="38.286" y="107.486" width="2.442" height="2.442"/>
	<rect x="40.729" y="107.486" width="2.443" height="2.442"/>
	<rect x="43.172" y="107.486" fill="#D20000" width="2.442" height="2.442"/>
	<rect x="45.614" y="107.486" fill="#D20000" width="2.443" height="2.442"/>
	<rect x="48.058" y="107.486" fill="#D20000" width="2.443" height="2.442"/>
	<rect x="50.501" y="107.486" fill="#D20000" width="2.442" height="2.442"/>
	<rect x="52.943" y="107.486" fill="#D20000" width="2.442" height="2.442"/>
	<rect x="55.386" y="107.486" fill="#D20000" width="2.443" height="2.442"/>
	<rect x="57.829" y="107.486" fill="#D20000" width="2.443" height="2.442"/>
	<rect x="60.272" y="107.486" width="2.442" height="2.442"/>
	<rect x="62.715" y="107.486" fill="#D20000" width="2.442" height="2.442"/>
	<rect x="65.157" y="107.486" fill="#D20000" width="2.443" height="2.442"/>
	<rect x="67.601" y="107.486" fill="#D20000" width="2.443" height="2.442"/>
	<rect x="70.044" y="107.486" fill="#840B0B" width="2.442" height="2.442"/>
	<rect x="72.486" y="107.486" fill="#840B0B" width="2.442" height="2.442"/>
	<rect x="74.929" y="107.486" width="2.443" height="2.442"/>
	<rect x="77.372" y="107.486" width="2.443" height="2.442"/>
	<rect x="79.815" y="107.486" fill="#F99E87" width="2.442" height="2.442"/>
	<rect x="82.258" y="107.486" width="2.442" height="2.442"/>
	<rect x="16.3" y="109.929" width="2.443" height="2.442"/>
	<rect x="18.743" y="109.929" fill="#D20000" width="2.442" height="2.442"/>
	<rect x="21.186" y="109.929" fill="#D20000" width="2.443" height="2.442"/>
	<rect x="23.629" y="109.929" width="2.442" height="2.442"/>
	<rect x="26.071" y="109.929" fill="#D20000" width="2.443" height="2.442"/>
	<rect x="28.515" y="109.929" fill="#D20000" width="2.442" height="2.442"/>
	<rect x="30.957" y="109.929" fill="#D20000" width="2.443" height="2.442"/>
	<rect x="33.4" y="109.929" fill="#D20000" width="2.442" height="2.442"/>
	<rect x="35.843" y="109.929" fill="#D20000" width="2.443" height="2.442"/>
	<rect x="38.286" y="109.929" fill="#D20000" width="2.442" height="2.442"/>
	<rect x="40.729" y="109.929" fill="#D20000" width="2.443" height="2.442"/>
	<rect x="43.172" y="109.929" fill="#D20000" width="2.442" height="2.442"/>
	<rect x="45.614" y="109.929" fill="#D20000" width="2.443" height="2.442"/>
	<rect x="48.058" y="109.929" fill="#F99E87" width="2.443" height="2.442"/>
	<rect x="50.501" y="109.929" fill="#840B0B" width="2.442" height="2.442"/>
	<rect x="52.943" y="109.929" width="2.442" height="2.442"/>
	<rect x="55.386" y="109.929" fill="#D20000" width="2.443" height="2.442"/>
	<rect x="57.829" y="109.929" fill="#D20000" width="2.443" height="2.442"/>
	<rect x="60.272" y="109.929" fill="#D20000" width="2.442" height="2.442"/>
	<rect x="62.715" y="109.929" fill="#D20000" width="2.442" height="2.442"/>
	<rect x="65.157" y="109.929" fill="#D20000" width="2.443" height="2.442"/>
	<rect x="67.601" y="109.929" fill="#D20000" width="2.443" height="2.442"/>
	<rect x="70.044" y="109.929" fill="#840B0B" width="2.442" height="2.442"/>
	<rect x="72.486" y="109.929" fill="#840B0B" width="2.442" height="2.442"/>
	<rect x="74.929" y="109.929" fill="#D20000" width="2.443" height="2.442"/>
	<rect x="77.372" y="109.929" fill="#D20000" width="2.443" height="2.442"/>
	<rect x="79.815" y="109.929" fill="#D20000" width="2.442" height="2.442"/>
	<rect x="82.258" y="109.929" width="2.442" height="2.442"/>
	<rect x="16.3" y="112.371" width="2.443" height="2.443"/>
	<rect x="18.743" y="112.371" fill="#D20000" width="2.442" height="2.443"/>
	<rect x="21.186" y="112.371" fill="#840B0B" width="2.443" height="2.443"/>
	<rect x="23.629" y="112.371" fill="#840B0B" width="2.442" height="2.443"/>
	<rect x="26.071" y="112.371" fill="#D20000" width="2.443" height="2.443"/>
	<rect x="28.515" y="112.371" fill="#D20000" width="2.442" height="2.443"/>
	<rect x="30.957" y="112.371" fill="#D20000" width="2.443" height="2.443"/>
	<rect x="33.4" y="112.371" fill="#D20000" width="2.442" height="2.443"/>
	<rect x="35.843" y="112.371" fill="#D20000" width="2.443" height="2.443"/>
	<rect x="38.286" y="112.371" fill="#D20000" width="2.442" height="2.443"/>
	<rect x="40.729" y="112.371" fill="#D20000" width="2.443" height="2.443"/>
	<rect x="43.172" y="112.371" fill="#D20000" width="2.442" height="2.443"/>
	<rect x="45.614" y="112.371" fill="#D20000" width="2.443" height="2.443"/>
	<rect x="48.058" y="112.371" fill="#840B0B" width="2.443" height="2.443"/>
	<rect x="50.501" y="112.371" fill="#840B0B" width="2.442" height="2.443"/>
	<rect x="52.943" y="112.371" width="2.442" height="2.443"/>
	<rect x="55.386" y="112.371" fill="#D20000" width="2.443" height="2.443"/>
	<rect x="57.829" y="112.371" fill="#D20000" width="2.443" height="2.443"/>
	<rect x="60.272" y="112.371" fill="#D20000" width="2.442" height="2.443"/>
	<rect x="62.715" y="112.371" fill="#D20000" width="2.442" height="2.443"/>
	<rect x="65.157" y="112.371" fill="#D20000" width="2.443" height="2.443"/>
	<rect x="67.601" y="112.371" fill="#D20000" width="2.443" height="2.443"/>
	<rect x="70.044" y="112.371" fill="#840B0B" width="2.442" height="2.443"/>
	<rect x="72.486" y="112.371" width="2.442" height="2.443"/>
	<rect x="74.929" y="112.371" width="2.443" height="2.443"/>
	<rect x="77.372" y="112.371" fill="#840B0B" width="2.443" height="2.443"/>
	<rect x="79.815" y="112.371" fill="#D20000" width="2.442" height="2.443"/>
	<rect x="82.258" y="112.371" width="2.442" height="2.443"/>
	<rect x="16.3" y="114.814" width="2.443" height="2.443"/>
	<rect x="18.743" y="114.814" fill="#840B0B" width="2.442" height="2.443"/>
	<rect x="21.186" y="114.814" width="2.443" height="2.443"/>
	<rect x="23.629" y="114.814" width="2.442" height="2.443"/>
	<rect x="26.071" y="114.814" fill="#840B0B" width="2.443" height="2.443"/>
	<rect x="28.515" y="114.814" fill="#D20000" width="2.442" height="2.443"/>
	<rect x="30.957" y="114.814" fill="#D20000" width="2.443" height="2.443"/>
	<rect x="33.4" y="114.814" fill="#D20000" width="2.442" height="2.443"/>
	<rect x="35.843" y="114.814" fill="#D20000" width="2.443" height="2.443"/>
	<rect x="38.286" y="114.814" fill="#D20000" width="2.442" height="2.443"/>
	<rect x="40.729" y="114.814" fill="#D20000" width="2.443" height="2.443"/>
	<rect x="43.172" y="114.814" fill="#D20000" width="2.442" height="2.443"/>
	<rect x="45.614" y="114.814" fill="#D20000" width="2.443" height="2.443"/>
	<rect x="48.058" y="114.814" width="2.443" height="2.443"/>
	<rect x="50.501" y="114.814" width="2.442" height="2.443"/>
	<rect x="52.943" y="114.814" fill="#D20000" width="2.442" height="2.443"/>
	<rect x="55.386" y="114.814" fill="#D20000" width="2.443" height="2.443"/>
	<rect x="57.829" y="114.814" fill="#D20000" width="2.443" height="2.443"/>
	<rect x="60.272" y="114.814" fill="#D20000" width="2.442" height="2.443"/>
	<rect x="62.715" y="114.814" fill="#D20000" width="2.442" height="2.443"/>
	<rect x="65.157" y="114.814" fill="#D20000" width="2.443" height="2.443"/>
	<rect x="67.601" y="114.814" fill="#840B0B" width="2.443" height="2.443"/>
	<rect x="70.044" y="114.814" fill="#840B0B" width="2.442" height="2.443"/>
	<rect x="72.486" y="114.814" width="2.442" height="2.443"/>
	<rect x="77.372" y="114.814" width="2.443" height="2.443"/>
	<rect x="79.815" y="114.814" fill="#840B0B" width="2.442" height="2.443"/>
	<rect x="82.258" y="114.814" width="2.442" height="2.443"/>
	<rect x="18.743" y="117.258" width="2.442" height="2.442"/>
	<rect x="26.071" y="117.258" width="2.443" height="2.442"/>
	<rect x="28.515" y="117.258" fill="#840B0B" width="2.442" height="2.442"/>
	<rect x="30.957" y="117.258" fill="#D20000" width="2.443" height="2.442"/>
	<rect x="33.4" y="117.258" fill="#D20000" width="2.442" height="2.442"/>
	<rect x="35.843" y="117.258" fill="#D20000" width="2.443" height="2.442"/>
	<rect x="38.286" y="117.258" fill="#F99E87" width="2.442" height="2.442"/>
	<rect x="40.729" y="117.258" fill="#840B0B" width="2.443" height="2.442"/>
	<rect x="43.172" y="117.258" fill="#D20000" width="2.442" height="2.442"/>
	<rect x="45.614" y="117.258" fill="#D20000" width="2.443" height="2.442"/>
	<rect x="48.058" y="117.258" fill="#D20000" width="2.443" height="2.442"/>
	<rect x="50.501" y="117.258" fill="#D20000" width="2.442" height="2.442"/>
	<rect x="52.943" y="117.258" fill="#D20000" width="2.442" height="2.442"/>
	<rect x="55.386" y="117.258" fill="#D20000" width="2.443" height="2.442"/>
	<rect x="57.829" y="117.258" fill="#D20000" width="2.443" height="2.442"/>
	<rect x="60.272" y="117.258" fill="#840B0B" width="2.442" height="2.442"/>
	<rect x="62.715" y="117.258" width="2.442" height="2.442"/>
	<rect x="65.157" y="117.258" fill="#D20000" width="2.443" height="2.442"/>
	<rect x="67.601" y="117.258" fill="#840B0B" width="2.443" height="2.442"/>
	<rect x="70.044" y="117.258" fill="#840B0B" width="2.442" height="2.442"/>
	<rect x="72.486" y="117.258" width="2.442" height="2.442"/>
	<rect x="79.815" y="117.258" width="2.442" height="2.442"/>
	<rect x="28.515" y="119.7" width="2.442" height="2.442"/>
	<rect x="30.957" y="119.7" fill="#840B0B" width="2.443" height="2.442"/>
	<rect x="33.4" y="119.7" fill="#D20000" width="2.442" height="2.442"/>
	<rect x="35.843" y="119.7" fill="#D20000" width="2.443" height="2.442"/>
	<rect x="38.286" y="119.7" fill="#840B0B" width="2.442" height="2.442"/>
	<rect x="40.729" y="119.7" fill="#840B0B" width="2.443" height="2.442"/>
	<rect x="43.172" y="119.7" fill="#D20000" width="2.442" height="2.442"/>
	<rect x="45.614" y="119.7" fill="#D20000" width="2.443" height="2.442"/>
	<rect x="48.058" y="119.7" fill="#D20000" width="2.443" height="2.442"/>
	<rect x="50.501" y="119.7" fill="#D20000" width="2.442" height="2.442"/>
	<rect x="52.943" y="119.7" fill="#D20000" width="2.442" height="2.442"/>
	<rect x="55.386" y="119.7" fill="#D20000" width="2.443" height="2.442"/>
	<rect x="57.829" y="119.7" fill="#D20000" width="2.443" height="2.442"/>
	<rect x="60.272" y="119.7" fill="#840B0B" width="2.442" height="2.442"/>
	<rect x="62.715" y="119.7" width="2.442" height="2.442"/>
	<rect x="65.157" y="119.7" fill="#D20000" width="2.443" height="2.442"/>
	<rect x="67.601" y="119.7" fill="#840B0B" width="2.443" height="2.442"/>
	<rect x="70.044" y="119.7" width="2.442" height="2.442"/>
	<rect x="30.957" y="122.143" width="2.443" height="2.443"/>
	<rect x="33.4" y="122.143" fill="#840B0B" width="2.442" height="2.443"/>
	<rect x="35.843" y="122.143" fill="#D20000" width="2.443" height="2.443"/>
	<rect x="38.286" y="122.143" fill="#D20000" width="2.442" height="2.443"/>
	<rect x="40.729" y="122.143" fill="#D20000" width="2.443" height="2.443"/>
	<rect x="43.172" y="122.143" fill="#D20000" width="2.442" height="2.443"/>
	<rect x="45.614" y="122.143" fill="#D20000" width="2.443" height="2.443"/>
	<rect x="48.058" y="122.143" fill="#F99E87" width="2.443" height="2.443"/>
	<rect x="50.501" y="122.143" fill="#840B0B" width="2.442" height="2.443"/>
	<rect x="52.943" y="122.143" width="2.442" height="2.443"/>
	<rect x="55.386" y="122.143" fill="#D20000" width="2.443" height="2.443"/>
	<rect x="57.829" y="122.143" fill="#D20000" width="2.443" height="2.443"/>
	<rect x="60.272" y="122.143" fill="#D20000" width="2.442" height="2.443"/>
	<rect x="62.715" y="122.143" fill="#840B0B" width="2.442" height="2.443"/>
	<rect x="65.157" y="122.143" fill="#840B0B" width="2.443" height="2.443"/>
	<rect x="67.601" y="122.143" width="2.443" height="2.443"/>
	<rect x="70.044" y="122.143" width="2.442" height="2.443"/>
	<rect x="30.957" y="124.586" width="2.443" height="2.442"/>
	<rect x="33.4" y="124.586" fill="#840B0B" width="2.442" height="2.442"/>
	<rect x="35.843" y="124.586" fill="#840B0B" width="2.443" height="2.442"/>
	<rect x="38.286" y="124.586" fill="#840B0B" width="2.442" height="2.442"/>
	<rect x="40.729" y="124.586" fill="#D20000" width="2.443" height="2.442"/>
	<rect x="43.172" y="124.586" fill="#D20000" width="2.442" height="2.442"/>
	<rect x="45.614" y="124.586" fill="#D20000" width="2.443" height="2.442"/>
	<rect x="48.058" y="124.586" fill="#840B0B" width="2.443" height="2.442"/>
	<rect x="50.501" y="124.586" fill="#840B0B" width="2.442" height="2.442"/>
	<rect x="52.943" y="124.586" width="2.442" height="2.442"/>
	<rect x="55.386" y="124.586" fill="#D20000" width="2.443" height="2.442"/>
	<rect x="57.829" y="124.586" fill="#840B0B" width="2.443" height="2.442"/>
	<rect x="60.272" y="124.586" fill="#840B0B" width="2.442" height="2.442"/>
	<rect x="62.715" y="124.586" fill="#840B0B" width="2.442" height="2.442"/>
	<rect x="65.157" y="124.586" fill="#840B0B" width="2.443" height="2.442"/>
	<rect x="67.601" y="124.586" width="2.443" height="2.442"/>
	<rect x="30.957" y="127.028" width="2.443" height="2.443"/>
	<rect x="33.4" y="127.028" width="2.442" height="2.443"/>
	<rect x="35.843" y="127.028" fill="#840B0B" width="2.443" height="2.443"/>
	<rect x="38.286" y="127.028" fill="#840B0B" width="2.442" height="2.443"/>
	<rect x="40.729" y="127.028" fill="#840B0B" width="2.443" height="2.443"/>
	<rect x="43.172" y="127.028" fill="#840B0B" width="2.442" height="2.443"/>
	<rect x="45.614" y="127.028" fill="#840B0B" width="2.443" height="2.443"/>
	<rect x="48.058" y="127.028" width="2.443" height="2.443"/>
	<rect x="50.501" y="127.028" width="2.442" height="2.443"/>
	<rect x="52.943" y="127.028" fill="#840B0B" width="2.442" height="2.443"/>
	<rect x="55.386" y="127.028" fill="#840B0B" width="2.443" height="2.443"/>
	<rect x="57.829" y="127.028" fill="#840B0B" width="2.443" height="2.443"/>
	<rect x="60.272" y="127.028" fill="#840B0B" width="2.442" height="2.443"/>
	<rect x="62.715" y="127.028" fill="#840B0B" width="2.442" height="2.443"/>
	<rect x="65.157" y="127.028" fill="#840B0B" width="2.443" height="2.443"/>
	<rect x="67.601" y="127.028" width="2.443" height="2.443"/>
	<rect x="28.515" y="129.472" width="2.442" height="2.442"/>
	<rect x="30.957" y="129.472" fill="#840B0B" width="2.443" height="2.442"/>
	<rect x="33.4" y="129.472" width="2.442" height="2.442"/>
	<rect x="35.843" y="129.472" width="2.443" height="2.442"/>
	<rect x="38.286" y="129.472" width="2.442" height="2.442"/>
	<rect x="40.729" y="129.472" fill="#840B0B" width="2.443" height="2.442"/>
	<rect x="43.172" y="129.472" fill="#840B0B" width="2.442" height="2.442"/>
	<rect x="45.614" y="129.472" fill="#840B0B" width="2.443" height="2.442"/>
	<rect x="48.058" y="129.472" fill="#840B0B" width="2.443" height="2.442"/>
	<rect x="50.501" y="129.472" fill="#840B0B" width="2.442" height="2.442"/>
	<rect x="52.943" y="129.472" fill="#840B0B" width="2.442" height="2.442"/>
	<rect x="55.386" y="129.472" fill="#840B0B" width="2.443" height="2.442"/>
	<rect x="57.829" y="129.472" fill="#840B0B" width="2.443" height="2.442"/>
	<rect x="60.272" y="129.472" width="2.442" height="2.442"/>
	<rect x="62.715" y="129.472" width="2.442" height="2.442"/>
	<rect x="65.157" y="129.472" width="2.443" height="2.442"/>
	<rect x="67.601" y="129.472" fill="#840B0B" width="2.443" height="2.442"/>
	<rect x="70.044" y="129.472" width="2.442" height="2.442"/>
	<rect x="26.071" y="131.914" width="2.443" height="2.443"/>
	<rect x="28.515" y="131.914" fill="#840B0B" width="2.442" height="2.443"/>
	<rect x="30.957" y="131.914" width="2.443" height="2.443"/>
	<rect x="40.729" y="131.914" width="2.443" height="2.443"/>
	<rect x="43.172" y="131.914" fill="#840B0B" width="2.442" height="2.443"/>
	<rect x="45.614" y="131.914" fill="#840B0B" width="2.443" height="2.443"/>
	<rect x="48.058" y="131.914" fill="#840B0B" width="2.443" height="2.443"/>
	<rect x="50.501" y="131.914" fill="#840B0B" width="2.442" height="2.443"/>
	<rect x="52.943" y="131.914" fill="#840B0B" width="2.442" height="2.443"/>
	<rect x="55.386" y="131.914" fill="#840B0B" width="2.443" height="2.443"/>
	<rect x="57.829" y="131.914" width="2.443" height="2.443"/>
	<rect x="67.601" y="131.914" width="2.443" height="2.443"/>
	<rect x="70.044" y="131.914" fill="#840B0B" width="2.442" height="2.443"/>
	<rect x="72.486" y="131.914" width="2.442" height="2.443"/>
	<rect x="21.186" y="134.357" width="2.443" height="2.442"/>
	<rect x="23.629" y="134.357" width="2.442" height="2.442"/>
	<rect x="26.071" y="134.357" fill="#D20000" width="2.443" height="2.442"/>
	<rect x="28.515" y="134.357" width="2.442" height="2.442"/>
	<rect x="43.172" y="134.357" width="2.442" height="2.442"/>
	<rect x="45.614" y="134.357" width="2.443" height="2.442"/>
	<rect x="48.058" y="134.357" fill="#840B0B" width="2.443" height="2.442"/>
	<rect x="50.501" y="134.357" width="2.442" height="2.442"/>
	<rect x="52.943" y="134.357" width="2.442" height="2.442"/>
	<rect x="55.386" y="134.357" width="2.443" height="2.442"/>
	<rect x="70.044" y="134.357" width="2.442" height="2.442"/>
	<rect x="72.486" y="134.357" fill="#840B0B" width="2.442" height="2.442"/>
	<rect x="74.929" y="134.357" width="2.443" height="2.442"/>
	<rect x="77.372" y="134.357" width="2.443" height="2.442"/>
	<rect x="21.186" y="136.8" width="2.443" height="2.442"/>
	<rect x="23.629" y="136.8" fill="#F99E87" width="2.442" height="2.442"/>
	<rect x="26.071" y="136.8" width="2.443" height="2.442"/>
	<rect x="45.614" y="136.8" width="2.443" height="2.442"/>
	<rect x="48.058" y="136.8" fill="#840B0B" width="2.443" height="2.442"/>
	<rect x="50.501" y="136.8" width="2.442" height="2.442"/>
	<rect x="65.157" y="136.8" width="2.443" height="2.442"/>
	<rect x="72.486" y="136.8" width="2.442" height="2.442"/>
	<rect x="74.929" y="136.8" fill="#D20000" width="2.443" height="2.442"/>
	<rect x="77.372" y="136.8" width="2.443" height="2.442"/>
	<rect x="23.629" y="139.242" width="2.442" height="2.443"/>
	<rect x="26.071" y="139.242" width="2.443" height="2.443"/>
	<rect x="45.614" y="139.242" width="2.443" height="2.443"/>
	<rect x="48.058" y="139.242" fill="#840B0B" width="2.443" height="2.443"/>
	<rect x="50.501" y="139.242" fill="#840B0B" width="2.442" height="2.443"/>
	<rect x="52.943" y="139.242" width="2.442" height="2.443"/>
	<rect x="60.272" y="139.242" fill="#D20000" width="2.442" height="2.443"/>
	<rect x="62.715" y="139.242" width="2.442" height="2.443"/>
	<rect x="72.486" y="139.242" width="2.442" height="2.443"/>
	<rect x="74.929" y="139.242" width="2.443" height="2.443"/>
	<rect x="43.172" y="141.686" width="2.442" height="2.443"/>
	<rect x="45.614" y="141.686" fill="#F99E87" width="2.443" height="2.443"/>
	<rect x="48.058" y="141.686" fill="#D20000" width="2.443" height="2.443"/>
	<rect x="50.501" y="141.686" fill="#840B0B" width="2.442" height="2.443"/>
	<rect x="52.943" y="141.686" fill="#840B0B" width="2.442" height="2.443"/>
	<rect x="55.386" y="141.686" width="2.443" height="2.443"/>
	<rect x="60.272" y="141.686" width="2.442" height="2.443"/>
	<rect x="62.715" y="141.686" width="2.442" height="2.443"/>
	<rect x="45.614" y="144.129" width="2.443" height="2.442"/>
	<rect x="48.058" y="144.129" width="2.443" height="2.442"/>
	<rect x="50.501" y="144.129" width="2.442" height="2.442"/>
	<rect x="52.943" y="144.129" width="2.442" height="2.442"/>
</g>
</svg>
