<?xml version="1.0" encoding="utf-8"?>
<!-- Generator: Adobe Illustrator 26.0.1, SVG Export Plug-In . SVG Version: 6.00 Build 0)  -->
<svg version="1.1" id="Layer_1" shape-rendering="crispEdges"
	 xmlns="http://www.w3.org/2000/svg" xmlns:xlink="http://www.w3.org/1999/xlink" x="0px" y="0px" viewBox="0 0 101 171"
	 style="enable-background:new 0 0 101 171;" xml:space="preserve">
<style type="text/css">
	.st0{fill:#5F5F5F;}
	.st1{fill:#878787;}
	.st2{fill:#045B78;}
	.st3{fill:#3288A5;}
	.st4{fill:#6FADC1;}
	.st5{fill:#3E3E3E;}
	.st6{fill:#847E87;}
</style>
<g>
	<path d="M9.5,41.9h3.2v3.2H9.5V41.9z"/>
	<path d="M12.6,41.9h3.2v3.2h-3.2V41.9z"/>
	<path d="M15.8,41.9h3.2v3.2h-3.2V41.9z"/>
	<path d="M18.9,41.9h3.2v3.2h-3.2V41.9z"/>
	<path d="M22.1,41.9h3.2v3.2h-3.2V41.9z"/>
	<path d="M25.2,41.9h3.2v3.2h-3.2V41.9z"/>
	<path d="M28.4,41.9h3.2v3.2h-3.2V41.9z"/>
	<path d="M31.5,41.9h3.2v3.2h-3.2V41.9z"/>
	<path d="M34.7,41.9h3.2v3.2h-3.2V41.9z"/>
	<path d="M37.8,41.9H41v3.2h-3.2V41.9z"/>
	<path d="M41,41.9h3.2v3.2H41V41.9z"/>
	<path d="M44.1,41.9h3.2v3.2h-3.2V41.9z"/>
	<path d="M47.3,41.9h3.2v3.2h-3.2V41.9z"/>
	<path d="M50.4,41.9h3.2v3.2h-3.2V41.9z"/>
	<path d="M53.6,41.9h3.2v3.2h-3.2V41.9z"/>
	<path d="M56.7,41.9h3.2v3.2h-3.2V41.9z"/>
	<path d="M59.9,41.9H63v3.2h-3.2V41.9z"/>
	<path d="M63,41.9h3.2v3.2H63V41.9z"/>
	<path d="M66.2,41.9h3.2v3.2h-3.2V41.9z"/>
	<path d="M69.4,41.9h3.2v3.2h-3.2V41.9z"/>
	<path d="M72.5,41.9h3.2v3.2h-3.2V41.9z"/>
	<path d="M75.7,41.9h3.2v3.2h-3.2V41.9z"/>
	<path d="M78.8,41.9H82v3.2h-3.2V41.9z"/>
	<path d="M82,41.9h3.2v3.2H82V41.9z"/>
	<path d="M85.1,41.9h3.2v3.2h-3.2V41.9z"/>
	<path d="M88.3,41.9h3.2v3.2h-3.2V41.9z"/>
	<path d="M9.5,45.1h3.2v3.2H9.5V45.1z"/>
	<path class="st0" d="M12.6,45.1h3.2v3.2h-3.2V45.1z"/>
	<path class="st1" d="M15.8,45.1h3.2v3.2h-3.2V45.1z"/>
	<path class="st1" d="M18.9,45.1h3.2v3.2h-3.2V45.1z"/>
	<path class="st1" d="M22.1,45.1h3.2v3.2h-3.2V45.1z"/>
	<path class="st1" d="M25.2,45.1h3.2v3.2h-3.2V45.1z"/>
	<path class="st1" d="M28.4,45.1h3.2v3.2h-3.2V45.1z"/>
	<path class="st1" d="M31.5,45.1h3.2v3.2h-3.2V45.1z"/>
	<path class="st1" d="M34.7,45.1h3.2v3.2h-3.2V45.1z"/>
	<path class="st1" d="M37.8,45.1H41v3.2h-3.2V45.1z"/>
	<path class="st1" d="M41,45.1h3.2v3.2H41V45.1z"/>
	<path class="st1" d="M44.1,45.1h3.2v3.2h-3.2V45.1z"/>
	<path class="st1" d="M47.3,45.1h3.2v3.2h-3.2V45.1z"/>
	<path class="st1" d="M50.4,45.1h3.2v3.2h-3.2V45.1z"/>
	<path class="st1" d="M53.6,45.1h3.2v3.2h-3.2V45.1z"/>
	<path class="st1" d="M56.7,45.1h3.2v3.2h-3.2V45.1z"/>
	<path class="st1" d="M59.9,45.1H63v3.2h-3.2V45.1z"/>
	<path class="st1" d="M63,45.1h3.2v3.2H63V45.1z"/>
	<path class="st1" d="M66.2,45.1h3.2v3.2h-3.2V45.1z"/>
	<path class="st1" d="M69.4,45.1h3.2v3.2h-3.2V45.1z"/>
	<path class="st1" d="M72.5,45.1h3.2v3.2h-3.2V45.1z"/>
	<path class="st1" d="M75.7,45.1h3.2v3.2h-3.2V45.1z"/>
	<path class="st1" d="M78.8,45.1H82v3.2h-3.2V45.1z"/>
	<path class="st1" d="M82,45.1h3.2v3.2H82V45.1z"/>
	<path class="st0" d="M85.1,45.1h3.2v3.2h-3.2V45.1z"/>
	<path d="M88.3,45.1h3.2v3.2h-3.2V45.1z"/>
	<path d="M9.5,48.2h3.2v3.2H9.5V48.2z"/>
	<path class="st1" d="M12.6,48.2h3.2v3.2h-3.2V48.2z"/>
	<path d="M15.8,48.2h3.2v3.2h-3.2V48.2z"/>
	<path d="M18.9,48.2h3.2v3.2h-3.2V48.2z"/>
	<path d="M22.1,48.2h3.2v3.2h-3.2V48.2z"/>
	<path d="M25.2,48.2h3.2v3.2h-3.2V48.2z"/>
	<path d="M28.4,48.2h3.2v3.2h-3.2V48.2z"/>
	<path d="M31.5,48.2h3.2v3.2h-3.2V48.2z"/>
	<path d="M34.7,48.2h3.2v3.2h-3.2V48.2z"/>
	<path d="M37.8,48.2H41v3.2h-3.2V48.2z"/>
	<path d="M41,48.2h3.2v3.2H41V48.2z"/>
	<path d="M44.1,48.2h3.2v3.2h-3.2V48.2z"/>
	<path d="M47.3,48.2h3.2v3.2h-3.2V48.2z"/>
	<path d="M50.4,48.2h3.2v3.2h-3.2V48.2z"/>
	<path d="M53.6,48.2h3.2v3.2h-3.2V48.2z"/>
	<path d="M56.7,48.2h3.2v3.2h-3.2V48.2z"/>
	<path d="M59.9,48.2H63v3.2h-3.2V48.2z"/>
	<path d="M63,48.2h3.2v3.2H63V48.2z"/>
	<path d="M66.2,48.2h3.2v3.2h-3.2V48.2z"/>
	<path d="M69.4,48.2h3.2v3.2h-3.2V48.2z"/>
	<path d="M72.5,48.2h3.2v3.2h-3.2V48.2z"/>
	<path d="M75.7,48.2h3.2v3.2h-3.2V48.2z"/>
	<path d="M78.8,48.2H82v3.2h-3.2V48.2z"/>
	<path d="M82,48.2h3.2v3.2H82V48.2z"/>
	<path class="st1" d="M85.1,48.2h3.2v3.2h-3.2V48.2z"/>
	<path d="M88.3,48.2h3.2v3.2h-3.2V48.2z"/>
	<path d="M9.5,51.4h3.2v3.2H9.5V51.4z"/>
	<path class="st1" d="M12.6,51.4h3.2v3.2h-3.2V51.4z"/>
	<path d="M15.8,51.4h3.2v3.2h-3.2V51.4z"/>
	<path class="st2" d="M18.9,51.4h3.2v3.2h-3.2V51.4z"/>
	<path class="st2" d="M22.1,51.4h3.2v3.2h-3.2V51.4z"/>
	<path class="st2" d="M25.2,51.4h3.2v3.2h-3.2V51.4z"/>
	<path class="st2" d="M28.4,51.4h3.2v3.2h-3.2V51.4z"/>
	<path class="st2" d="M31.5,51.4h3.2v3.2h-3.2V51.4z"/>
	<path class="st2" d="M34.7,51.4h3.2v3.2h-3.2V51.4z"/>
	<path class="st3" d="M37.8,51.4H41v3.2h-3.2V51.4z"/>
	<path class="st3" d="M41,51.4h3.2v3.2H41V51.4z"/>
	<path class="st3" d="M44.1,51.4h3.2v3.2h-3.2V51.4z"/>
	<path d="M47.3,51.4h3.2v3.2h-3.2V51.4z"/>
	<path d="M50.4,51.4h3.2v3.2h-3.2V51.4z"/>
	<path class="st3" d="M53.6,51.4h3.2v3.2h-3.2V51.4z"/>
	<path class="st2" d="M56.7,51.4h3.2v3.2h-3.2V51.4z"/>
	<path class="st2" d="M59.9,51.4H63v3.2h-3.2V51.4z"/>
	<path class="st2" d="M63,51.4h3.2v3.2H63V51.4z"/>
	<path class="st2" d="M66.2,51.4h3.2v3.2h-3.2V51.4z"/>
	<path class="st2" d="M69.4,51.4h3.2v3.2h-3.2V51.4z"/>
	<path class="st2" d="M72.5,51.4h3.2v3.2h-3.2V51.4z"/>
	<path class="st2" d="M75.7,51.4h3.2v3.2h-3.2V51.4z"/>
	<path class="st2" d="M78.8,51.4H82v3.2h-3.2V51.4z"/>
	<path d="M82,51.4h3.2v3.2H82V51.4z"/>
	<path class="st1" d="M85.1,51.4h3.2v3.2h-3.2V51.4z"/>
	<path d="M88.3,51.4h3.2v3.2h-3.2V51.4z"/>
	<path d="M9.5,54.5h3.2v3.2H9.5V54.5z"/>
	<path class="st1" d="M12.6,54.5h3.2v3.2h-3.2V54.5z"/>
	<path d="M15.8,54.5h3.2v3.2h-3.2V54.5z"/>
	<path class="st2" d="M18.9,54.5h3.2v3.2h-3.2V54.5z"/>
	<path class="st2" d="M22.1,54.5h3.2v3.2h-3.2V54.5z"/>
	<path class="st2" d="M25.2,54.5h3.2v3.2h-3.2V54.5z"/>
	<path class="st2" d="M28.4,54.5h3.2v3.2h-3.2V54.5z"/>
	<path class="st2" d="M31.5,54.5h3.2v3.2h-3.2V54.5z"/>
	<path class="st3" d="M34.7,54.5h3.2v3.2h-3.2V54.5z"/>
	<path class="st3" d="M37.8,54.5H41v3.2h-3.2V54.5z"/>
	<path class="st3" d="M41,54.5h3.2v3.2H41V54.5z"/>
	<path class="st3" d="M44.1,54.5h3.2v3.2h-3.2V54.5z"/>
	<path d="M47.3,54.5h3.2v3.2h-3.2V54.5z"/>
	<path d="M50.4,54.5h3.2v3.2h-3.2V54.5z"/>
	<path class="st2" d="M53.6,54.5h3.2v3.2h-3.2V54.5z"/>
	<path class="st2" d="M56.7,54.5h3.2v3.2h-3.2V54.5z"/>
	<path class="st2" d="M59.9,54.5H63v3.2h-3.2V54.5z"/>
	<path class="st2" d="M63,54.5h3.2v3.2H63V54.5z"/>
	<path class="st2" d="M66.2,54.5h3.2v3.2h-3.2V54.5z"/>
	<path class="st2" d="M69.4,54.5h3.2v3.2h-3.2V54.5z"/>
	<path class="st2" d="M72.5,54.5h3.2v3.2h-3.2V54.5z"/>
	<path class="st2" d="M75.7,54.5h3.2v3.2h-3.2V54.5z"/>
	<path class="st3" d="M78.8,54.5H82v3.2h-3.2V54.5z"/>
	<path d="M82,54.5h3.2v3.2H82V54.5z"/>
	<path class="st1" d="M85.1,54.5h3.2v3.2h-3.2V54.5z"/>
	<path d="M88.3,54.5h3.2v3.2h-3.2V54.5z"/>
	<path d="M9.5,57.7h3.2v3.2H9.5V57.7z"/>
	<path class="st1" d="M12.6,57.7h3.2v3.2h-3.2V57.7z"/>
	<path d="M15.8,57.7h3.2v3.2h-3.2V57.7z"/>
	<path class="st2" d="M18.9,57.7h3.2v3.2h-3.2V57.7z"/>
	<path class="st2" d="M22.1,57.7h3.2v3.2h-3.2V57.7z"/>
	<path class="st2" d="M25.2,57.7h3.2v3.2h-3.2V57.7z"/>
	<path class="st2" d="M28.4,57.7h3.2v3.2h-3.2V57.7z"/>
	<path class="st3" d="M31.5,57.7h3.2v3.2h-3.2V57.7z"/>
	<path class="st3" d="M34.7,57.7h3.2v3.2h-3.2V57.7z"/>
	<path class="st3" d="M37.8,57.7H41v3.2h-3.2V57.7z"/>
	<path class="st3" d="M41,57.7h3.2v3.2H41V57.7z"/>
	<path class="st3" d="M44.1,57.7h3.2v3.2h-3.2V57.7z"/>
	<path d="M47.3,57.7h3.2v3.2h-3.2V57.7z"/>
	<path d="M50.4,57.7h3.2v3.2h-3.2V57.7z"/>
	<path class="st2" d="M53.6,57.7h3.2v3.2h-3.2V57.7z"/>
	<path class="st2" d="M56.7,57.7h3.2v3.2h-3.2V57.7z"/>
	<path class="st2" d="M59.9,57.7H63v3.2h-3.2V57.7z"/>
	<path class="st2" d="M63,57.7h3.2v3.2H63V57.7z"/>
	<path class="st2" d="M66.2,57.7h3.2v3.2h-3.2V57.7z"/>
	<path class="st2" d="M69.4,57.7h3.2v3.2h-3.2V57.7z"/>
	<path class="st2" d="M72.5,57.7h3.2v3.2h-3.2V57.7z"/>
	<path class="st3" d="M75.7,57.7h3.2v3.2h-3.2V57.7z"/>
	<path class="st4" d="M78.8,57.7H82v3.2h-3.2V57.7z"/>
	<path d="M82,57.7h3.2v3.2H82V57.7z"/>
	<path class="st1" d="M85.1,57.7h3.2v3.2h-3.2V57.7z"/>
	<path d="M88.3,57.7h3.2v3.2h-3.2V57.7z"/>
	<path d="M9.5,60.8h3.2V64H9.5V60.8z"/>
	<path class="st1" d="M12.6,60.8h3.2V64h-3.2V60.8z"/>
	<path d="M15.8,60.8h3.2V64h-3.2V60.8z"/>
	<path class="st2" d="M18.9,60.8h3.2V64h-3.2V60.8z"/>
	<path class="st2" d="M22.1,60.8h3.2V64h-3.2V60.8z"/>
	<path class="st2" d="M25.2,60.8h3.2V64h-3.2V60.8z"/>
	<path class="st3" d="M28.4,60.8h3.2V64h-3.2V60.8z"/>
	<path class="st3" d="M31.5,60.8h3.2V64h-3.2V60.8z"/>
	<path class="st3" d="M34.7,60.8h3.2V64h-3.2V60.8z"/>
	<path class="st3" d="M37.8,60.8H41V64h-3.2V60.8z"/>
	<path class="st3" d="M41,60.8h3.2V64H41V60.8z"/>
	<path class="st3" d="M44.1,60.8h3.2V64h-3.2V60.8z"/>
	<path d="M47.3,60.8h3.2V64h-3.2V60.8z"/>
	<path d="M50.4,60.8h3.2V64h-3.2V60.8z"/>
	<path class="st2" d="M53.6,60.8h3.2V64h-3.2V60.8z"/>
	<path class="st2" d="M56.7,60.8h3.2V64h-3.2V60.8z"/>
	<path class="st2" d="M59.9,60.8H63V64h-3.2V60.8z"/>
	<path class="st2" d="M63,60.8h3.2V64H63V60.8z"/>
	<path class="st2" d="M66.2,60.8h3.2V64h-3.2V60.8z"/>
	<path class="st2" d="M69.4,60.8h3.2V64h-3.2V60.8z"/>
	<path class="st3" d="M72.5,60.8h3.2V64h-3.2V60.8z"/>
	<path class="st4" d="M75.7,60.8h3.2V64h-3.2V60.8z"/>
	<path class="st3" d="M78.8,60.8H82V64h-3.2V60.8z"/>
	<path d="M82,60.8h3.2V64H82V60.8z"/>
	<path class="st1" d="M85.1,60.8h3.2V64h-3.2V60.8z"/>
	<path d="M88.3,60.8h3.2V64h-3.2V60.8z"/>
	<path d="M9.5,64h3.2v3.2H9.5V64z"/>
	<path class="st1" d="M12.6,64h3.2v3.2h-3.2V64z"/>
	<path d="M15.8,64h3.2v3.2h-3.2V64z"/>
	<path class="st2" d="M18.9,64h3.2v3.2h-3.2V64z"/>
	<path class="st2" d="M22.1,64h3.2v3.2h-3.2V64z"/>
	<path class="st3" d="M25.2,64h3.2v3.2h-3.2V64z"/>
	<path class="st3" d="M28.4,64h3.2v3.2h-3.2V64z"/>
	<path class="st3" d="M31.5,64h3.2v3.2h-3.2V64z"/>
	<path class="st3" d="M34.7,64h3.2v3.2h-3.2V64z"/>
	<path class="st3" d="M37.8,64H41v3.2h-3.2V64z"/>
	<path class="st3" d="M41,64h3.2v3.2H41V64z"/>
	<path class="st2" d="M44.1,64h3.2v3.2h-3.2V64z"/>
	<path d="M47.3,64h3.2v3.2h-3.2V64z"/>
	<path d="M50.4,64h3.2v3.2h-3.2V64z"/>
	<path class="st2" d="M53.6,64h3.2v3.2h-3.2V64z"/>
	<path class="st2" d="M56.7,64h3.2v3.2h-3.2V64z"/>
	<path class="st2" d="M59.9,64H63v3.2h-3.2V64z"/>
	<path class="st2" d="M63,64h3.2v3.2H63V64z"/>
	<path class="st2" d="M66.2,64h3.2v3.2h-3.2V64z"/>
	<path class="st3" d="M69.4,64h3.2v3.2h-3.2V64z"/>
	<path class="st4" d="M72.5,64h3.2v3.2h-3.2V64z"/>
	<path class="st3" d="M75.7,64h3.2v3.2h-3.2V64z"/>
	<path class="st2" d="M78.8,64H82v3.2h-3.2V64z"/>
	<path d="M82,64h3.2v3.2H82V64z"/>
	<path class="st1" d="M85.1,64h3.2v3.2h-3.2V64z"/>
	<path d="M88.3,64h3.2v3.2h-3.2V64z"/>
	<path d="M9.5,67.1h3.2v3.2H9.5V67.1z"/>
	<path class="st1" d="M12.6,67.1h3.2v3.2h-3.2V67.1z"/>
	<path d="M15.8,67.1h3.2v3.2h-3.2V67.1z"/>
	<path class="st2" d="M18.9,67.1h3.2v3.2h-3.2V67.1z"/>
	<path class="st3" d="M22.1,67.1h3.2v3.2h-3.2V67.1z"/>
	<path class="st3" d="M25.2,67.1h3.2v3.2h-3.2V67.1z"/>
	<path class="st3" d="M28.4,67.1h3.2v3.2h-3.2V67.1z"/>
	<path class="st3" d="M31.5,67.1h3.2v3.2h-3.2V67.1z"/>
	<path class="st3" d="M34.7,67.1h3.2v3.2h-3.2V67.1z"/>
	<path class="st3" d="M37.8,67.1H41v3.2h-3.2V67.1z"/>
	<path class="st2" d="M41,67.1h3.2v3.2H41V67.1z"/>
	<path class="st2" d="M44.1,67.1h3.2v3.2h-3.2V67.1z"/>
	<path d="M47.3,67.1h3.2v3.2h-3.2V67.1z"/>
	<path d="M50.4,67.1h3.2v3.2h-3.2V67.1z"/>
	<path class="st2" d="M53.6,67.1h3.2v3.2h-3.2V67.1z"/>
	<path class="st2" d="M56.7,67.1h3.2v3.2h-3.2V67.1z"/>
	<path class="st2" d="M59.9,67.1H63v3.2h-3.2V67.1z"/>
	<path class="st2" d="M63,67.1h3.2v3.2H63V67.1z"/>
	<path class="st3" d="M66.2,67.1h3.2v3.2h-3.2V67.1z"/>
	<path class="st4" d="M69.4,67.1h3.2v3.2h-3.2V67.1z"/>
	<path class="st3" d="M72.5,67.1h3.2v3.2h-3.2V67.1z"/>
	<path class="st2" d="M75.7,67.1h3.2v3.2h-3.2V67.1z"/>
	<path class="st2" d="M78.8,67.1H82v3.2h-3.2V67.1z"/>
	<path d="M82,67.1h3.2v3.2H82V67.1z"/>
	<path class="st1" d="M85.1,67.1h3.2v3.2h-3.2V67.1z"/>
	<path d="M88.3,67.1h3.2v3.2h-3.2V67.1z"/>
	<path d="M9.5,70.3h3.2v3.2H9.5V70.3z"/>
	<path class="st1" d="M12.6,70.3h3.2v3.2h-3.2V70.3z"/>
	<path d="M15.8,70.3h3.2v3.2h-3.2V70.3z"/>
	<path class="st3" d="M18.9,70.3h3.2v3.2h-3.2V70.3z"/>
	<path class="st3" d="M22.1,70.3h3.2v3.2h-3.2V70.3z"/>
	<path class="st3" d="M25.2,70.3h3.2v3.2h-3.2V70.3z"/>
	<path class="st3" d="M28.4,70.3h3.2v3.2h-3.2V70.3z"/>
	<path class="st3" d="M31.5,70.3h3.2v3.2h-3.2V70.3z"/>
	<path class="st3" d="M34.7,70.3h3.2v3.2h-3.2V70.3z"/>
	<path class="st2" d="M37.8,70.3H41v3.2h-3.2V70.3z"/>
	<path class="st2" d="M41,70.3h3.2v3.2H41V70.3z"/>
	<path class="st2" d="M44.1,70.3h3.2v3.2h-3.2V70.3z"/>
	<path d="M47.3,70.3h3.2v3.2h-3.2V70.3z"/>
	<path d="M50.4,70.3h3.2v3.2h-3.2V70.3z"/>
	<path class="st2" d="M53.6,70.3h3.2v3.2h-3.2V70.3z"/>
	<path class="st2" d="M56.7,70.3h3.2v3.2h-3.2V70.3z"/>
	<path class="st2" d="M59.9,70.3H63v3.2h-3.2V70.3z"/>
	<path class="st3" d="M63,70.3h3.2v3.2H63V70.3z"/>
	<path class="st4" d="M66.2,70.3h3.2v3.2h-3.2V70.3z"/>
	<path class="st3" d="M69.4,70.3h3.2v3.2h-3.2V70.3z"/>
	<path class="st2" d="M72.5,70.3h3.2v3.2h-3.2V70.3z"/>
	<path class="st2" d="M75.7,70.3h3.2v3.2h-3.2V70.3z"/>
	<path class="st2" d="M78.8,70.3H82v3.2h-3.2V70.3z"/>
	<path d="M82,70.3h3.2v3.2H82V70.3z"/>
	<path class="st1" d="M85.1,70.3h3.2v3.2h-3.2V70.3z"/>
	<path d="M88.3,70.3h3.2v3.2h-3.2V70.3z"/>
	<path d="M9.5,73.4h3.2v3.2H9.5V73.4z"/>
	<path class="st1" d="M12.6,73.4h3.2v3.2h-3.2V73.4z"/>
	<path d="M15.8,73.4h3.2v3.2h-3.2V73.4z"/>
	<path class="st3" d="M18.9,73.4h3.2v3.2h-3.2V73.4z"/>
	<path class="st3" d="M22.1,73.4h3.2v3.2h-3.2V73.4z"/>
	<path class="st3" d="M25.2,73.4h3.2v3.2h-3.2V73.4z"/>
	<path class="st3" d="M28.4,73.4h3.2v3.2h-3.2V73.4z"/>
	<path class="st3" d="M31.5,73.4h3.2v3.2h-3.2V73.4z"/>
	<path class="st2" d="M34.7,73.4h3.2v3.2h-3.2V73.4z"/>
	<path class="st2" d="M37.8,73.4H41v3.2h-3.2V73.4z"/>
	<path class="st2" d="M41,73.4h3.2v3.2H41V73.4z"/>
	<path class="st2" d="M44.1,73.4h3.2v3.2h-3.2V73.4z"/>
	<path d="M47.3,73.4h3.2v3.2h-3.2V73.4z"/>
	<path d="M50.4,73.4h3.2v3.2h-3.2V73.4z"/>
	<path class="st2" d="M53.6,73.4h3.2v3.2h-3.2V73.4z"/>
	<path class="st2" d="M56.7,73.4h3.2v3.2h-3.2V73.4z"/>
	<path class="st3" d="M59.9,73.4H63v3.2h-3.2V73.4z"/>
	<path class="st4" d="M63,73.4h3.2v3.2H63V73.4z"/>
	<path class="st3" d="M66.2,73.4h3.2v3.2h-3.2V73.4z"/>
	<path class="st2" d="M69.4,73.4h3.2v3.2h-3.2V73.4z"/>
	<path class="st2" d="M72.5,73.4h3.2v3.2h-3.2V73.4z"/>
	<path class="st2" d="M75.7,73.4h3.2v3.2h-3.2V73.4z"/>
	<path class="st2" d="M78.8,73.4H82v3.2h-3.2V73.4z"/>
	<path d="M82,73.4h3.2v3.2H82V73.4z"/>
	<path class="st1" d="M85.1,73.4h3.2v3.2h-3.2V73.4z"/>
	<path d="M88.3,73.4h3.2v3.2h-3.2V73.4z"/>
	<path d="M9.5,76.6h3.2v3.2H9.5V76.6z"/>
	<path class="st1" d="M12.6,76.6h3.2v3.2h-3.2V76.6z"/>
	<path d="M15.8,76.6h3.2v3.2h-3.2V76.6z"/>
	<path class="st3" d="M18.9,76.6h3.2v3.2h-3.2V76.6z"/>
	<path class="st3" d="M22.1,76.6h3.2v3.2h-3.2V76.6z"/>
	<path class="st3" d="M25.2,76.6h3.2v3.2h-3.2V76.6z"/>
	<path class="st3" d="M28.4,76.6h3.2v3.2h-3.2V76.6z"/>
	<path class="st2" d="M31.5,76.6h3.2v3.2h-3.2V76.6z"/>
	<path class="st2" d="M34.7,76.6h3.2v3.2h-3.2V76.6z"/>
	<path class="st2" d="M37.8,76.6H41v3.2h-3.2V76.6z"/>
	<path class="st2" d="M41,76.6h3.2v3.2H41V76.6z"/>
	<path class="st2" d="M44.1,76.6h3.2v3.2h-3.2V76.6z"/>
	<path d="M47.3,76.6h3.2v3.2h-3.2V76.6z"/>
	<path d="M50.4,76.6h3.2v3.2h-3.2V76.6z"/>
	<path class="st2" d="M53.6,76.6h3.2v3.2h-3.2V76.6z"/>
	<path class="st3" d="M56.7,76.6h3.2v3.2h-3.2V76.6z"/>
	<path class="st4" d="M59.9,76.6H63v3.2h-3.2V76.6z"/>
	<path class="st3" d="M63,76.6h3.2v3.2H63V76.6z"/>
	<path class="st2" d="M66.2,76.6h3.2v3.2h-3.2V76.6z"/>
	<path class="st2" d="M69.4,76.6h3.2v3.2h-3.2V76.6z"/>
	<path class="st2" d="M72.5,76.6h3.2v3.2h-3.2V76.6z"/>
	<path class="st2" d="M75.7,76.6h3.2v3.2h-3.2V76.6z"/>
	<path class="st2" d="M78.8,76.6H82v3.2h-3.2V76.6z"/>
	<path d="M82,76.6h3.2v3.2H82V76.6z"/>
	<path class="st1" d="M85.1,76.6h3.2v3.2h-3.2V76.6z"/>
	<path d="M88.3,76.6h3.2v3.2h-3.2V76.6z"/>
	<path d="M9.5,79.7h3.2v3.2H9.5V79.7z"/>
	<path class="st1" d="M12.6,79.7h3.2v3.2h-3.2V79.7z"/>
	<path d="M15.8,79.7h3.2v3.2h-3.2V79.7z"/>
	<path class="st3" d="M18.9,79.7h3.2v3.2h-3.2V79.7z"/>
	<path class="st3" d="M22.1,79.7h3.2v3.2h-3.2V79.7z"/>
	<path class="st3" d="M25.2,79.7h3.2v3.2h-3.2V79.7z"/>
	<path class="st2" d="M28.4,79.7h3.2v3.2h-3.2V79.7z"/>
	<path class="st2" d="M31.5,79.7h3.2v3.2h-3.2V79.7z"/>
	<path class="st2" d="M34.7,79.7h3.2v3.2h-3.2V79.7z"/>
	<path class="st2" d="M37.8,79.7H41v3.2h-3.2V79.7z"/>
	<path class="st2" d="M41,79.7h3.2v3.2H41V79.7z"/>
	<path class="st2" d="M44.1,79.7h3.2v3.2h-3.2V79.7z"/>
	<path d="M47.3,79.7h3.2v3.2h-3.2V79.7z"/>
	<path d="M50.4,79.7h3.2v3.2h-3.2V79.7z"/>
	<path class="st3" d="M53.6,79.7h3.2v3.2h-3.2V79.7z"/>
	<path class="st4" d="M56.7,79.7h3.2v3.2h-3.2V79.7z"/>
	<path class="st3" d="M59.9,79.7H63v3.2h-3.2V79.7z"/>
	<path class="st2" d="M63,79.7h3.2v3.2H63V79.7z"/>
	<path class="st2" d="M66.2,79.7h3.2v3.2h-3.2V79.7z"/>
	<path class="st2" d="M69.4,79.7h3.2v3.2h-3.2V79.7z"/>
	<path class="st2" d="M72.5,79.7h3.2v3.2h-3.2V79.7z"/>
	<path class="st2" d="M75.7,79.7h3.2v3.2h-3.2V79.7z"/>
	<path class="st2" d="M78.8,79.7H82v3.2h-3.2V79.7z"/>
	<path d="M82,79.7h3.2v3.2H82V79.7z"/>
	<path class="st1" d="M85.1,79.7h3.2v3.2h-3.2V79.7z"/>
	<path d="M88.3,79.7h3.2v3.2h-3.2V79.7z"/>
	<path d="M9.5,82.9h3.2V86H9.5V82.9z"/>
	<path class="st1" d="M12.6,82.9h3.2V86h-3.2V82.9z"/>
	<path d="M15.8,82.9h3.2V86h-3.2V82.9z"/>
	<path class="st3" d="M18.9,82.9h3.2V86h-3.2V82.9z"/>
	<path class="st3" d="M22.1,82.9h3.2V86h-3.2V82.9z"/>
	<path class="st2" d="M25.2,82.9h3.2V86h-3.2V82.9z"/>
	<path class="st2" d="M28.4,82.9h3.2V86h-3.2V82.9z"/>
	<path class="st2" d="M31.5,82.9h3.2V86h-3.2V82.9z"/>
	<path class="st2" d="M34.7,82.9h3.2V86h-3.2V82.9z"/>
	<path class="st2" d="M37.8,82.9H41V86h-3.2V82.9z"/>
	<path class="st2" d="M41,82.9h3.2V86H41V82.9z"/>
	<path class="st2" d="M44.1,82.9h3.2V86h-3.2V82.9z"/>
	<path d="M47.3,82.9h3.2V86h-3.2V82.9z"/>
	<path d="M50.4,82.9h3.2V86h-3.2V82.9z"/>
	<path class="st4" d="M53.6,82.9h3.2V86h-3.2V82.9z"/>
	<path class="st3" d="M56.7,82.9h3.2V86h-3.2V82.9z"/>
	<path class="st2" d="M59.9,82.9H63V86h-3.2V82.9z"/>
	<path class="st2" d="M63,82.9h3.2V86H63V82.9z"/>
	<path class="st2" d="M66.2,82.9h3.2V86h-3.2V82.9z"/>
	<path class="st2" d="M69.4,82.9h3.2V86h-3.2V82.9z"/>
	<path class="st2" d="M72.5,82.9h3.2V86h-3.2V82.9z"/>
	<path class="st2" d="M75.7,82.9h3.2V86h-3.2V82.9z"/>
	<path class="st2" d="M78.8,82.9H82V86h-3.2V82.9z"/>
	<path d="M82,82.9h3.2V86H82V82.9z"/>
	<path class="st1" d="M85.1,82.9h3.2V86h-3.2V82.9z"/>
	<path d="M88.3,82.9h3.2V86h-3.2V82.9z"/>
	<path d="M9.5,86h3.2v3.2H9.5V86z"/>
	<path class="st1" d="M12.6,86h3.2v3.2h-3.2V86z"/>
	<path d="M15.8,86h3.2v3.2h-3.2V86z"/>
	<path class="st3" d="M18.9,86h3.2v3.2h-3.2V86z"/>
	<path class="st2" d="M22.1,86h3.2v3.2h-3.2V86z"/>
	<path class="st2" d="M25.2,86h3.2v3.2h-3.2V86z"/>
	<path class="st2" d="M28.4,86h3.2v3.2h-3.2V86z"/>
	<path class="st2" d="M31.5,86h3.2v3.2h-3.2V86z"/>
	<path class="st2" d="M34.7,86h3.2v3.2h-3.2V86z"/>
	<path class="st2" d="M37.8,86H41v3.2h-3.2V86z"/>
	<path class="st2" d="M41,86h3.2v3.2H41V86z"/>
	<path class="st2" d="M44.1,86h3.2v3.2h-3.2V86z"/>
	<path d="M47.3,86h3.2v3.2h-3.2V86z"/>
	<path d="M50.4,86h3.2v3.2h-3.2V86z"/>
	<path class="st3" d="M53.6,86h3.2v3.2h-3.2V86z"/>
	<path class="st2" d="M56.7,86h3.2v3.2h-3.2V86z"/>
	<path class="st2" d="M59.9,86H63v3.2h-3.2V86z"/>
	<path class="st2" d="M63,86h3.2v3.2H63V86z"/>
	<path class="st2" d="M66.2,86h3.2v3.2h-3.2V86z"/>
	<path class="st2" d="M69.4,86h3.2v3.2h-3.2V86z"/>
	<path class="st2" d="M72.5,86h3.2v3.2h-3.2V86z"/>
	<path class="st2" d="M75.7,86h3.2v3.2h-3.2V86z"/>
	<path class="st2" d="M78.8,86H82v3.2h-3.2V86z"/>
	<path d="M82,86h3.2v3.2H82V86z"/>
	<path class="st1" d="M85.1,86h3.2v3.2h-3.2V86z"/>
	<path d="M88.3,86h3.2v3.2h-3.2V86z"/>
	<path d="M9.5,89.2h3.2v3.2H9.5V89.2z"/>
	<path class="st1" d="M12.6,89.2h3.2v3.2h-3.2V89.2z"/>
	<path d="M15.8,89.2h3.2v3.2h-3.2V89.2z"/>
	<path class="st2" d="M18.9,89.2h3.2v3.2h-3.2V89.2z"/>
	<path class="st2" d="M22.1,89.2h3.2v3.2h-3.2V89.2z"/>
	<path class="st2" d="M25.2,89.2h3.2v3.2h-3.2V89.2z"/>
	<path class="st2" d="M28.4,89.2h3.2v3.2h-3.2V89.2z"/>
	<path class="st2" d="M31.5,89.2h3.2v3.2h-3.2V89.2z"/>
	<path class="st2" d="M34.7,89.2h3.2v3.2h-3.2V89.2z"/>
	<path class="st2" d="M37.8,89.2H41v3.2h-3.2V89.2z"/>
	<path class="st1" d="M41,89.2h3.2v3.2H41V89.2z"/>
	<path class="st3" d="M44.1,89.2h3.2v3.2h-3.2V89.2z"/>
	<path d="M47.3,89.2h3.2v3.2h-3.2V89.2z"/>
	<path d="M50.4,89.2h3.2v3.2h-3.2V89.2z"/>
	<path class="st2" d="M53.6,89.2h3.2v3.2h-3.2V89.2z"/>
	<path class="st1" d="M56.7,89.2h3.2v3.2h-3.2V89.2z"/>
	<path class="st2" d="M59.9,89.2H63v3.2h-3.2V89.2z"/>
	<path class="st2" d="M63,89.2h3.2v3.2H63V89.2z"/>
	<path class="st2" d="M66.2,89.2h3.2v3.2h-3.2V89.2z"/>
	<path class="st2" d="M69.4,89.2h3.2v3.2h-3.2V89.2z"/>
	<path class="st2" d="M72.5,89.2h3.2v3.2h-3.2V89.2z"/>
	<path class="st2" d="M75.7,89.2h3.2v3.2h-3.2V89.2z"/>
	<path class="st2" d="M78.8,89.2H82v3.2h-3.2V89.2z"/>
	<path d="M82,89.2h3.2v3.2H82V89.2z"/>
	<path class="st1" d="M85.1,89.2h3.2v3.2h-3.2V89.2z"/>
	<path d="M88.3,89.2h3.2v3.2h-3.2V89.2z"/>
	<path d="M9.5,92.3h3.2v3.2H9.5V92.3z"/>
	<path class="st0" d="M12.6,92.3h3.2v3.2h-3.2V92.3z"/>
	<path d="M15.8,92.3h3.2v3.2h-3.2V92.3z"/>
	<path class="st2" d="M18.9,92.3h3.2v3.2h-3.2V92.3z"/>
	<path class="st2" d="M22.1,92.3h3.2v3.2h-3.2V92.3z"/>
	<path class="st2" d="M25.2,92.3h3.2v3.2h-3.2V92.3z"/>
	<path class="st2" d="M28.4,92.3h3.2v3.2h-3.2V92.3z"/>
	<path class="st2" d="M31.5,92.3h3.2v3.2h-3.2V92.3z"/>
	<path class="st2" d="M34.7,92.3h3.2v3.2h-3.2V92.3z"/>
	<path class="st2" d="M37.8,92.3H41v3.2h-3.2V92.3z"/>
	<path class="st5" d="M41,92.3h3.2v3.2H41V92.3z"/>
	<path class="st4" d="M44.1,92.3h3.2v3.2h-3.2V92.3z"/>
	<path d="M47.3,92.3h3.2v3.2h-3.2V92.3z"/>
	<path d="M50.4,92.3h3.2v3.2h-3.2V92.3z"/>
	<path class="st2" d="M53.6,92.3h3.2v3.2h-3.2V92.3z"/>
	<path class="st5" d="M56.7,92.3h3.2v3.2h-3.2V92.3z"/>
	<path class="st2" d="M59.9,92.3H63v3.2h-3.2V92.3z"/>
	<path class="st2" d="M63,92.3h3.2v3.2H63V92.3z"/>
	<path class="st2" d="M66.2,92.3h3.2v3.2h-3.2V92.3z"/>
	<path class="st2" d="M69.4,92.3h3.2v3.2h-3.2V92.3z"/>
	<path class="st2" d="M72.5,92.3h3.2v3.2h-3.2V92.3z"/>
	<path class="st2" d="M75.7,92.3h3.2v3.2h-3.2V92.3z"/>
	<path class="st3" d="M78.8,92.3H82v3.2h-3.2V92.3z"/>
	<path d="M82,92.3h3.2v3.2H82V92.3z"/>
	<path class="st0" d="M85.1,92.3h3.2v3.2h-3.2V92.3z"/>
	<path d="M88.3,92.3h3.2v3.2h-3.2V92.3z"/>
	<path d="M9.5,95.5h3.2v3.2H9.5V95.5z"/>
	<path class="st0" d="M12.6,95.5h3.2v3.2h-3.2V95.5z"/>
	<path d="M15.8,95.5h3.2v3.2h-3.2V95.5z"/>
	<path class="st2" d="M18.9,95.5h3.2v3.2h-3.2V95.5z"/>
	<path class="st2" d="M22.1,95.5h3.2v3.2h-3.2V95.5z"/>
	<path class="st2" d="M25.2,95.5h3.2v3.2h-3.2V95.5z"/>
	<path class="st2" d="M28.4,95.5h3.2v3.2h-3.2V95.5z"/>
	<path class="st2" d="M31.5,95.5h3.2v3.2h-3.2V95.5z"/>
	<path class="st2" d="M34.7,95.5h3.2v3.2h-3.2V95.5z"/>
	<path class="st3" d="M37.8,95.5H41v3.2h-3.2V95.5z"/>
	<path class="st5" d="M41,95.5h3.2v3.2H41V95.5z"/>
	<path class="st3" d="M44.1,95.5h3.2v3.2h-3.2V95.5z"/>
	<path d="M47.3,95.5h3.2v3.2h-3.2V95.5z"/>
	<path d="M50.4,95.5h3.2v3.2h-3.2V95.5z"/>
	<path class="st2" d="M53.6,95.5h3.2v3.2h-3.2V95.5z"/>
	<path class="st5" d="M56.7,95.5h3.2v3.2h-3.2V95.5z"/>
	<path class="st2" d="M59.9,95.5H63v3.2h-3.2V95.5z"/>
	<path class="st2" d="M63,95.5h3.2v3.2H63V95.5z"/>
	<path class="st2" d="M66.2,95.5h3.2v3.2h-3.2V95.5z"/>
	<path class="st2" d="M69.4,95.5h3.2v3.2h-3.2V95.5z"/>
	<path class="st2" d="M72.5,95.5h3.2v3.2h-3.2V95.5z"/>
	<path class="st3" d="M75.7,95.5h3.2v3.2h-3.2V95.5z"/>
	<path class="st2" d="M78.8,95.5H82v3.2h-3.2V95.5z"/>
	<path d="M82,95.5h3.2v3.2H82V95.5z"/>
	<path class="st0" d="M85.1,95.5h3.2v3.2h-3.2V95.5z"/>
	<path d="M88.3,95.5h3.2v3.2h-3.2V95.5z"/>
	<path d="M9.5,98.6h3.2v3.2H9.5V98.6z"/>
	<path class="st0" d="M12.6,98.6h3.2v3.2h-3.2V98.6z"/>
	<path d="M15.8,98.6h3.2v3.2h-3.2V98.6z"/>
	<path class="st2" d="M18.9,98.6h3.2v3.2h-3.2V98.6z"/>
	<path class="st2" d="M22.1,98.6h3.2v3.2h-3.2V98.6z"/>
	<path class="st2" d="M25.2,98.6h3.2v3.2h-3.2V98.6z"/>
	<path class="st2" d="M28.4,98.6h3.2v3.2h-3.2V98.6z"/>
	<path class="st2" d="M31.5,98.6h3.2v3.2h-3.2V98.6z"/>
	<path class="st3" d="M34.7,98.6h3.2v3.2h-3.2V98.6z"/>
	<path class="st4" d="M37.8,98.6H41v3.2h-3.2V98.6z"/>
	<path class="st5" d="M41,98.6h3.2v3.2H41V98.6z"/>
	<path class="st2" d="M44.1,98.6h3.2v3.2h-3.2V98.6z"/>
	<path d="M47.3,98.6h3.2v3.2h-3.2V98.6z"/>
	<path d="M50.4,98.6h3.2v3.2h-3.2V98.6z"/>
	<path class="st2" d="M53.6,98.6h3.2v3.2h-3.2V98.6z"/>
	<path class="st5" d="M56.7,98.6h3.2v3.2h-3.2V98.6z"/>
	<path class="st2" d="M59.9,98.6H63v3.2h-3.2V98.6z"/>
	<path class="st2" d="M63,98.6h3.2v3.2H63V98.6z"/>
	<path class="st2" d="M66.2,98.6h3.2v3.2h-3.2V98.6z"/>
	<path class="st2" d="M69.4,98.6h3.2v3.2h-3.2V98.6z"/>
	<path class="st3" d="M72.5,98.6h3.2v3.2h-3.2V98.6z"/>
	<path class="st2" d="M75.7,98.6h3.2v3.2h-3.2V98.6z"/>
	<path class="st2" d="M78.8,98.6H82v3.2h-3.2V98.6z"/>
	<path d="M82,98.6h3.2v3.2H82V98.6z"/>
	<path class="st0" d="M85.1,98.6h3.2v3.2h-3.2V98.6z"/>
	<path d="M88.3,98.6h3.2v3.2h-3.2V98.6z"/>
	<path d="M9.5,101.8h3.2v3.2H9.5V101.8z"/>
	<path class="st0" d="M12.6,101.8h3.2v3.2h-3.2V101.8z"/>
	<path d="M15.8,101.8h3.2v3.2h-3.2V101.8z"/>
	<path class="st2" d="M18.9,101.8h3.2v3.2h-3.2V101.8z"/>
	<path class="st2" d="M22.1,101.8h3.2v3.2h-3.2V101.8z"/>
	<path class="st2" d="M25.2,101.8h3.2v3.2h-3.2V101.8z"/>
	<path class="st2" d="M28.4,101.8h3.2v3.2h-3.2V101.8z"/>
	<path class="st3" d="M31.5,101.8h3.2v3.2h-3.2V101.8z"/>
	<path class="st4" d="M34.7,101.8h3.2v3.2h-3.2V101.8z"/>
	<path class="st3" d="M37.8,101.8H41v3.2h-3.2V101.8z"/>
	<path d="M41,101.8h3.2v3.2H41V101.8z"/>
	<path class="st2" d="M44.1,101.8h3.2v3.2h-3.2V101.8z"/>
	<path d="M47.3,101.8h3.2v3.2h-3.2V101.8z"/>
	<path d="M50.4,101.8h3.2v3.2h-3.2V101.8z"/>
	<path class="st2" d="M53.6,101.8h3.2v3.2h-3.2V101.8z"/>
	<path d="M56.7,101.8h3.2v3.2h-3.2V101.8z"/>
	<path class="st2" d="M59.9,101.8H63v3.2h-3.2V101.8z"/>
	<path class="st2" d="M63,101.8h3.2v3.2H63V101.8z"/>
	<path class="st2" d="M66.2,101.8h3.2v3.2h-3.2V101.8z"/>
	<path class="st3" d="M69.4,101.8h3.2v3.2h-3.2V101.8z"/>
	<path class="st2" d="M72.5,101.8h3.2v3.2h-3.2V101.8z"/>
	<path class="st2" d="M75.7,101.8h3.2v3.2h-3.2V101.8z"/>
	<path class="st2" d="M78.8,101.8H82v3.2h-3.2V101.8z"/>
	<path d="M82,101.8h3.2v3.2H82V101.8z"/>
	<path class="st0" d="M85.1,101.8h3.2v3.2h-3.2V101.8z"/>
	<path d="M88.3,101.8h3.2v3.2h-3.2V101.8z"/>
	<path d="M9.5,104.9h3.2v3.2H9.5V104.9z"/>
	<path class="st0" d="M12.6,104.9h3.2v3.2h-3.2V104.9z"/>
	<path d="M15.8,104.9h3.2v3.2h-3.2V104.9z"/>
	<path class="st2" d="M18.9,104.9h3.2v3.2h-3.2V104.9z"/>
	<path class="st2" d="M22.1,104.9h3.2v3.2h-3.2V104.9z"/>
	<path class="st2" d="M25.2,104.9h3.2v3.2h-3.2V104.9z"/>
	<path class="st3" d="M28.4,104.9h3.2v3.2h-3.2V104.9z"/>
	<path class="st4" d="M31.5,104.9h3.2v3.2h-3.2V104.9z"/>
	<path class="st3" d="M34.7,104.9h3.2v3.2h-3.2V104.9z"/>
	<path class="st2" d="M37.8,104.9H41v3.2h-3.2V104.9z"/>
	<path d="M41,104.9h3.2v3.2H41V104.9z"/>
	<path class="st2" d="M44.1,104.9h3.2v3.2h-3.2V104.9z"/>
	<path d="M47.3,104.9h3.2v3.2h-3.2V104.9z"/>
	<path d="M50.4,104.9h3.2v3.2h-3.2V104.9z"/>
	<path class="st2" d="M53.6,104.9h3.2v3.2h-3.2V104.9z"/>
	<path d="M56.7,104.9h3.2v3.2h-3.2V104.9z"/>
	<path class="st2" d="M59.9,104.9H63v3.2h-3.2V104.9z"/>
	<path class="st2" d="M63,104.9h3.2v3.2H63V104.9z"/>
	<path class="st3" d="M66.2,104.9h3.2v3.2h-3.2V104.9z"/>
	<path class="st2" d="M69.4,104.9h3.2v3.2h-3.2V104.9z"/>
	<path class="st2" d="M72.5,104.9h3.2v3.2h-3.2V104.9z"/>
	<path class="st2" d="M75.7,104.9h3.2v3.2h-3.2V104.9z"/>
	<path class="st2" d="M78.8,104.9H82v3.2h-3.2V104.9z"/>
	<path d="M82,104.9h3.2v3.2H82V104.9z"/>
	<path class="st0" d="M85.1,104.9h3.2v3.2h-3.2V104.9z"/>
	<path d="M88.3,104.9h3.2v3.2h-3.2V104.9z"/>
	<path d="M9.5,108.1h3.2v3.2H9.5V108.1z"/>
	<path class="st0" d="M12.6,108.1h3.2v3.2h-3.2V108.1z"/>
	<path d="M15.8,108.1h3.2v3.2h-3.2V108.1z"/>
	<path class="st2" d="M18.9,108.1h3.2v3.2h-3.2V108.1z"/>
	<path class="st2" d="M22.1,108.1h3.2v3.2h-3.2V108.1z"/>
	<path class="st3" d="M25.2,108.1h3.2v3.2h-3.2V108.1z"/>
	<path class="st4" d="M28.4,108.1h3.2v3.2h-3.2V108.1z"/>
	<path class="st3" d="M31.5,108.1h3.2v3.2h-3.2V108.1z"/>
	<path class="st2" d="M34.7,108.1h3.2v3.2h-3.2V108.1z"/>
	<path class="st2" d="M37.8,108.1H41v3.2h-3.2V108.1z"/>
	<path class="st2" d="M41,108.1h3.2v3.2H41V108.1z"/>
	<path class="st2" d="M44.1,108.1h3.2v3.2h-3.2V108.1z"/>
	<path d="M47.3,108.1h3.2v3.2h-3.2V108.1z"/>
	<path d="M50.4,108.1h3.2v3.2h-3.2V108.1z"/>
	<path class="st2" d="M53.6,108.1h3.2v3.2h-3.2V108.1z"/>
	<path class="st2" d="M56.7,108.1h3.2v3.2h-3.2V108.1z"/>
	<path class="st2" d="M59.9,108.1H63v3.2h-3.2V108.1z"/>
	<path class="st3" d="M63,108.1h3.2v3.2H63V108.1z"/>
	<path class="st2" d="M66.2,108.1h3.2v3.2h-3.2V108.1z"/>
	<path class="st2" d="M69.4,108.1h3.2v3.2h-3.2V108.1z"/>
	<path class="st2" d="M72.5,108.1h3.2v3.2h-3.2V108.1z"/>
	<path class="st2" d="M75.7,108.1h3.2v3.2h-3.2V108.1z"/>
	<path class="st2" d="M78.8,108.1H82v3.2h-3.2V108.1z"/>
	<path d="M82,108.1h3.2v3.2H82V108.1z"/>
	<path class="st0" d="M85.1,108.1h3.2v3.2h-3.2V108.1z"/>
	<path d="M88.3,108.1h3.2v3.2h-3.2V108.1z"/>
	<path d="M9.5,111.3h3.2v3.2H9.5V111.3z"/>
	<path class="st5" d="M12.6,111.3h3.2v3.2h-3.2V111.3z"/>
	<path d="M15.8,111.3h3.2v3.2h-3.2V111.3z"/>
	<path class="st2" d="M18.9,111.3h3.2v3.2h-3.2V111.3z"/>
	<path class="st3" d="M22.1,111.3h3.2v3.2h-3.2V111.3z"/>
	<path class="st4" d="M25.2,111.3h3.2v3.2h-3.2V111.3z"/>
	<path class="st3" d="M28.4,111.3h3.2v3.2h-3.2V111.3z"/>
	<path class="st2" d="M31.5,111.3h3.2v3.2h-3.2V111.3z"/>
	<path class="st2" d="M34.7,111.3h3.2v3.2h-3.2V111.3z"/>
	<path class="st2" d="M37.8,111.3H41v3.2h-3.2V111.3z"/>
	<path class="st2" d="M41,111.3h3.2v3.2H41V111.3z"/>
	<path class="st2" d="M44.1,111.3h3.2v3.2h-3.2V111.3z"/>
	<path d="M47.3,111.3h3.2v3.2h-3.2V111.3z"/>
	<path d="M50.4,111.3h3.2v3.2h-3.2V111.3z"/>
	<path class="st2" d="M53.6,111.3h3.2v3.2h-3.2V111.3z"/>
	<path class="st2" d="M56.7,111.3h3.2v3.2h-3.2V111.3z"/>
	<path class="st3" d="M59.9,111.3H63v3.2h-3.2V111.3z"/>
	<path class="st2" d="M63,111.3h3.2v3.2H63V111.3z"/>
	<path class="st2" d="M66.2,111.3h3.2v3.2h-3.2V111.3z"/>
	<path class="st2" d="M69.4,111.3h3.2v3.2h-3.2V111.3z"/>
	<path class="st2" d="M72.5,111.3h3.2v3.2h-3.2V111.3z"/>
	<path class="st2" d="M75.7,111.3h3.2v3.2h-3.2V111.3z"/>
	<path class="st2" d="M78.8,111.3H82v3.2h-3.2V111.3z"/>
	<path d="M82,111.3h3.2v3.2H82V111.3z"/>
	<path class="st5" d="M85.1,111.3h3.2v3.2h-3.2V111.3z"/>
	<path d="M88.3,111.3h3.2v3.2h-3.2V111.3z"/>
	<path d="M9.5,114.4h3.2v3.2H9.5V114.4z"/>
	<path class="st5" d="M12.6,114.4h3.2v3.2h-3.2V114.4z"/>
	<path d="M15.8,114.4h3.2v3.2h-3.2V114.4z"/>
	<path class="st3" d="M18.9,114.4h3.2v3.2h-3.2V114.4z"/>
	<path class="st4" d="M22.1,114.4h3.2v3.2h-3.2V114.4z"/>
	<path class="st3" d="M25.2,114.4h3.2v3.2h-3.2V114.4z"/>
	<path class="st2" d="M28.4,114.4h3.2v3.2h-3.2V114.4z"/>
	<path class="st2" d="M31.5,114.4h3.2v3.2h-3.2V114.4z"/>
	<path class="st2" d="M34.7,114.4h3.2v3.2h-3.2V114.4z"/>
	<path class="st2" d="M37.8,114.4H41v3.2h-3.2V114.4z"/>
	<path class="st2" d="M41,114.4h3.2v3.2H41V114.4z"/>
	<path class="st2" d="M44.1,114.4h3.2v3.2h-3.2V114.4z"/>
	<path d="M47.3,114.4h3.2v3.2h-3.2V114.4z"/>
	<path d="M50.4,114.4h3.2v3.2h-3.2V114.4z"/>
	<path class="st2" d="M53.6,114.4h3.2v3.2h-3.2V114.4z"/>
	<path class="st3" d="M56.7,114.4h3.2v3.2h-3.2V114.4z"/>
	<path class="st2" d="M59.9,114.4H63v3.2h-3.2V114.4z"/>
	<path class="st2" d="M63,114.4h3.2v3.2H63V114.4z"/>
	<path class="st2" d="M66.2,114.4h3.2v3.2h-3.2V114.4z"/>
	<path class="st2" d="M69.4,114.4h3.2v3.2h-3.2V114.4z"/>
	<path class="st2" d="M72.5,114.4h3.2v3.2h-3.2V114.4z"/>
	<path class="st2" d="M75.7,114.4h3.2v3.2h-3.2V114.4z"/>
	<path class="st2" d="M78.8,114.4H82v3.2h-3.2V114.4z"/>
	<path d="M82,114.4h3.2v3.2H82V114.4z"/>
	<path class="st5" d="M85.1,114.4h3.2v3.2h-3.2V114.4z"/>
	<path d="M88.3,114.4h3.2v3.2h-3.2V114.4z"/>
	<path d="M9.5,117.6h3.2v3.2H9.5V117.6z"/>
	<path class="st5" d="M12.6,117.6h3.2v3.2h-3.2V117.6z"/>
	<path d="M15.8,117.6h3.2v3.2h-3.2V117.6z"/>
	<path class="st4" d="M18.9,117.6h3.2v3.2h-3.2V117.6z"/>
	<path class="st3" d="M22.1,117.6h3.2v3.2h-3.2V117.6z"/>
	<path class="st2" d="M25.2,117.6h3.2v3.2h-3.2V117.6z"/>
	<path class="st2" d="M28.4,117.6h3.2v3.2h-3.2V117.6z"/>
	<path class="st2" d="M31.5,117.6h3.2v3.2h-3.2V117.6z"/>
	<path class="st2" d="M34.7,117.6h3.2v3.2h-3.2V117.6z"/>
	<path class="st2" d="M37.8,117.6H41v3.2h-3.2V117.6z"/>
	<path class="st2" d="M41,117.6h3.2v3.2H41V117.6z"/>
	<path class="st2" d="M44.1,117.6h3.2v3.2h-3.2V117.6z"/>
	<path d="M47.3,117.6h3.2v3.2h-3.2V117.6z"/>
	<path d="M50.4,117.6h3.2v3.2h-3.2V117.6z"/>
	<path class="st3" d="M53.6,117.6h3.2v3.2h-3.2V117.6z"/>
	<path class="st2" d="M56.7,117.6h3.2v3.2h-3.2V117.6z"/>
	<path class="st2" d="M59.9,117.6H63v3.2h-3.2V117.6z"/>
	<path class="st2" d="M63,117.6h3.2v3.2H63V117.6z"/>
	<path class="st2" d="M66.2,117.6h3.2v3.2h-3.2V117.6z"/>
	<path class="st2" d="M69.4,117.6h3.2v3.2h-3.2V117.6z"/>
	<path class="st2" d="M72.5,117.6h3.2v3.2h-3.2V117.6z"/>
	<path class="st2" d="M75.7,117.6h3.2v3.2h-3.2V117.6z"/>
	<path class="st3" d="M78.8,117.6H82v3.2h-3.2V117.6z"/>
	<path d="M82,117.6h3.2v3.2H82V117.6z"/>
	<path class="st5" d="M85.1,117.6h3.2v3.2h-3.2V117.6z"/>
	<path d="M88.3,117.6h3.2v3.2h-3.2V117.6z"/>
	<path d="M9.5,120.7h3.2v3.2H9.5V120.7z"/>
	<path class="st5" d="M12.6,120.7h3.2v3.2h-3.2V120.7z"/>
	<path d="M15.8,120.7h3.2v3.2h-3.2V120.7z"/>
	<path class="st3" d="M18.9,120.7h3.2v3.2h-3.2V120.7z"/>
	<path class="st2" d="M22.1,120.7h3.2v3.2h-3.2V120.7z"/>
	<path class="st2" d="M25.2,120.7h3.2v3.2h-3.2V120.7z"/>
	<path class="st2" d="M28.4,120.7h3.2v3.2h-3.2V120.7z"/>
	<path class="st2" d="M31.5,120.7h3.2v3.2h-3.2V120.7z"/>
	<path class="st2" d="M34.7,120.7h3.2v3.2h-3.2V120.7z"/>
	<path class="st2" d="M37.8,120.7H41v3.2h-3.2V120.7z"/>
	<path class="st2" d="M41,120.7h3.2v3.2H41V120.7z"/>
	<path class="st2" d="M44.1,120.7h3.2v3.2h-3.2V120.7z"/>
	<path d="M47.3,120.7h3.2v3.2h-3.2V120.7z"/>
	<path d="M50.4,120.7h3.2v3.2h-3.2V120.7z"/>
	<path class="st2" d="M53.6,120.7h3.2v3.2h-3.2V120.7z"/>
	<path class="st2" d="M56.7,120.7h3.2v3.2h-3.2V120.7z"/>
	<path class="st2" d="M59.9,120.7H63v3.2h-3.2V120.7z"/>
	<path class="st2" d="M63,120.7h3.2v3.2H63V120.7z"/>
	<path class="st2" d="M66.2,120.7h3.2v3.2h-3.2V120.7z"/>
	<path class="st2" d="M69.4,120.7h3.2v3.2h-3.2V120.7z"/>
	<path class="st2" d="M72.5,120.7h3.2v3.2h-3.2V120.7z"/>
	<path class="st3" d="M75.7,120.7h3.2v3.2h-3.2V120.7z"/>
	<path class="st3" d="M78.8,120.7H82v3.2h-3.2V120.7z"/>
	<path d="M82,120.7h3.2v3.2H82V120.7z"/>
	<path class="st5" d="M85.1,120.7h3.2v3.2h-3.2V120.7z"/>
	<path d="M88.3,120.7h3.2v3.2h-3.2V120.7z"/>
	<path d="M9.5,123.9h3.2v3.2H9.5V123.9z"/>
	<path class="st5" d="M12.6,123.9h3.2v3.2h-3.2V123.9z"/>
	<path d="M15.8,123.9h3.2v3.2h-3.2V123.9z"/>
	<path class="st2" d="M18.9,123.9h3.2v3.2h-3.2V123.9z"/>
	<path class="st2" d="M22.1,123.9h3.2v3.2h-3.2V123.9z"/>
	<path class="st2" d="M25.2,123.9h3.2v3.2h-3.2V123.9z"/>
	<path class="st2" d="M28.4,123.9h3.2v3.2h-3.2V123.9z"/>
	<path class="st2" d="M31.5,123.9h3.2v3.2h-3.2V123.9z"/>
	<path class="st2" d="M34.7,123.9h3.2v3.2h-3.2V123.9z"/>
	<path class="st2" d="M37.8,123.9H41v3.2h-3.2V123.9z"/>
	<path class="st2" d="M41,123.9h3.2v3.2H41V123.9z"/>
	<path class="st2" d="M44.1,123.9h3.2v3.2h-3.2V123.9z"/>
	<path d="M47.3,123.9h3.2v3.2h-3.2V123.9z"/>
	<path d="M50.4,123.9h3.2v3.2h-3.2V123.9z"/>
	<path class="st2" d="M53.6,123.9h3.2v3.2h-3.2V123.9z"/>
	<path class="st2" d="M56.7,123.9h3.2v3.2h-3.2V123.9z"/>
	<path class="st2" d="M59.9,123.9H63v3.2h-3.2V123.9z"/>
	<path class="st2" d="M63,123.9h3.2v3.2H63V123.9z"/>
	<path class="st2" d="M66.2,123.9h3.2v3.2h-3.2V123.9z"/>
	<path class="st2" d="M69.4,123.9h3.2v3.2h-3.2V123.9z"/>
	<path class="st3" d="M72.5,123.9h3.2v3.2h-3.2V123.9z"/>
	<path class="st3" d="M75.7,123.9h3.2v3.2h-3.2V123.9z"/>
	<path class="st3" d="M78.8,123.9H82v3.2h-3.2V123.9z"/>
	<path d="M82,123.9h3.2v3.2H82V123.9z"/>
	<path class="st5" d="M85.1,123.9h3.2v3.2h-3.2V123.9z"/>
	<path d="M88.3,123.9h3.2v3.2h-3.2V123.9z"/>
	<path d="M9.5,127h3.2v3.2H9.5V127z"/>
	<path class="st5" d="M12.6,127h3.2v3.2h-3.2V127z"/>
	<path d="M15.8,127h3.2v3.2h-3.2V127z"/>
	<path class="st2" d="M18.9,127h3.2v3.2h-3.2V127z"/>
	<path class="st2" d="M22.1,127h3.2v3.2h-3.2V127z"/>
	<path class="st2" d="M25.2,127h3.2v3.2h-3.2V127z"/>
	<path class="st2" d="M28.4,127h3.2v3.2h-3.2V127z"/>
	<path class="st2" d="M31.5,127h3.2v3.2h-3.2V127z"/>
	<path class="st2" d="M34.7,127h3.2v3.2h-3.2V127z"/>
	<path class="st2" d="M37.8,127H41v3.2h-3.2V127z"/>
	<path class="st2" d="M41,127h3.2v3.2H41V127z"/>
	<path class="st3" d="M44.1,127h3.2v3.2h-3.2V127z"/>
	<path d="M47.3,127h3.2v3.2h-3.2V127z"/>
	<path d="M50.4,127h3.2v3.2h-3.2V127z"/>
	<path class="st2" d="M53.6,127h3.2v3.2h-3.2V127z"/>
	<path class="st2" d="M56.7,127h3.2v3.2h-3.2V127z"/>
	<path class="st2" d="M59.9,127H63v3.2h-3.2V127z"/>
	<path class="st2" d="M63,127h3.2v3.2H63V127z"/>
	<path class="st2" d="M66.2,127h3.2v3.2h-3.2V127z"/>
	<path class="st3" d="M69.4,127h3.2v3.2h-3.2V127z"/>
	<path class="st3" d="M72.5,127h3.2v3.2h-3.2V127z"/>
	<path class="st3" d="M75.7,127h3.2v3.2h-3.2V127z"/>
	<path class="st3" d="M78.8,127H82v3.2h-3.2V127z"/>
	<path d="M82,127h3.2v3.2H82V127z"/>
	<path class="st5" d="M85.1,127h3.2v3.2h-3.2V127z"/>
	<path d="M88.3,127h3.2v3.2h-3.2V127z"/>
	<path class="st6" d="M6.3,130.2h3.2v3.2H6.3V130.2z"/>
	<path d="M9.5,130.2h3.2v3.2H9.5V130.2z"/>
	<path class="st5" d="M12.6,130.2h3.2v3.2h-3.2V130.2z"/>
	<path d="M15.8,130.2h3.2v3.2h-3.2V130.2z"/>
	<path class="st2" d="M18.9,130.2h3.2v3.2h-3.2V130.2z"/>
	<path class="st2" d="M22.1,130.2h3.2v3.2h-3.2V130.2z"/>
	<path class="st2" d="M25.2,130.2h3.2v3.2h-3.2V130.2z"/>
	<path class="st2" d="M28.4,130.2h3.2v3.2h-3.2V130.2z"/>
	<path class="st2" d="M31.5,130.2h3.2v3.2h-3.2V130.2z"/>
	<path class="st2" d="M34.7,130.2h3.2v3.2h-3.2V130.2z"/>
	<path class="st2" d="M37.8,130.2H41v3.2h-3.2V130.2z"/>
	<path class="st3" d="M41,130.2h3.2v3.2H41V130.2z"/>
	<path class="st2" d="M44.1,130.2h3.2v3.2h-3.2V130.2z"/>
	<path d="M47.3,130.2h3.2v3.2h-3.2V130.2z"/>
	<path d="M50.4,130.2h3.2v3.2h-3.2V130.2z"/>
	<path class="st2" d="M53.6,130.2h3.2v3.2h-3.2V130.2z"/>
	<path class="st2" d="M56.7,130.2h3.2v3.2h-3.2V130.2z"/>
	<path class="st2" d="M59.9,130.2H63v3.2h-3.2V130.2z"/>
	<path class="st2" d="M63,130.2h3.2v3.2H63V130.2z"/>
	<path class="st3" d="M66.2,130.2h3.2v3.2h-3.2V130.2z"/>
	<path class="st3" d="M69.4,130.2h3.2v3.2h-3.2V130.2z"/>
	<path class="st3" d="M72.5,130.2h3.2v3.2h-3.2V130.2z"/>
	<path class="st3" d="M75.7,130.2h3.2v3.2h-3.2V130.2z"/>
	<path class="st2" d="M78.8,130.2H82v3.2h-3.2V130.2z"/>
	<path d="M82,130.2h3.2v3.2H82V130.2z"/>
	<path class="st5" d="M85.1,130.2h3.2v3.2h-3.2V130.2z"/>
	<path d="M88.3,130.2h3.2v3.2h-3.2V130.2z"/>
	<path class="st6" d="M91.4,130.2h3.2v3.2h-3.2V130.2z"/>
	<path class="st6" d="M0,133.3h3.2v3.2H0V133.3z"/>
	<path class="st6" d="M3.2,133.3h3.2v3.2H3.2V133.3z"/>
	<path class="st6" d="M6.3,133.3h3.2v3.2H6.3V133.3z"/>
	<path d="M9.5,133.3h3.2v3.2H9.5V133.3z"/>
	<path d="M12.6,133.3h3.2v3.2h-3.2V133.3z"/>
	<path d="M15.8,133.3h3.2v3.2h-3.2V133.3z"/>
	<path d="M18.9,133.3h3.2v3.2h-3.2V133.3z"/>
	<path d="M22.1,133.3h3.2v3.2h-3.2V133.3z"/>
	<path d="M25.2,133.3h3.2v3.2h-3.2V133.3z"/>
	<path d="M28.4,133.3h3.2v3.2h-3.2V133.3z"/>
	<path d="M31.5,133.3h3.2v3.2h-3.2V133.3z"/>
	<path d="M34.7,133.3h3.2v3.2h-3.2V133.3z"/>
	<path d="M37.8,133.3H41v3.2h-3.2V133.3z"/>
	<path d="M41,133.3h3.2v3.2H41V133.3z"/>
	<path d="M44.1,133.3h3.2v3.2h-3.2V133.3z"/>
	<path d="M47.3,133.3h3.2v3.2h-3.2V133.3z"/>
	<path d="M50.4,133.3h3.2v3.2h-3.2V133.3z"/>
	<path d="M53.6,133.3h3.2v3.2h-3.2V133.3z"/>
	<path d="M56.7,133.3h3.2v3.2h-3.2V133.3z"/>
	<path d="M59.9,133.3H63v3.2h-3.2V133.3z"/>
	<path d="M63,133.3h3.2v3.2H63V133.3z"/>
	<path d="M66.2,133.3h3.2v3.2h-3.2V133.3z"/>
	<path d="M69.4,133.3h3.2v3.2h-3.2V133.3z"/>
	<path d="M72.5,133.3h3.2v3.2h-3.2V133.3z"/>
	<path d="M75.7,133.3h3.2v3.2h-3.2V133.3z"/>
	<path d="M78.8,133.3H82v3.2h-3.2V133.3z"/>
	<path d="M82,133.3h3.2v3.2H82V133.3z"/>
	<path d="M85.1,133.3h3.2v3.2h-3.2V133.3z"/>
	<path d="M88.3,133.3h3.2v3.2h-3.2V133.3z"/>
	<g>
		<path class="st6" d="M91.4,133.3h3.2v3.2h-3.2V133.3z"/>
		<path class="st6" d="M94.6,133.3h3.2v3.2h-3.2V133.3z"/>
		<path class="st6" d="M97.7,133.3h3.2v3.2h-3.2V133.3z"/>
		<path class="st6" d="M6.3,136.5h3.2v3.2H6.3V136.5z"/>
		<path class="st6" d="M9.5,136.5h3.2v3.2H9.5V136.5z"/>
		<path class="st6" d="M12.6,136.5h3.2v3.2h-3.2V136.5z"/>
		<path class="st6" d="M15.8,136.5h3.2v3.2h-3.2V136.5z"/>
		<path class="st6" d="M18.9,136.5h3.2v3.2h-3.2V136.5z"/>
		<path class="st6" d="M22.1,136.5h3.2v3.2h-3.2V136.5z"/>
		<path class="st6" d="M25.2,136.5h3.2v3.2h-3.2V136.5z"/>
		<path class="st6" d="M28.4,136.5h3.2v3.2h-3.2V136.5z"/>
		<path class="st6" d="M31.5,136.5h3.2v3.2h-3.2V136.5z"/>
		<path class="st6" d="M34.7,136.5h3.2v3.2h-3.2V136.5z"/>
		<path class="st6" d="M37.8,136.5H41v3.2h-3.2V136.5z"/>
		<path class="st6" d="M41,136.5h3.2v3.2H41V136.5z"/>
		<path class="st6" d="M44.1,136.5h3.2v3.2h-3.2V136.5z"/>
		<path class="st6" d="M47.3,136.5h3.2v3.2h-3.2V136.5z"/>
		<path class="st6" d="M50.4,136.5h3.2v3.2h-3.2V136.5z"/>
		<path class="st6" d="M53.6,136.5h3.2v3.2h-3.2V136.5z"/>
		<path class="st6" d="M56.7,136.5h3.2v3.2h-3.2V136.5z"/>
		<path class="st6" d="M59.9,136.5H63v3.2h-3.2V136.5z"/>
		<path class="st6" d="M63,136.5h3.2v3.2H63V136.5z"/>
		<path class="st6" d="M66.2,136.5h3.2v3.2h-3.2V136.5z"/>
		<path class="st6" d="M69.4,136.5h3.2v3.2h-3.2V136.5z"/>
		<path class="st6" d="M72.5,136.5h3.2v3.2h-3.2V136.5z"/>
		<path class="st6" d="M75.7,136.5h3.2v3.2h-3.2V136.5z"/>
		<path class="st6" d="M78.8,136.5H82v3.2h-3.2V136.5z"/>
		<path class="st6" d="M82,136.5h3.2v3.2H82V136.5z"/>
		<path class="st6" d="M85.1,136.5h3.2v3.2h-3.2V136.5z"/>
		<path class="st6" d="M88.3,136.5h3.2v3.2h-3.2V136.5z"/>
		<path class="st6" d="M91.4,136.5h3.2v3.2h-3.2V136.5z"/>
		<path class="st6" d="M22.1,139.6h3.2v3.2h-3.2V139.6z"/>
		<path class="st6" d="M25.2,139.6h3.2v3.2h-3.2V139.6z"/>
		<path class="st6" d="M28.4,139.6h3.2v3.2h-3.2V139.6z"/>
		<path class="st6" d="M31.5,139.6h3.2v3.2h-3.2V139.6z"/>
		<path class="st6" d="M34.7,139.6h3.2v3.2h-3.2V139.6z"/>
		<path class="st6" d="M37.8,139.6H41v3.2h-3.2V139.6z"/>
		<path class="st6" d="M41,139.6h3.2v3.2H41V139.6z"/>
		<path class="st6" d="M44.1,139.6h3.2v3.2h-3.2V139.6z"/>
		<path class="st6" d="M47.3,139.6h3.2v3.2h-3.2V139.6z"/>
		<path class="st6" d="M50.4,139.6h3.2v3.2h-3.2V139.6z"/>
		<path class="st6" d="M53.6,139.6h3.2v3.2h-3.2V139.6z"/>
		<path class="st6" d="M56.7,139.6h3.2v3.2h-3.2V139.6z"/>
		<path class="st6" d="M59.9,139.6H63v3.2h-3.2V139.6z"/>
		<path class="st6" d="M63,139.6h3.2v3.2H63V139.6z"/>
		<path class="st6" d="M66.2,139.6h3.2v3.2h-3.2V139.6z"/>
		<path class="st6" d="M69.4,139.6h3.2v3.2h-3.2V139.6z"/>
		<path class="st6" d="M72.5,139.6h3.2v3.2h-3.2V139.6z"/>
		<path class="st6" d="M75.7,139.6h3.2v3.2h-3.2V139.6z"/>
	</g>
</g>
</svg>
